<?xml version="1.0" encoding="iso-8859-1"?>
<!-- Generator: Adobe Illustrator 19.0.0, SVG Export Plug-In . SVG Version: 6.00 Build 0)  -->
<svg version="1.1" id="Capa_1" xmlns="http://www.w3.org/2000/svg" xmlns:xlink="http://www.w3.org/1999/xlink" x="0px" y="0px"
	 viewBox="0 0 512 512" style="enable-background:new 0 0 512 512;" xml:space="preserve">
<path style="fill:#FFB125;" d="M342.633,44.047H143.447c-7.861,0-14.233,6.373-14.233,14.233v34.88h227.653V58.28
	C356.866,50.419,350.494,44.047,342.633,44.047z"/>
<path style="fill:#FEA921;" d="M394.937,300.346h-25.153V101.813h25.153c4.724,0,8.554,3.83,8.554,8.554v181.425
	C403.491,296.516,399.661,300.346,394.937,300.346z"/>
<path style="fill:#F2F2F2;" d="M315.442,0H170.638c-5.126,0-9.281,4.155-9.281,9.281V93.16h163.366V9.281
	C324.723,4.155,320.568,0,315.442,0z"/>
<path style="fill:#E6E6E6;" d="M315.442,0h-49.639c5.126,0,9.281,4.155,9.281,9.281v83.878h49.639V9.281
	C324.723,4.155,320.568,0,315.442,0z"/>
<path style="fill:#61AFF6;" d="M361.151,85.394H124.928c-9.068,0-16.419,7.351-16.419,16.419v192.582
	c0,18.634,2.211,37.203,6.586,55.316l0,0c4.375,18.113,6.586,36.682,6.586,55.316v89.497c0,9.651,7.824,17.475,17.475,17.475
	h207.767c9.651,0,17.475-7.824,17.475-17.475v-89.497c0-18.634,2.211-37.203,6.586-55.316l0,0
	c4.375-18.113,6.586-36.682,6.586-55.316V101.813C377.571,92.745,370.219,85.394,361.151,85.394z"/>
<path style="fill:#55A2F0;" d="M361.151,85.394h-49.218c9.068,0,16.419,7.351,16.419,16.419v192.582
	c0,18.634-2.211,37.203-6.586,55.316l0,0c-4.375,18.113-6.586,36.682-6.586,55.316v89.497c0,9.651-7.824,17.475-17.475,17.475
	h49.218c9.651,0,17.475-7.824,17.475-17.475v-89.497c0-18.634,2.211-37.203,6.586-55.316l0,0
	c4.375-18.113,6.586-36.682,6.586-55.316V101.813C377.571,92.745,370.219,85.394,361.151,85.394z"/>
<path style="fill:#F2F2F2;" d="M336.326,235.47H149.754c-4.609,0-8.345-3.736-8.345-8.345v-101.53c0-4.609,3.736-8.345,8.345-8.345
	h186.572c4.609,0,8.345,3.736,8.345,8.345v101.53C344.671,231.734,340.935,235.47,336.326,235.47z"/>
<path style="fill:#E6E6E6;" d="M336.326,117.25h-49.289c4.609,0,8.345,3.736,8.345,8.345v101.53c0,4.609-3.736,8.345-8.345,8.345
	h49.289c4.609,0,8.345-3.736,8.345-8.345v-101.53C344.671,120.986,340.935,117.25,336.326,117.25z"/>
<g>
	<path style="fill:#FEA921;" d="M191.118,387.593h-26.53c-3.789,0-6.861-3.072-6.861-6.861v-26.53c0-3.789,3.072-6.861,6.861-6.861
		h26.53c3.789,0,6.861,3.072,6.861,6.861v26.53C197.978,384.522,194.907,387.593,191.118,387.593z"/>
	<path style="fill:#FEA921;" d="M256.305,387.593h-26.53c-3.789,0-6.861-3.072-6.861-6.861v-26.53c0-3.789,3.072-6.861,6.861-6.861
		h26.53c3.789,0,6.861,3.072,6.861,6.861v26.53C263.165,384.522,260.094,387.593,256.305,387.593z"/>
	<path style="fill:#FEA921;" d="M321.492,387.593h-26.53c-3.789,0-6.861-3.072-6.861-6.861v-26.53c0-3.789,3.072-6.861,6.861-6.861
		h26.53c3.789,0,6.861,3.072,6.861,6.861v26.53C328.352,384.522,325.281,387.593,321.492,387.593z"/>
	<path style="fill:#FEA921;" d="M191.118,314.902h-26.53c-3.789,0-6.861-3.072-6.861-6.861v-26.53c0-3.789,3.072-6.861,6.861-6.861
		h26.53c3.789,0,6.861,3.072,6.861,6.861v26.53C197.978,311.831,194.907,314.902,191.118,314.902z"/>
	<path style="fill:#FEA921;" d="M256.305,314.902h-26.53c-3.789,0-6.861-3.072-6.861-6.861v-26.53c0-3.789,3.072-6.861,6.861-6.861
		h26.53c3.789,0,6.861,3.072,6.861,6.861v26.53C263.165,311.831,260.094,314.902,256.305,314.902z"/>
	<path style="fill:#FEA921;" d="M321.492,314.902h-26.53c-3.789,0-6.861-3.072-6.861-6.861v-26.53c0-3.789,3.072-6.861,6.861-6.861
		h26.53c3.789,0,6.861,3.072,6.861,6.861v26.53C328.352,311.831,325.281,314.902,321.492,314.902z"/>
	<path style="fill:#FEA921;" d="M191.118,457.409h-26.53c-3.789,0-6.861-3.072-6.861-6.861v-26.53c0-3.789,3.072-6.861,6.861-6.861
		h26.53c3.789,0,6.861,3.072,6.861,6.861v26.53C197.978,454.338,194.907,457.409,191.118,457.409z"/>
	<path style="fill:#FEA921;" d="M256.305,457.409h-26.53c-3.789,0-6.861-3.072-6.861-6.861v-26.53c0-3.789,3.072-6.861,6.861-6.861
		h26.53c3.789,0,6.861,3.072,6.861,6.861v26.53C263.165,454.338,260.094,457.409,256.305,457.409z"/>
	<path style="fill:#FEA921;" d="M321.492,457.409h-26.53c-3.789,0-6.861-3.072-6.861-6.861v-26.53c0-3.789,3.072-6.861,6.861-6.861
		h26.53c3.789,0,6.861,3.072,6.861,6.861v26.53C328.352,454.338,325.281,457.409,321.492,457.409z"/>
</g>
<path style="fill:#55A2F0;" d="M313.354,485.314H172.725c-8.283,0-14.998,6.715-14.998,14.998V512h170.625v-11.688
	C328.352,492.029,321.637,485.314,313.354,485.314z"/>
<g>
	<path style="fill:#FFB125;" d="M292.307,34.591h-99.452c-4.344,0-7.865-3.521-7.865-7.865s3.521-7.865,7.865-7.865h99.452
		c4.344,0,7.865,3.521,7.865,7.865S296.651,34.591,292.307,34.591z"/>
	<path style="fill:#FFB125;" d="M292.307,71.429h-99.452c-4.344,0-7.865-3.521-7.865-7.865s3.521-7.865,7.865-7.865h99.452
		c4.344,0,7.865,3.521,7.865,7.865S296.651,71.429,292.307,71.429z"/>
</g>
<path style="fill:#FF901D;" d="M241.303,213.509c-13.053-0.211-21.895-7.264-21.895-12.421c0-2.527,2.21-6,4.842-6
	c3.474,0,6.316,7.369,17.053,8.211V178.56c-9.474-3.368-20-7.158-20-20.632c0-13.264,10-18.527,20-19.579v-3.053
	c0-1.263,1.263-2.421,3.053-2.421c1.579,0,3.158,1.158,3.158,2.421v2.842c7.158,0.21,17.264,2.421,17.264,7.579c0,2-1.474,6-4.632,6
	c-2.526,0-5.263-3.368-12.632-3.895v21.369c9.158,3.368,19.158,8,19.158,22.316c0,12.948-7.79,20.106-19.158,21.685v3.579
	c0,1.263-1.579,2.421-3.158,2.421c-1.79,0-3.053-1.158-3.053-2.421V213.509z M241.935,167.191v-19.158
	c-5.895,0.737-10.105,3.368-10.105,8.842C231.829,162.876,236.355,165.086,241.935,167.191z M246.882,180.876v22.211
	c5.684-1.053,9.263-4.421,9.263-10.421C256.145,186.034,252.04,183.087,246.882,180.876z"/>
<g>
</g>
<g>
</g>
<g>
</g>
<g>
</g>
<g>
</g>
<g>
</g>
<g>
</g>
<g>
</g>
<g>
</g>
<g>
</g>
<g>
</g>
<g>
</g>
<g>
</g>
<g>
</g>
<g>
</g>
</svg>
