<?xml version="1.0" encoding="iso-8859-1"?>
<!-- Generator: Adobe Illustrator 19.0.0, SVG Export Plug-In . SVG Version: 6.00 Build 0)  -->
<svg version="1.1" id="Capa_1" xmlns="http://www.w3.org/2000/svg" xmlns:xlink="http://www.w3.org/1999/xlink" x="0px" y="0px"
	 viewBox="0 0 512 512" style="enable-background:new 0 0 512 512;" xml:space="preserve">
<path style="fill:#927266;" d="M287.141,16.638h-71.884c-40.032,0-72.484,32.452-72.484,72.484v51.237h26.052V89.122
	c0-25.603,20.829-46.432,46.432-46.432h71.884c25.603,0,46.432,20.829,46.432,46.432v51.237h26.052V89.123
	C359.625,49.091,327.173,16.638,287.141,16.638z"/>
<path style="fill:#FF7BAC;" d="M460.045,495.362H51.955c-33.472,0-58.202-31.199-50.561-63.787l47.582-202.947
	c12.123-51.709,58.247-88.269,111.358-88.269h191.332c53.111,0,99.235,36.56,111.358,88.269l47.582,202.947
	C518.246,464.163,493.516,495.362,460.045,495.362z"/>
<path style="fill:#EF609A;" d="M497.817,479.045c0.215-0.229,0.432-0.456,0.643-0.688c0.425-0.468,0.838-0.947,1.246-1.431
	c0.188-0.223,0.378-0.445,0.563-0.672c0.413-0.506,0.812-1.021,1.206-1.542c0.163-0.216,0.327-0.431,0.487-0.65
	c0.398-0.544,0.782-1.097,1.159-1.656c0.139-0.206,0.278-0.411,0.414-0.62c0.38-0.582,0.747-1.173,1.104-1.77
	c0.116-0.195,0.233-0.389,0.347-0.585c0.36-0.621,0.706-1.249,1.041-1.885c0.095-0.181,0.19-0.361,0.283-0.543
	c0.337-0.658,0.659-1.324,0.968-1.997c0.077-0.167,0.153-0.334,0.228-0.502c0.31-0.695,0.605-1.396,0.884-2.106
	c0.06-0.152,0.119-0.305,0.178-0.458c0.28-0.73,0.544-1.468,0.792-2.212c0.046-0.137,0.09-0.273,0.134-0.411
	c0.247-0.765,0.477-1.536,0.689-2.314c0.033-0.121,0.065-0.243,0.097-0.364c0.211-0.798,0.403-1.601,0.576-2.411
	c0.022-0.106,0.044-0.212,0.065-0.318c0.171-0.829,0.323-1.662,0.454-2.502c0.014-0.09,0.026-0.181,0.04-0.271
	c0.129-0.858,0.237-1.72,0.322-2.589c0.007-0.075,0.013-0.15,0.02-0.224c0.083-0.885,0.145-1.774,0.182-2.669
	c0.002-0.061,0.003-0.122,0.006-0.182c0.034-0.91,0.046-1.824,0.032-2.743c-0.001-0.045-0.003-0.09-0.004-0.135
	c-0.017-0.934-0.058-1.872-0.127-2.813c-0.002-0.031-0.005-0.061-0.008-0.091c-0.071-0.956-0.168-1.915-0.294-2.877
	c-0.002-0.016-0.005-0.033-0.007-0.049c-0.128-0.976-0.284-1.953-0.47-2.934v-0.001l0,0c-0.142-0.751-0.283-1.501-0.46-2.254
	l-47.582-202.947c-12.123-51.709-58.247-88.269-111.358-88.269h-48.431c53.111,0,99.235,36.56,111.358,88.269l47.582,202.947
	c0.039,0.164,0.076,0.329,0.113,0.493c5.063,22.548-12.316,43.922-35.426,43.922H51.955c-25.873,0-46.507-18.646-51.021-42.161
	c-6.016,31.757,18.322,61.533,51.021,61.533h359.658h48.431c1.034,0,2.06-0.031,3.077-0.09c0.336-0.019,0.664-0.06,0.998-0.085
	c0.677-0.052,1.355-0.1,2.023-0.177c0.407-0.047,0.805-0.117,1.209-0.173c0.586-0.082,1.174-0.156,1.753-0.257
	c0.433-0.076,0.858-0.174,1.288-0.26c0.538-0.108,1.079-0.208,1.611-0.333c0.445-0.104,0.88-0.23,1.319-0.345
	c0.505-0.133,1.013-0.258,1.512-0.405c0.45-0.133,0.89-0.286,1.335-0.431c0.475-0.155,0.954-0.303,1.423-0.47
	c0.454-0.162,0.897-0.344,1.344-0.518s0.897-0.342,1.337-0.529c0.455-0.192,0.899-0.402,1.347-0.607
	c0.419-0.192,0.841-0.377,1.254-0.58c0.456-0.223,0.901-0.464,1.349-0.7c0.389-0.205,0.782-0.406,1.165-0.621
	c0.456-0.256,0.902-0.527,1.349-0.797c0.36-0.216,0.722-0.428,1.076-0.653c0.456-0.289,0.9-0.593,1.346-0.896
	c0.33-0.224,0.662-0.444,0.986-0.675c0.453-0.324,0.895-0.661,1.337-0.998c0.3-0.229,0.603-0.456,0.898-0.691
	c0.448-0.358,0.885-0.729,1.321-1.101c0.272-0.232,0.546-0.462,0.813-0.7c0.442-0.394,0.873-0.8,1.301-1.208
	c0.243-0.232,0.489-0.462,0.728-0.699C496.975,479.932,497.398,479.49,497.817,479.045z"/>
<path style="fill:#FFB125;" d="M48.994,249.773c-1.598,0-3.22-0.182-4.844-0.563c-11.367-2.665-18.421-14.04-15.756-25.407
	c6.947-29.631,23.908-56.361,47.758-75.267c23.851-18.905,53.747-29.317,84.181-29.317h191.332
	c30.435,0,60.331,10.412,84.181,29.317c23.851,18.905,40.811,45.635,47.759,75.267c2.666,11.367-4.389,22.742-15.756,25.407
	c-11.369,2.665-22.742-4.39-25.407-15.756c-9.933-42.366-47.262-71.955-90.777-71.955H160.334
	c-43.515,0-80.844,29.589-90.776,71.955C67.273,243.197,58.587,249.773,48.994,249.773z"/>
<path style="fill:#FF901D;" d="M455.124,224.969c-11.329-48.282-53.864-82.007-103.458-82.007H160.334
	c-49.594,0-93.877,33.693-105.071,82.008l-6.983,24.783c0.238,0.008,0.477,0.02,0.715,0.02c9.593,0,18.279-6.576,20.564-16.319
	c9.932-42.367,47.261-71.955,90.776-71.955h191.332c43.515,0,80.844,29.589,90.777,71.955c2.369,10.105,11.622,16.795,21.635,16.285
	C464.077,249.739,455.861,228.108,455.124,224.969z"/>
<circle style="fill:#FFFFFF;" cx="256" cy="329.86" r="95.49"/>
<path style="fill:#E1EFFB;" d="M323.519,262.336L188.481,397.374c37.289,37.289,97.748,37.289,135.037,0
	C360.808,360.084,360.808,299.626,323.519,262.336z"/>
<path style="fill:#EF609A;" d="M252.936,390.238c-20.099-0.324-33.715-11.185-33.715-19.127c0-3.89,3.404-9.239,7.456-9.239
	c5.349,0,9.725,11.347,26.258,12.643v-38.091c-14.588-5.187-30.797-11.022-30.797-31.77c0-20.424,15.398-28.528,30.797-30.149v-4.7
	c0-1.945,1.945-3.728,4.701-3.728c2.431,0,4.862,1.783,4.862,3.728v4.376c11.022,0.324,26.583,3.728,26.583,11.671
	c0,3.08-2.269,9.239-7.132,9.239c-3.89,0-8.104-5.187-19.451-5.997v32.904C276.601,327.185,292,334.317,292,356.361
	c0,19.937-11.995,30.959-29.501,33.391v5.511c0,1.945-2.431,3.728-4.862,3.728c-2.756,0-4.701-1.783-4.701-3.728L252.936,390.238
	L252.936,390.238z M253.909,318.918v-29.5c-9.077,1.134-15.561,5.186-15.561,13.615
	C238.348,312.272,245.318,315.677,253.909,318.918z M261.527,339.99v34.201c8.753-1.621,14.264-6.808,14.264-16.047
	C275.791,347.932,269.47,343.394,261.527,339.99z"/>
<g>
</g>
<g>
</g>
<g>
</g>
<g>
</g>
<g>
</g>
<g>
</g>
<g>
</g>
<g>
</g>
<g>
</g>
<g>
</g>
<g>
</g>
<g>
</g>
<g>
</g>
<g>
</g>
<g>
</g>
</svg>
