<?xml version="1.0" encoding="iso-8859-1"?>
<!-- Generator: Adobe Illustrator 19.0.0, SVG Export Plug-In . SVG Version: 6.00 Build 0)  -->
<svg version="1.1" id="Capa_1" xmlns="http://www.w3.org/2000/svg" xmlns:xlink="http://www.w3.org/1999/xlink" x="0px" y="0px"
	 viewBox="0 0 512.001 512.001" style="enable-background:new 0 0 512.001 512.001;" xml:space="preserve">
<path style="fill:#CCDFED;" d="M269.898,5.215c-8.381-6.89-19.423-6.89-27.804,0L0,204.247v282.109
	c0,14.136,11.584,25.596,25.873,25.596h460.255c14.289,0,25.873-11.46,25.873-25.596V204.247L269.898,5.215z"/>
<path style="fill:#B2CAD8;" d="M0,204.248v282.109c0,14.136,11.584,25.596,25.873,25.596h460.255
	c14.289,0,25.873-11.46,25.873-25.596V204.248H0z"/>
<path style="fill:#FF6D3A;" d="M443.885,57.175H68.115c-10.471,0-18.96,8.489-18.96,18.96v416.859c0,10.471,8.489,18.96,18.96,18.96
	h375.769c10.471,0,18.96-8.489,18.96-18.96V76.134C462.844,65.663,454.356,57.175,443.885,57.175z"/>
<path style="fill:#ED5729;" d="M443.885,57.175h-46.544c10.471,0,18.96,8.488,18.96,18.96v416.859c0,10.471-8.488,18.96-18.96,18.96
	h46.544c10.471,0,18.96-8.489,18.96-18.96V76.134C462.844,65.663,454.356,57.175,443.885,57.175z"/>
<path style="fill:#E1EFFB;" d="M276.575,384.136c-12.05,8.572-29.099,8.572-41.149,0L0,204.248v282.109
	c0,14.136,11.584,25.596,25.873,25.596h460.255c14.289,0,25.873-11.46,25.873-25.596V204.248L276.575,384.136z"/>
<g>
	<path style="fill:#CCDFED;" d="M464.956,240.194v225.81c0,14.136-11.584,25.596-25.873,25.596H0.545
		c2.446,11.621,12.855,20.353,25.327,20.353h460.255c14.289,0,25.873-11.46,25.873-25.596V204.248L464.956,240.194z"/>
	<path style="fill:#CCDFED;" d="M488.077,511.873c0.339-0.025,0.678-0.054,1.014-0.092c0.173-0.02,0.346-0.042,0.518-0.065
		c0.323-0.043,0.644-0.092,0.963-0.147c0.163-0.028,0.325-0.055,0.487-0.086c0.357-0.068,0.711-0.145,1.062-0.228
		c0.114-0.027,0.229-0.05,0.342-0.078c0.475-0.118,0.946-0.248,1.41-0.392c0.002-0.001,0.004-0.001,0.006-0.002
		c0.456-0.142,0.906-0.298,1.351-0.464c0.101-0.038,0.2-0.078,0.3-0.117c0.351-0.136,0.699-0.278,1.042-0.428
		c0.109-0.048,0.218-0.097,0.326-0.146c0.349-0.158,0.693-0.324,1.033-0.497c0.082-0.042,0.165-0.083,0.247-0.125
		c1.3-0.679,2.535-1.463,3.692-2.343c0.025-0.019,0.05-0.039,0.075-0.058c0.361-0.277,0.715-0.563,1.06-0.858
		c0.034-0.029,0.068-0.058,0.102-0.088c0.359-0.31,0.711-0.628,1.052-0.956c0.002-0.002,0.004-0.004,0.006-0.005
		c1.074-1.035,2.058-2.161,2.939-3.367l0,0L322.171,349.296l-45.597,34.84c-12.05,8.572-29.099,8.572-41.149,0l-45.599-34.843
		L4.895,501.33c0.881,1.206,1.865,2.333,2.94,3.368c0.001,0.001,0.002,0.002,0.002,0.002c0.343,0.33,0.696,0.65,1.057,0.961
		c0.032,0.028,0.064,0.055,0.096,0.083c0.347,0.296,0.703,0.584,1.066,0.862c0.024,0.018,0.047,0.037,0.071,0.055
		c1.158,0.881,2.393,1.665,3.694,2.344c0.082,0.043,0.165,0.083,0.247,0.125c0.34,0.173,0.684,0.338,1.032,0.497
		c0.109,0.049,0.218,0.099,0.327,0.146c0.343,0.15,0.69,0.292,1.04,0.427c0.101,0.039,0.201,0.08,0.302,0.118
		c0.445,0.166,0.895,0.322,1.351,0.464c0.002,0.001,0.004,0.001,0.006,0.002c0.464,0.144,0.935,0.274,1.41,0.392
		c0.113,0.028,0.228,0.051,0.341,0.078c0.352,0.083,0.706,0.16,1.063,0.228c0.161,0.031,0.324,0.058,0.486,0.086
		c0.319,0.055,0.64,0.104,0.963,0.147c0.172,0.023,0.344,0.046,0.517,0.065c0.336,0.038,0.674,0.067,1.014,0.092
		c0.154,0.011,0.308,0.026,0.463,0.035c0.492,0.028,0.987,0.045,1.486,0.045h460.255c0.499,0,0.994-0.017,1.486-0.045
		C487.769,511.899,487.923,511.884,488.077,511.873z"/>
</g>
<path style="fill:#B2CAD8;" d="M464.939,466.665c-0.355,13.83-11.791,24.935-25.856,24.935H16.73l-11.834,9.729
	c0.003,0.004,0.006,0.009,0.01,0.014c0.878,1.201,1.859,2.323,2.93,3.355c0.001,0.001,0.002,0.002,0.002,0.002
	c0.093,0.09,0.192,0.173,0.286,0.26c0.348,0.325,0.705,0.642,1.071,0.948c0.186,0.155,0.375,0.307,0.565,0.458
	c0.251,0.198,0.511,0.386,0.77,0.575c0.366,0.267,0.736,0.528,1.116,0.776c0.228,0.149,0.46,0.291,0.693,0.433
	c0.389,0.237,0.782,0.466,1.184,0.683c0.362,0.195,0.726,0.385,1.098,0.563c0.16,0.077,0.318,0.157,0.48,0.231
	c0.011,0.005,0.021,0.01,0.032,0.014c0.562,0.254,1.134,0.49,1.717,0.704c0.158,0.058,0.319,0.109,0.478,0.164
	c0.481,0.166,0.969,0.32,1.462,0.458c0.175,0.049,0.348,0.1,0.524,0.146c0.594,0.153,1.195,0.287,1.805,0.399
	c0.103,0.018,0.206,0.037,0.309,0.055c0.041,0.007,0.082,0.012,0.123,0.019c0.565,0.094,1.136,0.168,1.712,0.225
	c0.183,0.018,0.365,0.036,0.549,0.05c0.677,0.053,1.359,0.089,2.05,0.089c0.003,0,0.006,0,0.009,0h460.255
	c0.499,0,0.994-0.018,1.486-0.045c0.155-0.009,0.309-0.023,0.463-0.035c0.339-0.025,0.678-0.054,1.013-0.092
	c0.173-0.02,0.346-0.042,0.518-0.065c0.323-0.043,0.644-0.092,0.963-0.147c0.163-0.028,0.325-0.055,0.487-0.086
	c0.357-0.068,0.711-0.145,1.062-0.228c0.114-0.027,0.229-0.05,0.342-0.078c0.475-0.118,0.946-0.248,1.41-0.392
	c0.001,0,0.002,0,0.003-0.001c0.003-0.001,0.005-0.002,0.008-0.003c0.455-0.141,0.903-0.297,1.347-0.462
	c0.046-0.017,0.092-0.036,0.138-0.054c0.056-0.021,0.111-0.043,0.167-0.065c0.349-0.135,0.696-0.276,1.038-0.426
	c0.109-0.048,0.217-0.097,0.326-0.146c0.348-0.158,0.693-0.324,1.032-0.496c0.083-0.042,0.166-0.083,0.249-0.126
	c0.638-0.333,1.259-0.693,1.865-1.076c0.022-0.014,0.045-0.028,0.067-0.042c0.604-0.385,1.192-0.793,1.76-1.225
	c0.025-0.019,0.05-0.039,0.075-0.058c0.361-0.277,0.715-0.563,1.06-0.858c0.034-0.029,0.068-0.058,0.102-0.088
	c0.359-0.309,0.711-0.628,1.052-0.956c0.002-0.002,0.004-0.003,0.006-0.005c0.533-0.513,1.043-1.049,1.53-1.606
	c0.008-0.009,0.016-0.018,0.023-0.027c0.486-0.558,0.949-1.136,1.386-1.734l0,0l0,0L464.939,466.665z"/>
<g>
	<path style="fill:#FFFFFF;" d="M401.031,232.145H110.969c-4.146,0-7.507-3.361-7.507-7.507s3.361-7.507,7.507-7.507h290.062
		c4.146,0,7.507,3.361,7.507,7.507S405.177,232.145,401.031,232.145z"/>
	<path style="fill:#FFFFFF;" d="M381.315,280.19h-250.63c-4.146,0-7.507-3.361-7.507-7.507s3.361-7.507,7.507-7.507h250.63
		c4.146,0,7.507,3.361,7.507,7.507S385.462,280.19,381.315,280.19z"/>
	<path style="fill:#FFFFFF;" d="M187.866,104.026h-46.208c-3.375,0-5.141,3.315-5.141,6.589c0,3.883,2.162,6.701,5.141,6.701h16.014
		v65.45c0,3.027,2.938,5.142,7.145,5.142c3.551,0,7.146-1.766,7.146-5.142v-65.45h15.902c3.027,0,5.142-2.801,5.142-6.812
		C193.007,107.384,191.398,104.026,187.866,104.026z"/>
	<path style="fill:#FFFFFF;" d="M260.633,108.217c-0.984-2.952-4.42-4.86-8.752-4.86c-4.265,0-7.656,1.908-8.65,4.888
		l-22.147,72.122c-0.176,0.526-0.176,1.009-0.176,1.396c0,3.621,4.529,6.144,8.593,6.144c3.528,0,4.834-1.807,5.315-3.349
		l4.305-14.911h25.631l4.313,14.937c0.67,2.142,2.516,3.322,5.197,3.322c4.109,0,8.704-2.627,8.704-6.144
		c0-0.535-0.159-1.011-0.276-1.365L260.633,108.217z M242.405,157.693l9.476-32.5l9.476,32.5H242.405z"/>
	<path style="fill:#FFFFFF;" d="M374.533,178.24l-18.9-32.337l18.357-32.123c0.694-1.252,1.047-2.429,1.047-3.5
		c0-3.883-4.529-6.589-8.593-6.589c-2.368,0-4.349,1.44-5.546,3.988l-14.489,26.493l-14.273-26.478
		c-1.751-3.309-3.987-4.003-5.554-4.003c-4.117,0-8.705,2.706-8.705,6.589c0,1.071,0.352,2.248,1.055,3.513l18.349,32.11
		l-18.938,32.409c-0.538,1.077-0.8,2.023-0.8,2.895c0,3.897,4.823,7.035,8.816,7.035c1.868,0,3.64-1.199,4.876-3.318l15.173-27.644
		l15.359,27.601c0.812,1.625,2.497,3.36,4.787,3.36c4.128,0,8.927-3.073,8.927-7.035
		C375.483,180.316,375.119,179.406,374.533,178.24z"/>
</g>
<g>
</g>
<g>
</g>
<g>
</g>
<g>
</g>
<g>
</g>
<g>
</g>
<g>
</g>
<g>
</g>
<g>
</g>
<g>
</g>
<g>
</g>
<g>
</g>
<g>
</g>
<g>
</g>
<g>
</g>
</svg>
