<?xml version="1.0" encoding="iso-8859-1"?>
<!-- Generator: Adobe Illustrator 19.0.0, SVG Export Plug-In . SVG Version: 6.00 Build 0)  -->
<svg version="1.1" id="Capa_1" xmlns="http://www.w3.org/2000/svg" xmlns:xlink="http://www.w3.org/1999/xlink" x="0px" y="0px"
	 viewBox="0 0 512 512" style="enable-background:new 0 0 512 512;" xml:space="preserve">
<path style="fill:#21D8DE;" d="M253.733,482.731L76.168,252.518c-0.712-0.923-0.793-2.185-0.206-3.192l59.368-101.728
	c0.513-0.879,1.455-1.42,2.473-1.42h236.392c1.018,0,1.96,0.541,2.473,1.42l59.368,101.728c0.588,1.007,0.506,2.269-0.206,3.192
	L258.267,482.731C257.121,484.217,254.879,484.217,253.733,482.731z"/>
<path style="fill:#0FB9C1;" d="M436.037,249.326l-59.368-101.728c-0.513-0.879-1.455-1.42-2.473-1.42h-56.651l61.169,104.813
	L254.491,483.396c1.202,0.751,2.846,0.541,3.776-0.665l177.564-230.213C436.543,251.596,436.625,250.333,436.037,249.326z"/>
<path style="fill:#3DEAE5;" d="M380.166,153.591l-3.497-5.992c-0.513-0.879-1.455-1.42-2.473-1.42h-7.008l-52.283,89.577
	l-50.335-89.577h-17.142l-50.335,89.577l-52.283-89.577h-7.008c-1.018,0-1.96,0.541-2.473,1.42l-3.497,5.992l52.425,89.82H79.415
	l-3.452,5.915c-0.588,1.007-0.506,2.269,0.206,3.192l4.502,5.837h110.748l53.808,213.348l8.505,11.027
	c1.146,1.486,3.388,1.486,4.535,0l8.505-11.027l53.808-213.348h110.748l4.502-5.837c0.712-0.923,0.793-2.185,0.206-3.192
	l-3.452-5.915H327.741L380.166,153.591z M256,161.432l46.065,81.979h-92.13L256,161.432z M256,453.305l-49.168-194.95h98.336
	L256,453.305z"/>
<g>
	<path style="fill:#21D8DE;" d="M351.017,203.532l29.149-49.942l-3.497-5.992c-0.513-0.879-1.455-1.42-2.473-1.42h-7.008
		l-24.823,42.529L351.017,203.532z"/>
	<path style="fill:#21D8DE;" d="M436.037,249.326l-3.452-5.915H374.29l4.424,7.581l-3.936,7.364h56.551l4.502-5.837
		C436.543,251.596,436.625,250.333,436.037,249.326z"/>
	<path style="fill:#21D8DE;" d="M272.162,450.336l-17.671,33.059h0.001c0.565,0.353,1.227,0.485,1.867,0.41
		c0.052-0.007,0.104-0.008,0.156-0.017c0.104-0.018,0.205-0.049,0.306-0.079c0.094-0.028,0.187-0.058,0.278-0.096
		c0.081-0.033,0.16-0.07,0.238-0.111c0.112-0.059,0.218-0.128,0.323-0.203c0.057-0.041,0.116-0.078,0.171-0.123
		c0.157-0.131,0.306-0.277,0.437-0.447l8.505-11.027L272.162,450.336z"/>
</g>
<g>
	<path style="fill:#3DEAE5;" d="M256,28.154c-4.127,0-7.472,3.345-7.472,7.472v33.875c0,4.127,3.346,7.472,7.472,7.472
		s7.472-3.345,7.472-7.472V35.627C263.472,31.499,260.127,28.154,256,28.154z"/>
	<path style="fill:#3DEAE5;" d="M426.452,86.529l-23.953,23.952c-2.918,2.919-2.918,7.649,0,10.568
		c1.459,1.458,3.371,2.188,5.284,2.188c1.912,0,3.825-0.73,5.284-2.188l23.953-23.952c2.918-2.919,2.918-7.649,0-10.568
		C434.101,83.612,429.37,83.612,426.452,86.529z"/>
	<path style="fill:#3DEAE5;" d="M504.528,260.076h-33.875c-4.127,0-7.472,3.345-7.472,7.472s3.346,7.472,7.472,7.472h33.875
		c4.127,0,7.472-3.345,7.472-7.472S508.654,260.076,504.528,260.076z"/>
	<path style="fill:#3DEAE5;" d="M41.347,260.076H7.472c-4.127,0-7.472,3.345-7.472,7.472s3.346,7.472,7.472,7.472h33.875
		c4.127,0,7.472-3.345,7.472-7.472S45.474,260.076,41.347,260.076z"/>
	<path style="fill:#3DEAE5;" d="M85.548,86.529c-2.918-2.917-7.649-2.917-10.567,0c-2.918,2.919-2.918,7.649,0,10.568l23.953,23.952
		c1.459,1.458,3.371,2.188,5.284,2.188s3.825-0.73,5.284-2.188c2.918-2.919,2.918-7.649,0-10.568L85.548,86.529z"/>
</g>
<g>
</g>
<g>
</g>
<g>
</g>
<g>
</g>
<g>
</g>
<g>
</g>
<g>
</g>
<g>
</g>
<g>
</g>
<g>
</g>
<g>
</g>
<g>
</g>
<g>
</g>
<g>
</g>
<g>
</g>
</svg>
