<?xml version="1.0" encoding="iso-8859-1"?>
<!-- Generator: Adobe Illustrator 19.0.0, SVG Export Plug-In . SVG Version: 6.00 Build 0)  -->
<svg version="1.1" id="Capa_1" xmlns="http://www.w3.org/2000/svg" xmlns:xlink="http://www.w3.org/1999/xlink" x="0px" y="0px"
	 viewBox="0 0 511.999 511.999" style="enable-background:new 0 0 511.999 511.999;" xml:space="preserve">
<path style="fill:#2D5872;" d="M85.782,11.511C63.339,19.407,51.689,44.133,59.89,66.467l143.237,389.785
	c12.658,34.473,50.863,52.934,85.306,40.194c34.753-12.855,52.263-51.877,38.399-86.539c-12.823-32.059-48.923-48.936-81.754-38.244
	c-7.876,2.565-14.902,6.469-20.963,11.342L85.782,11.511L85.782,11.511z M255.018,405.909c15.783-5.795,33.276,2.302,39.071,18.085
	c5.795,15.783-2.302,33.276-18.085,39.071c-15.783,5.795-33.276-2.302-39.071-18.085S239.235,411.705,255.018,405.909z"/>
<path style="fill:#1D4859;" d="M224.115,383.005l-0.001-0.003L85.783,11.511l0,0c-1.057,0.372-2.083,0.793-3.091,1.238l0,0
	c-0.563,0.248-1.119,0.506-1.667,0.776c-0.236,0.116-0.471,0.233-0.703,0.354c-0.595,0.307-1.18,0.628-1.756,0.961
	c-0.146,0.084-0.295,0.164-0.439,0.25c-0.743,0.441-1.47,0.9-2.179,1.382c-0.012,0.008-0.023,0.016-0.035,0.025
	c-0.012,0.008-0.023,0.017-0.035,0.025c-0.673,0.46-1.328,0.939-1.969,1.433c-0.127,0.098-0.251,0.198-0.376,0.297
	c-0.563,0.444-1.113,0.9-1.65,1.369c-0.101,0.088-0.203,0.176-0.303,0.265c-1.289,1.149-2.505,2.367-3.636,3.652l0,0l0,0
	l144.609,389.537c0.744-0.598,1.503-1.181,2.276-1.749c10.609-12.831,26.648-21.007,44.597-21.007
	c31.945,0,57.841,25.896,57.841,57.841c0,18.273-8.482,34.556-21.714,45.156c7.431-3.784,13.891-8.844,19.211-14.804
	c0.056-0.063,0.115-0.125,0.171-0.189c0.586-0.661,1.154-1.336,1.711-2.019c0.097-0.119,0.196-0.237,0.293-0.357
	c0.525-0.652,1.034-1.315,1.533-1.985c0.118-0.158,0.236-0.316,0.352-0.476c0.475-0.65,0.936-1.308,1.386-1.974
	c0.127-0.188,0.253-0.376,0.378-0.566c0.432-0.653,0.852-1.313,1.26-1.979c0.128-0.209,0.253-0.42,0.378-0.631
	c0.394-0.66,0.779-1.325,1.149-1.999c0.122-0.223,0.24-0.448,0.36-0.672c0.361-0.673,0.714-1.35,1.051-2.036
	c0.111-0.225,0.214-0.453,0.323-0.68c0.332-0.694,0.659-1.391,0.966-2.097c0.091-0.209,0.174-0.422,0.264-0.633
	c0.31-0.732,0.616-1.466,0.899-2.209c0.052-0.135,0.097-0.273,0.148-0.409c0.967-2.582,1.775-5.226,2.414-7.918
	c0.026-0.109,0.057-0.217,0.083-0.326c0.148-0.637,0.272-1.281,0.401-1.923c0.077-0.384,0.163-0.765,0.233-1.151
	c0.105-0.574,0.19-1.153,0.279-1.731c0.071-0.459,0.148-0.917,0.209-1.377c0.073-0.548,0.13-1.099,0.189-1.649
	c0.053-0.496,0.109-0.991,0.151-1.488c0.045-0.532,0.077-1.066,0.109-1.6c0.031-0.521,0.062-1.043,0.081-1.566
	c0.019-0.52,0.028-1.042,0.034-1.563c0.007-0.54,0.01-1.08,0.003-1.622c-0.006-0.512-0.02-1.024-0.038-1.537
	c-0.02-0.555-0.047-1.11-0.081-1.666c-0.031-0.502-0.066-1.005-0.108-1.508c-0.048-0.57-0.107-1.14-0.17-1.71
	c-0.055-0.492-0.11-0.984-0.176-1.477c-0.078-0.584-0.17-1.168-0.264-1.752c-0.077-0.479-0.152-0.958-0.241-1.438
	c-0.111-0.604-0.24-1.208-0.369-1.811c-0.098-0.459-0.19-0.919-0.298-1.377c-0.15-0.635-0.32-1.267-0.489-1.901
	c-0.114-0.427-0.219-0.855-0.342-1.281c-0.203-0.704-0.432-1.406-0.66-2.108c-0.115-0.353-0.217-0.708-0.338-1.061
	c-0.362-1.054-0.749-2.104-1.167-3.151c-2.004-5.009-4.576-9.648-7.615-13.869c-0.939-1.304-1.936-2.556-2.961-3.779
	c-0.911-1.087-1.846-2.15-2.82-3.171c-0.058-0.061-0.113-0.126-0.171-0.186c-0.713-0.74-1.441-1.463-2.186-2.167
	s-1.504-1.39-2.278-2.058c-1.549-1.335-3.156-2.596-4.815-3.779c-2.489-1.775-5.095-3.375-7.796-4.791
	c-7.091-3.718-14.841-6.156-22.849-7.146c-0.213-0.026-0.427-0.054-0.64-0.078c-1.949-0.222-3.913-0.363-5.886-0.409
	c-3.093-0.073-6.208,0.073-9.324,0.447c-3.116,0.374-6.232,0.978-9.326,1.82c-1.032,0.281-2.061,0.588-3.087,0.922
	c-1.969,0.641-3.885,1.366-5.746,2.169c-0.001,0.001-0.003,0.001-0.004,0.002c-0.837,0.361-1.659,0.743-2.474,1.135
	c-0.241,0.116-0.479,0.236-0.718,0.354c-0.6,0.298-1.193,0.604-1.781,0.918c-0.233,0.125-0.468,0.249-0.699,0.376
	c-2.906,1.6-5.648,3.407-8.231,5.38C224.988,382.333,224.543,382.661,224.115,383.005z"/>
<path style="fill:#77DD00;" d="M499.967,322.935H35.008c-6.646,0-12.033-5.387-12.033-12.033V78.501
	c0-6.646,5.387-12.033,12.033-12.033h464.958c6.646,0,12.033,5.387,12.033,12.033v232.402
	C512,317.548,506.613,322.935,499.967,322.935z"/>
<path style="fill:#73CC00;" d="M499.967,66.467h-34.196v223.997c0,6.646-5.387,12.033-12.033,12.033H22.975v8.405
	c0,6.646,5.388,12.033,12.033,12.033h464.958c6.646,0,12.033-5.388,12.033-12.033V78.501C512,71.855,506.613,66.467,499.967,66.467z
	"/>
<path style="fill:#FFFFFF;" d="M95.581,253.674c-20.344-0.328-34.126-11.321-34.126-19.36c0-3.938,3.445-9.352,7.547-9.352
	c5.414,0,9.844,11.485,26.579,12.797v-38.555c-14.766-5.25-31.172-11.157-31.172-32.157c0-20.673,15.586-28.876,31.172-30.517
	v-4.758c0-1.969,1.969-3.774,4.758-3.774c2.461,0,4.922,1.805,4.922,3.774v4.43c11.157,0.328,26.907,3.774,26.907,11.813
	c0,3.117-2.297,9.352-7.219,9.352c-3.937,0-8.203-5.25-19.688-6.07v33.305c14.274,5.25,29.86,12.469,29.86,34.782
	c0,20.18-12.141,31.337-29.86,33.798v5.578c0,1.969-2.461,3.773-4.922,3.773c-2.789,0-4.758-1.805-4.758-3.773V253.674z
	 M96.566,181.485v-29.86c-9.188,1.148-15.75,5.25-15.75,13.781C80.815,174.758,87.87,178.203,96.566,181.485z M104.277,202.813
	v34.618c8.86-1.641,14.438-6.891,14.438-16.243C118.715,210.852,112.316,206.259,104.277,202.813z"/>
<rect x="158.61" y="66.469" style="fill:#B6FA4D;" width="14.87" height="256.47"/>
<path style="fill:#2D5872;" d="M245.809,11.511L107.477,383.005c-6.061-4.873-13.087-8.777-20.963-11.342
	c-32.831-10.692-68.931,6.185-81.754,38.244c-13.864,34.661,3.645,73.683,38.399,86.539c34.442,12.74,72.648-5.721,85.306-40.194
	L271.702,66.467C279.903,44.133,268.253,19.407,245.809,11.511L245.809,11.511z M94.659,444.98
	c-5.795,15.783-23.288,23.88-39.071,18.085s-23.88-23.288-18.085-39.071s23.288-23.88,39.071-18.085
	C92.357,411.705,100.454,429.197,94.659,444.98z"/>
<path style="fill:#1D4859;" d="M249.588,13.051c6.651,10.758,8.49,24.352,3.785,37.165L110.136,440
	c-12.658,34.473-50.863,52.934-85.306,40.194c-3.895-1.441-7.56-3.226-11.002-5.281c7.314,9.473,17.284,17.077,29.33,21.533
	c34.442,12.74,72.648-5.721,85.306-40.194L271.702,66.467C279.428,45.425,269.529,22.264,249.588,13.051z"/>
<g>
	<path style="fill:#FFFFFF;" d="M297.518,162.438h-37.133c-2.712,0-4.131,2.664-4.131,5.295c0,3.12,1.737,5.385,4.131,5.385h12.869
		v52.597c0,2.433,2.361,4.132,5.742,4.132c2.854,0,5.743-1.419,5.743-4.132v-52.597h12.779c2.433,0,4.132-2.251,4.132-5.475
		C301.649,165.137,300.356,162.438,297.518,162.438z"/>
	<path style="fill:#FFFFFF;" d="M355.994,165.807c-0.791-2.372-3.552-3.905-7.033-3.905c-3.427,0-6.153,1.533-6.951,3.928
		l-17.798,57.958c-0.142,0.423-0.142,0.811-0.142,1.122c0,2.91,3.64,4.938,6.906,4.938c2.835,0,3.884-1.452,4.271-2.691
		l3.459-11.982h20.597l3.466,12.004c0.539,1.722,2.022,2.67,4.176,2.67c3.302,0,6.995-2.111,6.995-4.938
		c0-0.43-0.127-0.813-0.222-1.097L355.994,165.807z M341.346,205.566l7.615-26.117l7.615,26.117H341.346z"/>
	<path style="fill:#FFFFFF;" d="M447.526,222.078l-15.188-25.986l14.752-25.814c0.558-1.006,0.841-1.952,0.841-2.813
		c0-3.12-3.639-5.295-6.905-5.295c-1.903,0-3.495,1.157-4.457,3.205l-11.644,21.29l-11.47-21.278
		c-1.407-2.659-3.204-3.217-4.463-3.217c-3.309,0-6.995,2.175-6.995,5.295c0,0.86,0.283,1.807,0.848,2.823l14.746,25.804
		l-15.219,26.044c-0.432,0.865-0.643,1.626-0.643,2.326c0,3.132,3.876,5.653,7.085,5.653c1.501,0,2.925-0.964,3.918-2.666
		l12.193-22.215l12.343,22.181c0.653,1.306,2.006,2.7,3.847,2.7c3.317,0,7.174-2.47,7.174-5.653
		C448.29,223.746,447.997,223.015,447.526,222.078z"/>
</g>
<g>
</g>
<g>
</g>
<g>
</g>
<g>
</g>
<g>
</g>
<g>
</g>
<g>
</g>
<g>
</g>
<g>
</g>
<g>
</g>
<g>
</g>
<g>
</g>
<g>
</g>
<g>
</g>
<g>
</g>
</svg>
