<?xml version="1.0" encoding="iso-8859-1"?>
<!-- Generator: Adobe Illustrator 19.0.0, SVG Export Plug-In . SVG Version: 6.00 Build 0)  -->
<svg version="1.1" id="Capa_1" xmlns="http://www.w3.org/2000/svg" xmlns:xlink="http://www.w3.org/1999/xlink" x="0px" y="0px"
	 viewBox="0 0 512 512" style="enable-background:new 0 0 512 512;" xml:space="preserve">
<polygon style="fill:#FF4C4C;" points="310.219,436.349 298.088,386.147 200.843,386.147 188.713,436.349 "/>
<polygon style="fill:#F33939;" points="298.088,386.148 252.775,386.148 264.906,436.349 310.219,436.349 "/>
<path style="fill:#FFB125;" d="M476.756,391.02H22.176C9.928,391.02,0,381.091,0,368.844V64.466C0,52.218,9.928,42.29,22.176,42.29
	h454.58c12.247,0,22.176,9.928,22.176,22.176v304.379C498.932,381.091,489.003,391.02,476.756,391.02z"/>
<path style="fill:#FF901D;" d="M476.756,42.29h-23.625v304.141c0,12.247-9.928,22.176-22.176,22.176H0v0.237
	c0,12.247,9.928,22.176,22.176,22.176h454.58c12.247,0,22.176-9.928,22.176-22.176V64.466
	C498.932,52.218,489.003,42.29,476.756,42.29z"/>
<path style="fill:#927266;" d="M353.731,466.091h-208.53c-2.757,0-4.991-2.235-4.991-4.991v-13.394
	c0-8.963,7.266-16.229,16.229-16.229h186.053c8.963,0,16.229,7.266,16.229,16.229V461.1
	C358.722,463.856,356.487,466.091,353.731,466.091z"/>
<path style="fill:#FFFCFD;" d="M466.774,316.932V84.006c0-5.279-4.279-9.558-9.558-9.558h-415.5c-5.279,0-9.558,4.279-9.558,9.558
	v232.926c0,5.848,4.74,10.588,10.588,10.588h413.44C462.034,327.52,466.774,322.78,466.774,316.932z"/>
<path style="fill:#E6E6E6;" d="M457.216,74.448h-46.125c5.279,0,9.558,4.279,9.558,9.558v232.926c0,5.848-4.74,10.588-10.588,10.588
	h46.125c5.847,0,10.588-4.74,10.588-10.588V84.006C466.774,78.727,462.495,74.448,457.216,74.448z"/>
<path style="fill:#FF4C4C;" d="M424.327,120.617l-32.801-2.481c-4.031-0.301-7.534,2.712-7.839,6.737
	c-0.305,4.024,2.711,7.534,6.737,7.839l15.501,1.173l-106.279,83.932L264.74,190.25c-2.657-2.097-6.405-2.097-9.06,0l-74.975,59.21
	l-40.602-32.064c-2.655-2.097-6.405-2.097-9.06,0L54.64,277.735c-3.168,2.502-3.708,7.097-1.206,10.265
	c1.443,1.826,3.581,2.779,5.74,2.779c1.586,0,3.183-0.514,4.525-1.573l71.874-56.762l40.602,32.064c2.655,2.097,6.405,2.097,9.06,0
	l74.975-59.21l34.906,27.566c2.657,2.097,6.405,2.097,9.06,0l111.596-88.131l-0.677,16.501c-0.165,4.033,2.971,7.436,7.004,7.602
	c0.102,0.004,0.203,0.006,0.304,0.006c3.899,0,7.136-3.079,7.298-7.01l1.378-33.628C431.24,124.27,428.255,120.914,424.327,120.617z
	"/>
<path style="fill:#736357;" d="M460.032,407.405l-57.61-57.61c-2.855-2.853-7.482-2.853-10.337,0c-2.854,2.855-2.854,7.482,0,10.337
	l57.61,57.61c1.427,1.427,3.298,2.14,5.168,2.14s3.741-0.714,5.168-2.14C462.886,414.887,462.886,410.26,460.032,407.405z"/>
<circle style="fill:#21D8DE;" cx="331.28" cy="288.99" r="103.66"/>
<circle style="fill:#FFFCFD;" cx="331.28" cy="288.99" r="86.1"/>
<path style="fill:#927266;" d="M509.139,457.482l-9.367,9.367c-3.814,3.814-9.998,3.814-13.812,0l-52.662-52.662
	c-3.814-3.814-3.814-9.998,0-13.812l9.367-9.367c3.814-3.814,9.998-3.814,13.812,0l52.662,52.662
	C512.954,447.484,512.954,453.668,509.139,457.482z"/>
<path style="fill:#21D8DE;" d="M457.216,74.448h-415.5c-5.279,0-9.558,4.279-9.558,9.558v19.681h434.616V84.006
	C466.774,78.727,462.495,74.448,457.216,74.448z"/>
<path style="fill:#0FB9C1;" d="M457.216,74.448h-46.125c5.279,0,9.558,4.279,9.558,9.558v19.681h46.125V84.006
	C466.774,78.727,462.495,74.448,457.216,74.448z"/>
<path style="fill:#736357;" d="M358.666,446.604c-0.569-8.447-7.583-15.127-16.174-15.127h-29.728l-0.093,34.614h41.059
	c2.426,0,4.445-1.733,4.894-4.027L358.666,446.604z"/>
<path style="fill:#E6E6E6;" d="M331.277,375.089c47.552,0,86.101-38.549,86.101-86.101c0-23.776-9.637-45.301-25.218-60.883
	L270.395,349.87C285.976,365.452,307.501,375.089,331.277,375.089z"/>
<path style="fill:#FF901D;" d="M328.762,342.291c-18.906-0.305-31.713-10.521-31.713-17.991c0-3.66,3.202-8.691,7.014-8.691
	c5.031,0,9.148,10.673,24.7,11.893v-35.83c-13.722-4.879-28.969-10.368-28.969-29.884c0-19.211,14.484-26.834,28.969-28.359v-4.421
	c0-1.83,1.83-3.507,4.422-3.507c2.287,0,4.574,1.677,4.574,3.507v4.117c10.368,0.305,25.005,3.507,25.005,10.978
	c0,2.897-2.135,8.691-6.709,8.691c-3.659,0-7.623-4.879-18.296-5.641v30.951c13.265,4.879,27.749,11.588,27.749,32.324
	c0,18.754-11.283,29.122-27.749,31.409v5.184c0,1.83-2.287,3.507-4.574,3.507c-2.592,0-4.422-1.677-4.422-3.507v-4.73H328.762z
	 M329.677,275.205v-27.749c-8.539,1.067-14.637,4.879-14.637,12.807C315.04,268.953,321.596,272.155,329.677,275.205z
	 M336.843,295.026v32.171c8.233-1.525,13.417-6.404,13.417-15.095C350.26,302.497,344.314,298.227,336.843,295.026z"/>
<g>
</g>
<g>
</g>
<g>
</g>
<g>
</g>
<g>
</g>
<g>
</g>
<g>
</g>
<g>
</g>
<g>
</g>
<g>
</g>
<g>
</g>
<g>
</g>
<g>
</g>
<g>
</g>
<g>
</g>
</svg>
