<?xml version="1.0" encoding="iso-8859-1"?>
<!-- Generator: Adobe Illustrator 19.0.0, SVG Export Plug-In . SVG Version: 6.00 Build 0)  -->
<svg version="1.1" id="Capa_1" xmlns="http://www.w3.org/2000/svg" xmlns:xlink="http://www.w3.org/1999/xlink" x="0px" y="0px"
	 viewBox="0 0 512 512" style="enable-background:new 0 0 512 512;" xml:space="preserve">
<g>
	<path style="fill:#927266;" d="M102.457,512H72.11c-4.878,0-8.986-3.647-9.564-8.491l-5.624-34.233h60.723l-5.624,34.233
		C111.443,508.353,107.335,512,102.457,512z"/>
	<path style="fill:#927266;" d="M449.454,503.509c-0.578,4.844-4.686,8.491-9.564,8.491h-30.347c-4.878,0-8.986-3.647-9.564-8.491
		l-5.624-34.233h60.723L449.454,503.509"/>
</g>
<g>
	<path style="fill:#736357;" d="M87.283,512h15.174c4.878,0,8.986-3.647,9.564-8.491l5.624-34.233H87.283V512z"/>
	<path style="fill:#736357;" d="M425.393,512h14.498c4.878,0,8.987-3.647,9.564-8.491l5.624-34.233h-29.686L425.393,512L425.393,512
		z"/>
</g>
<path style="fill:#2D5872;" d="M474.914,476.79H37.086c-10.759,0-19.481-8.722-19.481-19.481V19.481C17.605,8.722,26.327,0,37.086,0
	h437.829c10.759,0,19.481,8.722,19.481,19.481V457.31C494.395,468.068,485.673,476.79,474.914,476.79z"/>
<path style="fill:#1D4859;" d="M474.914,0h-27.708c0.098,0.791,0.164,1.591,0.164,2.409v437.829
	c0,10.759-8.722,19.481-19.481,19.481H17.769c1.189,9.62,9.375,17.072,19.316,17.072h437.829c10.759,0,19.48-8.722,19.48-19.481
	V19.481C494.395,8.722,485.673,0,474.914,0z"/>
<path style="fill:#FFB125;" d="M64.155,413.242V63.548c0-9.257,7.504-16.76,16.76-16.76h349.695c9.257,0,16.76,7.504,16.76,16.76
	v349.694c0,9.257-7.504,16.76-16.76,16.76H80.915C71.659,430.003,64.155,422.499,64.155,413.242z"/>
<path style="fill:#FF901D;" d="M430.609,46.787h-30.718c0.112,0.781,0.189,1.572,0.189,2.384v349.695
	c0,9.257-7.504,16.76-16.76,16.76H64.344c1.16,8.124,8.127,14.376,16.572,14.376h349.694c9.256,0,16.76-7.504,16.76-16.76V63.548
	C447.37,54.291,439.866,46.787,430.609,46.787z"/>
<g>
	<path style="fill:#927266;" d="M75.537,154.012H53.772c-3.127,0-5.661-2.535-5.661-5.661v-32.033c0-3.127,2.535-5.661,5.661-5.661
		h21.764c3.127,0,5.661,2.535,5.661,5.661v32.033C81.198,151.478,78.664,154.012,75.537,154.012z"/>
	<path style="fill:#927266;" d="M75.537,366.133H53.772c-3.127,0-5.661-2.535-5.661-5.661v-32.033c0-3.127,2.535-5.661,5.661-5.661
		h21.764c3.127,0,5.661,2.535,5.661,5.661v32.033C81.198,363.599,78.664,366.133,75.537,366.133z"/>
	<path style="fill:#927266;" d="M406.102,311.203L406.102,311.203c-6.488,0-11.747-5.259-11.747-11.747V177.334
		c0-6.488,5.259-11.747,11.747-11.747l0,0c6.488,0,11.747,5.259,11.747,11.747v122.122
		C417.849,305.944,412.59,311.203,406.102,311.203z"/>
</g>
<circle style="fill:#FFB125;" cx="255.999" cy="238.4" r="79.57"/>
<circle style="fill:#FF901D;" cx="255.999" cy="238.4" r="109.2"/>
<circle style="fill:#F4D451;" cx="255.999" cy="238.4" r="79.57"/>
<g>
	<path style="fill:#FF901D;" d="M255.999,158.827c-2.549,0-5.066,0.132-7.554,0.367v44.853c0,4.172,3.382,7.554,7.554,7.554
		c4.172,0,7.554-3.382,7.554-7.554v-44.853C261.066,158.959,258.549,158.827,255.999,158.827z"/>
	<path style="fill:#FF901D;" d="M255.999,265.19c-4.172,0-7.554,3.382-7.554,7.554v44.853c2.488,0.234,5.005,0.367,7.554,0.367
		c2.549,0,5.066-0.132,7.554-0.367v-44.853C263.553,268.571,260.172,265.19,255.999,265.19z"/>
	<path style="fill:#FF901D;" d="M335.568,238.395c0-2.549-0.132-5.066-0.367-7.554h-44.853c-4.172,0-7.554,3.382-7.554,7.554
		s3.382,7.554,7.554,7.554h44.853C335.436,243.461,335.568,240.944,335.568,238.395z"/>
	<path style="fill:#FF901D;" d="M221.65,230.841h-44.853c-0.234,2.488-0.367,5.005-0.367,7.554s0.132,5.066,0.367,7.554h44.853
		c4.172,0,7.554-3.382,7.554-7.554C229.204,234.222,225.822,230.841,221.65,230.841z"/>
	<path style="fill:#FF901D;" d="M306.668,177.043l-31.721,31.721c-2.95,2.951-2.95,7.733,0,10.684
		c1.475,1.474,3.409,2.212,5.342,2.212s3.866-0.738,5.342-2.212l31.721-31.721C314.135,183.838,310.557,180.259,306.668,177.043z"/>
	<path style="fill:#FF901D;" d="M226.368,257.342l-31.721,31.721c3.216,3.889,6.794,7.468,10.684,10.684l31.721-31.721
		c2.95-2.951,2.95-7.733,0-10.684C234.102,254.393,229.32,254.393,226.368,257.342z"/>
	<path style="fill:#FF901D;" d="M317.351,289.062l-31.721-31.721c-2.951-2.949-7.733-2.949-10.684,0
		c-2.95,2.951-2.95,7.733,0,10.684l31.721,31.721C310.557,296.531,314.135,292.952,317.351,289.062z"/>
	<path style="fill:#FF901D;" d="M194.648,187.727l31.721,31.721c1.475,1.474,3.409,2.212,5.342,2.212s3.866-0.738,5.342-2.212
		c2.95-2.951,2.95-7.733,0-10.684l-31.721-31.721C201.442,180.259,197.863,183.838,194.648,187.727z"/>
	<circle style="fill:#FF901D;" cx="256.04" cy="238.44" r="49.617"/>
</g>
<g>
</g>
<g>
</g>
<g>
</g>
<g>
</g>
<g>
</g>
<g>
</g>
<g>
</g>
<g>
</g>
<g>
</g>
<g>
</g>
<g>
</g>
<g>
</g>
<g>
</g>
<g>
</g>
<g>
</g>
</svg>
