<?xml version="1.0" encoding="iso-8859-1"?>
<!-- Generator: Adobe Illustrator 19.0.0, SVG Export Plug-In . SVG Version: 6.00 Build 0)  -->
<svg version="1.1" id="Capa_1" xmlns="http://www.w3.org/2000/svg" xmlns:xlink="http://www.w3.org/1999/xlink" x="0px" y="0px"
	 viewBox="0 0 512 512" style="enable-background:new 0 0 512 512;" xml:space="preserve">
<path style="fill:#736357;" d="M283.154,512h-54.308c-13.7,0-24.806-11.106-24.806-24.806v-68.337h103.92v68.337
	C307.96,500.894,296.854,512,283.154,512z"/>
<path style="fill:#66574D;" d="M261.141,418.856v68.337c0,13.7-11.106,24.806-24.806,24.806h46.819
	c13.7,0,24.806-11.106,24.806-24.806v-68.337H261.141z"/>
<path style="fill:#FFB125;" d="M255.051,98.095c-70.704,0.499-130.138,60.069-130.484,130.774
	c-0.15,30.618,10.172,58.817,27.59,81.229c24.169,31.099,37.543,69.133,39.386,108.365c0.128,2.724,2.382,4.861,5.11,4.861h118.695
	c2.73,0,4.978-2.141,5.11-4.868c1.926-39.737,16.29-77.828,40.409-109.692c16.675-22.03,26.568-49.477,26.568-79.237
	C387.435,156.621,328.076,97.579,255.051,98.095z"/>
<path style="fill:#DD7219;" d="M252.692,321.245C227.837,320.844,211,307.414,211,297.593c0-4.811,4.209-11.426,9.22-11.426
	c6.615,0,12.027,14.032,32.472,15.635v-47.105c-18.04-6.414-38.084-13.63-38.084-39.287c0-25.256,19.042-35.278,38.084-37.283
	v-5.813c0-2.406,2.406-4.61,5.813-4.61c3.007,0,6.013,2.205,6.013,4.61v5.412c13.63,0.401,32.873,4.61,32.873,14.432
	c0,3.808-2.806,11.425-8.82,11.425c-4.811,0-10.022-6.414-24.053-7.416v40.69c17.44,6.414,36.482,15.234,36.482,42.495
	c0,24.655-14.833,38.285-36.481,41.292v6.815c0,2.406-3.007,4.61-6.013,4.61c-3.408,0-5.813-2.205-5.813-4.61v-6.214H252.692z
	 M253.895,233.049v-36.481c-11.225,1.403-19.243,6.414-19.243,16.837C234.653,224.831,243.272,229.04,253.895,233.049z
	 M263.316,259.107v42.294c10.824-2.004,17.639-8.419,17.639-19.844C280.955,268.928,273.138,263.316,263.316,259.107z"/>
<path style="fill:#FF901D;" d="M255.051,98.095c-7.022,0.05-13.93,0.691-20.683,1.859c62.042,10.53,109.285,64.533,109.285,129.573
	c0,29.76-9.893,57.207-26.568,79.237c-24.119,31.864-32.548,49.183-34.475,88.92c-0.132,2.727-2.38,4.868-5.11,4.868h-87.354
	c0.674,5.272,1.145,10.58,1.396,15.911c0.128,2.725,2.382,4.861,5.11,4.861h118.695c2.73,0,4.978-2.141,5.11-4.868
	c1.926-39.737,16.29-77.828,40.41-109.692c16.675-22.03,26.568-49.477,26.568-79.237C387.435,156.62,328.076,97.579,255.051,98.095z
	"/>
<polygon style="fill:#998675;" points="204.04,457.041 204.04,457.041 307.96,457.041 307.96,442.204 204.04,442.204 
	204.04,442.204 "/>
<rect x="261.14" y="442.2" style="fill:#8C7969;" width="46.819" height="14.837"/>
<path style="fill:#998675;" d="M204.04,474.732L204.04,474.732v12.461c0,0.801,0.042,1.593,0.116,2.376h103.689
	c0.074-0.782,0.116-1.574,0.116-2.376v-12.461H204.04z"/>
<path style="fill:#8C7969;" d="M261.141,487.194c0,0.802-0.042,1.593-0.116,2.376h46.819c0.037-0.39,0.066-0.782,0.086-1.177
	c0.019-0.397,0.03-0.797,0.03-1.199v-12.461h-46.819V487.194z"/>
<g>
	<path style="fill:#FF901D;" d="M256,0c-4.097,0-7.418,3.321-7.418,7.418v39.01c0,4.098,3.321,7.418,7.418,7.418
		c4.098,0,7.418-3.321,7.418-7.418V7.418C263.418,3.321,260.098,0,256,0z"/>
	<path style="fill:#FF901D;" d="M491.049,235.049h-39.01c-4.098,0-7.418,3.321-7.418,7.418s3.321,7.418,7.418,7.418h39.01
		c4.098,0,7.418-3.321,7.418-7.418S495.147,235.049,491.049,235.049z"/>
	<path style="fill:#FF901D;" d="M59.961,235.049h-39.01c-4.097,0-7.418,3.321-7.418,7.418s3.321,7.418,7.418,7.418h39.01
		c4.097,0,7.418-3.321,7.418-7.418S64.058,235.049,59.961,235.049z"/>
	<path style="fill:#FF901D;" d="M399.866,375.842c-2.896-2.896-7.593-2.897-10.491,0.001c-2.897,2.897-2.897,7.593,0.001,10.491
		l27.585,27.584c1.448,1.448,3.347,2.172,5.245,2.172s3.797-0.724,5.246-2.173c2.897-2.897,2.897-7.593-0.001-10.491
		L399.866,375.842z"/>
	<path style="fill:#FF901D;" d="M95.04,71.017c-2.897-2.896-7.594-2.897-10.491,0.001c-2.897,2.897-2.897,7.593,0,10.491
		l27.585,27.584c1.448,1.448,3.347,2.172,5.246,2.172s3.797-0.724,5.246-2.173c2.897-2.897,2.897-7.593,0-10.491L95.04,71.017z"/>
	<path style="fill:#FF901D;" d="M416.96,71.017L389.375,98.6c-2.898,2.898-2.898,7.594-0.001,10.491
		c1.449,1.449,3.347,2.173,5.246,2.173c1.898,0,3.797-0.724,5.245-2.172l27.585-27.584c2.898-2.898,2.898-7.594,0.001-10.491
		C424.554,68.121,419.857,68.12,416.96,71.017z"/>
	<path style="fill:#FF901D;" d="M112.134,375.842l-27.585,27.584c-2.897,2.898-2.897,7.594,0,10.491
		c1.448,1.449,3.347,2.173,5.246,2.173c1.898,0,3.797-0.724,5.246-2.172l27.585-27.584c2.897-2.898,2.897-7.594,0-10.491
		C119.729,372.945,115.031,372.946,112.134,375.842z"/>
</g>
<g>
</g>
<g>
</g>
<g>
</g>
<g>
</g>
<g>
</g>
<g>
</g>
<g>
</g>
<g>
</g>
<g>
</g>
<g>
</g>
<g>
</g>
<g>
</g>
<g>
</g>
<g>
</g>
<g>
</g>
</svg>
