<?xml version="1.0" encoding="iso-8859-1"?>
<!-- Generator: Adobe Illustrator 19.0.0, SVG Export Plug-In . SVG Version: 6.00 Build 0)  -->
<svg version="1.1" id="Capa_1" xmlns="http://www.w3.org/2000/svg" xmlns:xlink="http://www.w3.org/1999/xlink" x="0px" y="0px"
	 viewBox="0 0 512 512" style="enable-background:new 0 0 512 512;" xml:space="preserve">
<path style="fill:#61AFF6;" d="M390.703,512H121.297c-12.851,0-23.269-10.418-23.269-23.269V23.269
	C98.028,10.418,108.446,0,121.297,0h269.406c12.851,0,23.269,10.418,23.269,23.269v465.462C413.972,501.582,403.554,512,390.703,512
	z"/>
<path style="fill:#55A2F0;" d="M390.703,0h-24.668c0.895,2.472,1.384,5.138,1.384,7.919V473.38
	c0,12.851-10.418,23.269-23.269,23.269H99.412c3.24,8.952,11.814,15.351,21.885,15.351h269.406
	c12.851,0,23.269-10.418,23.269-23.269V23.269C413.972,10.418,403.554,0,390.703,0z"/>
<path style="fill:#F2F2F2;" d="M373.267,431.197H138.733c-5.313,0-9.619-4.307-9.619-9.619V39.086c0-5.313,4.307-9.619,9.619-9.619
	h234.533c5.313,0,9.619,4.307,9.619,9.619v382.492C382.886,426.89,378.579,431.197,373.267,431.197z"/>
<path style="fill:#E6E6E6;" d="M373.267,29.467h-47.053c5.313,0,9.619,4.307,9.619,9.619v382.492c0,5.313-4.307,9.619-9.619,9.619
	h47.053c5.313,0,9.619-4.307,9.619-9.619V39.086C382.886,33.773,378.579,29.467,373.267,29.467z"/>
<circle style="fill:#FFFFFF;" cx="256" cy="471.91" r="20.02"/>
<path style="fill:#77DD00;" d="M298.186,143.446l-41.509-51.449c-0.348-0.431-1.005-0.431-1.354,0l-41.509,51.449
	c-0.459,0.569-0.054,1.416,0.677,1.416h21.306c0.48,0,0.87,0.389,0.87,0.87v89.61c0,0.48,0.389,0.87,0.87,0.87h36.927
	c0.48,0,0.87-0.389,0.87-0.87v-89.61c0-0.48,0.389-0.87,0.87-0.87h21.306C298.24,144.861,298.645,144.015,298.186,143.446z"/>
<g>
	<path style="fill:#21D8DE;" d="M373.267,29.467H138.733c-5.313,0-9.619,4.307-9.619,9.619v24.698h253.772V39.086
		C382.886,33.773,378.579,29.467,373.267,29.467z"/>
	<path style="fill:#21D8DE;" d="M343.098,373.299H172.987c-4.147,0-7.508-3.361-7.508-7.508s3.362-7.508,7.508-7.508h170.111
		c4.147,0,7.508,3.361,7.508,7.508S347.245,373.299,343.098,373.299z"/>
	<path style="fill:#21D8DE;" d="M343.098,402.665H172.987c-4.147,0-7.508-3.361-7.508-7.508s3.362-7.508,7.508-7.508h170.111
		c4.147,0,7.508,3.361,7.508,7.508S347.245,402.665,343.098,402.665z"/>
</g>
<path style="fill:#0FB9C1;" d="M373.267,29.467h-47.053c5.313,0,9.619,4.307,9.619,9.619v24.698h47.053V39.086
	C382.886,33.773,378.579,29.467,373.267,29.467z"/>
<path style="fill:#73CC00;" d="M274.464,236.211c0.48,0,0.87-0.389,0.87-0.87V145.73c0-0.48,0.389-0.869,0.87-0.869h21.306
	c0.731,0,1.136-0.847,0.677-1.416l-41.509-51.449c-0.174-0.216-0.425-0.324-0.677-0.324V236.21h18.463V236.211z"/>
<circle style="fill:#FFB125;" cx="256" cy="253.25" r="80.49"/>
<path style="fill:#FF901D;" d="M312.917,310.163c31.435-31.435,31.435-82.4,0-113.835L199.083,310.163
	C230.517,341.598,281.483,341.598,312.917,310.163z"/>
<path style="fill:#DD7219;" d="M253.938,297.742c-15.499-0.25-25.998-8.625-25.998-14.749c0-3,2.625-7.125,5.75-7.125
	c4.125,0,7.499,8.75,20.248,9.749v-29.372c-11.249-4-23.748-8.499-23.748-24.498c0-15.749,11.874-21.998,23.748-23.248v-3.625
	c0-1.5,1.5-2.875,3.625-2.875c1.875,0,3.75,1.375,3.75,2.875v3.375c8.499,0.25,20.498,2.875,20.498,8.999
	c0,2.375-1.75,7.124-5.5,7.124c-3,0-6.249-4-14.999-4.625v25.373c10.874,4,22.748,9.499,22.748,26.498
	c0,15.374-9.249,23.873-22.748,25.748v4.25c0,1.5-1.875,2.875-3.75,2.875c-2.125,0-3.625-1.375-3.625-2.875v-3.874H253.938z
	 M254.688,242.747v-22.748c-7,0.875-11.999,3.999-11.999,10.499C242.689,237.622,248.063,240.247,254.688,242.747z M260.562,258.995
	v26.373c6.75-1.25,10.999-5.25,10.999-12.374C271.561,265.12,266.687,261.62,260.562,258.995z"/>
<g>
</g>
<g>
</g>
<g>
</g>
<g>
</g>
<g>
</g>
<g>
</g>
<g>
</g>
<g>
</g>
<g>
</g>
<g>
</g>
<g>
</g>
<g>
</g>
<g>
</g>
<g>
</g>
<g>
</g>
</svg>
