<?xml version="1.0" encoding="iso-8859-1"?>
<!-- Generator: Adobe Illustrator 19.0.0, SVG Export Plug-In . SVG Version: 6.00 Build 0)  -->
<svg version="1.1" id="Capa_1" xmlns="http://www.w3.org/2000/svg" xmlns:xlink="http://www.w3.org/1999/xlink" x="0px" y="0px"
	 viewBox="0 0 512 512" style="enable-background:new 0 0 512 512;" xml:space="preserve">
<circle style="fill:#FFB125;" cx="256" cy="256" r="256"/>
<path style="fill:#FF901D;" d="M256,0c-7.998,0-15.905,0.386-23.716,1.103C362.548,13.072,464.568,122.613,464.568,256
	s-102.02,242.928-232.284,254.897C240.095,511.614,248.002,512,256,512c141.385,0,256-114.615,256-256S397.385,0,256,0z"/>
<g>
	<circle style="fill:#FEE570;" cx="256" cy="256" r="199.94"/>
	<path style="fill:#FEE570;" d="M256,41.771c-4.143,0-7.5-3.357-7.5-7.5V22.218c0-4.143,3.357-7.5,7.5-7.5s7.5,3.357,7.5,7.5v12.053
		C263.5,38.413,260.143,41.771,256,41.771z"/>
	<path style="fill:#FEE570;" d="M256,497.282c-4.143,0-7.5-3.357-7.5-7.5v-12.053c0-4.143,3.357-7.5,7.5-7.5s7.5,3.357,7.5,7.5
		v12.053C263.5,493.925,260.143,497.282,256,497.282z"/>
	<path style="fill:#FEE570;" d="M489.782,263.5h-12.053c-4.143,0-7.5-3.357-7.5-7.5s3.357-7.5,7.5-7.5h12.053
		c4.143,0,7.5,3.357,7.5,7.5S493.925,263.5,489.782,263.5z"/>
	<path style="fill:#FEE570;" d="M34.271,263.5H22.218c-4.143,0-7.5-3.357-7.5-7.5s3.357-7.5,7.5-7.5h12.053
		c4.143,0,7.5,3.357,7.5,7.5S38.413,263.5,34.271,263.5z"/>
	<path style="fill:#FEE570;" d="M412.787,106.713c-1.919,0-3.839-0.732-5.304-2.196c-2.929-2.93-2.929-7.678,0-10.607l8.521-8.521
		c2.93-2.928,7.678-2.928,10.607,0c2.929,2.93,2.929,7.678,0,10.607l-8.521,8.521C416.626,105.98,414.706,106.713,412.787,106.713z"
		/>
	<path style="fill:#FEE570;" d="M90.691,428.809c-1.919,0-3.839-0.732-5.304-2.196c-2.929-2.93-2.929-7.678,0-10.607l8.521-8.521
		c2.93-2.928,7.678-2.928,10.607,0c2.929,2.93,2.929,7.678,0,10.607l-8.521,8.521C94.53,428.076,92.61,428.809,90.691,428.809z"/>
	<path style="fill:#FEE570;" d="M421.309,428.809c-1.919,0-3.839-0.732-5.304-2.196l-8.521-8.521c-2.929-2.93-2.929-7.678,0-10.607
		c2.93-2.928,7.678-2.928,10.607,0l8.521,8.521c2.929,2.93,2.929,7.678,0,10.607C425.147,428.076,423.228,428.809,421.309,428.809z"
		/>
	<path style="fill:#FEE570;" d="M99.213,106.713c-1.919,0-3.839-0.732-5.304-2.196l-8.521-8.521c-2.929-2.93-2.929-7.678,0-10.607
		c2.93-2.928,7.678-2.928,10.607,0l8.521,8.521c2.929,2.93,2.929,7.678,0,10.607C103.052,105.98,101.132,106.713,99.213,106.713z"/>
	<path style="fill:#FEE570;" d="M345.075,60.452c-1.006,0-2.028-0.204-3.009-0.634c-3.794-1.664-5.52-6.088-3.855-9.881
		l4.842-11.037c1.664-3.794,6.088-5.518,9.881-3.855c3.794,1.664,5.52,6.088,3.855,9.881l-4.842,11.037
		C350.714,58.776,347.962,60.452,345.075,60.452z"/>
	<path style="fill:#FEE570;" d="M162.075,477.589c-1.006,0-2.028-0.204-3.009-0.634c-3.794-1.664-5.52-6.088-3.855-9.881
		l4.842-11.037c1.664-3.794,6.087-5.518,9.881-3.855c3.794,1.664,5.52,6.088,3.855,9.881l-4.842,11.037
		C167.714,475.913,164.962,477.589,162.075,477.589z"/>
	<path style="fill:#FEE570;" d="M470.083,357.423c-1.006,0-2.028-0.204-3.009-0.634l-11.037-4.842
		c-3.794-1.664-5.52-6.088-3.855-9.881c1.663-3.792,6.087-5.518,9.881-3.855l11.037,4.842c3.794,1.664,5.52,6.088,3.855,9.881
		C475.722,355.746,472.97,357.423,470.083,357.423z"/>
	<path style="fill:#FEE570;" d="M52.946,174.423c-1.006,0-2.028-0.204-3.009-0.634L38.9,168.947
		c-3.794-1.664-5.52-6.088-3.855-9.881c1.663-3.793,6.088-5.519,9.881-3.855l11.037,4.842c3.794,1.664,5.52,6.088,3.855,9.881
		C58.585,172.746,55.833,174.423,52.946,174.423z"/>
	<path style="fill:#FEE570;" d="M462.568,182.912c-3,0-5.833-1.813-6.989-4.776c-1.505-3.858,0.402-8.207,4.262-9.713l11.228-4.38
		c3.859-1.503,8.207,0.402,9.713,4.262c1.505,3.858-0.402,8.207-4.262,9.713l-11.228,4.38
		C464.396,182.746,463.475,182.912,462.568,182.912z"/>
	<path style="fill:#FEE570;" d="M38.208,348.472c-3,0-5.833-1.813-6.989-4.776c-1.505-3.858,0.402-8.207,4.262-9.713l11.228-4.38
		c3.859-1.503,8.208,0.402,9.713,4.262c1.505,3.858-0.402,8.207-4.262,9.713l-11.228,4.38
		C40.036,348.306,39.114,348.472,38.208,348.472z"/>
	<path style="fill:#FEE570;" d="M340.972,481.296c-3.001,0-5.833-1.813-6.989-4.776l-4.38-11.228
		c-1.505-3.858,0.402-8.207,4.262-9.713c3.86-1.503,8.208,0.402,9.713,4.262l4.38,11.228c1.505,3.858-0.402,8.207-4.262,9.713
		C342.8,481.13,341.878,481.296,340.972,481.296z"/>
	<path style="fill:#FEE570;" d="M175.412,56.936c-3,0-5.833-1.813-6.989-4.776l-4.38-11.228c-1.505-3.858,0.402-8.207,4.262-9.713
		c3.861-1.503,8.207,0.402,9.713,4.262l4.38,11.228c1.505,3.858-0.402,8.207-4.262,9.713
		C177.24,56.77,176.318,56.936,175.412,56.936z"/>
</g>
<path style="fill:#F4D451;" d="M397.376,397.376c78.08-78.08,78.079-204.671,0-282.751l-282.751,282.75
	C192.704,475.455,319.296,475.455,397.376,397.376z"/>
<path style="fill:#FF901D;" d="M180.371,389.657c-9.939,0-18.026-5.087-18.026-15.026c0-6.172,3.104-11.845,8.301-15.175
	c9.455-6.062,22.739-15.954,32.33-28.667c11.98-15.879,15.177-31.929,9.498-47.701c-1.363-3.789-4.995-6.335-9.035-6.335h-23.061
	c-9.738,0-17.66-7.922-17.66-17.66s7.922-17.66,17.66-17.66h12.583c2.874,0,5.573-1.27,7.405-3.484
	c1.825-2.206,2.565-5.083,2.03-7.893c-3.116-16.353-7.934-57.325,14.567-84.517c14.383-17.383,37.729-26.196,69.386-26.196
	c9.009,0,22.817,1.723,33.155,3.147c5.102,0.703,9.559,3.393,12.549,7.573c2.974,4.158,4.074,9.211,3.099,14.227
	c-1.679,8.639-9.309,14.909-18.142,14.909c0,0,0,0-0.001,0c-1.104,0-2.222-0.1-3.319-0.296c-8.059-1.441-19.736-3.172-26.819-3.172
	c-20.002,0-34.248,5.726-42.344,17.016c-9.667,13.481-9.797,34.398-0.388,62.171c1.321,3.897,4.976,6.515,9.094,6.515h45.607
	c10,0,18.135,8.135,18.135,18.135s-8.135,18.135-18.135,18.135h-35.069c-2.716,0-5.317,1.156-7.138,3.173
	c-1.813,2.009-2.695,4.702-2.42,7.39c0.881,8.594,0.983,32.139-7.777,46.531c-1.822,2.995-1.885,5.609-0.165,8.668
	c1.724,3.067,4.854,4.898,8.371,4.898h74.365c12.488,0,22.647,9.159,22.647,21.647s-10.159,19.647-22.647,19.647L180.371,389.657
	L180.371,389.657z"/>
<g>
</g>
<g>
</g>
<g>
</g>
<g>
</g>
<g>
</g>
<g>
</g>
<g>
</g>
<g>
</g>
<g>
</g>
<g>
</g>
<g>
</g>
<g>
</g>
<g>
</g>
<g>
</g>
<g>
</g>
</svg>
