<?xml version="1.0" encoding="iso-8859-1"?>
<!-- Generator: Adobe Illustrator 19.0.0, SVG Export Plug-In . SVG Version: 6.00 Build 0)  -->
<svg version="1.1" id="Capa_1" xmlns="http://www.w3.org/2000/svg" xmlns:xlink="http://www.w3.org/1999/xlink" x="0px" y="0px"
	 viewBox="0 0 512 512" style="enable-background:new 0 0 512 512;" xml:space="preserve">
<circle style="fill:#FFB125;" cx="256" cy="256" r="256"/>
<path style="fill:#FF901D;" d="M256,0c-7.998,0-15.905,0.386-23.716,1.103C362.548,13.072,464.568,122.613,464.568,256
	s-102.02,242.928-232.284,254.897C240.095,511.614,248.002,512,256,512c141.385,0,256-114.615,256-256S397.385,0,256,0z"/>
<g>
	<circle style="fill:#FEE570;" cx="256" cy="256" r="199.94"/>
	<path style="fill:#FEE570;" d="M256,41.771c-4.143,0-7.5-3.357-7.5-7.5V22.218c0-4.143,3.357-7.5,7.5-7.5s7.5,3.357,7.5,7.5v12.053
		C263.5,38.413,260.143,41.771,256,41.771z"/>
	<path style="fill:#FEE570;" d="M256,497.282c-4.143,0-7.5-3.357-7.5-7.5v-12.053c0-4.143,3.357-7.5,7.5-7.5s7.5,3.357,7.5,7.5
		v12.053C263.5,493.925,260.143,497.282,256,497.282z"/>
	<path style="fill:#FEE570;" d="M489.782,263.5h-12.053c-4.143,0-7.5-3.357-7.5-7.5s3.357-7.5,7.5-7.5h12.053
		c4.143,0,7.5,3.357,7.5,7.5S493.925,263.5,489.782,263.5z"/>
	<path style="fill:#FEE570;" d="M34.271,263.5H22.218c-4.143,0-7.5-3.357-7.5-7.5s3.357-7.5,7.5-7.5h12.053
		c4.143,0,7.5,3.357,7.5,7.5S38.413,263.5,34.271,263.5z"/>
	<path style="fill:#FEE570;" d="M412.787,106.713c-1.919,0-3.839-0.732-5.304-2.196c-2.929-2.93-2.929-7.678,0-10.607l8.521-8.521
		c2.93-2.928,7.678-2.928,10.607,0c2.929,2.93,2.929,7.678,0,10.607l-8.521,8.521C416.626,105.98,414.706,106.713,412.787,106.713z"
		/>
	<path style="fill:#FEE570;" d="M90.691,428.809c-1.919,0-3.839-0.732-5.304-2.196c-2.929-2.93-2.929-7.678,0-10.607l8.521-8.521
		c2.93-2.928,7.678-2.928,10.607,0c2.929,2.93,2.929,7.678,0,10.607l-8.521,8.521C94.53,428.076,92.61,428.809,90.691,428.809z"/>
	<path style="fill:#FEE570;" d="M421.309,428.809c-1.919,0-3.839-0.732-5.304-2.196l-8.521-8.521c-2.929-2.93-2.929-7.678,0-10.607
		c2.93-2.928,7.678-2.928,10.607,0l8.521,8.521c2.929,2.93,2.929,7.678,0,10.607C425.147,428.076,423.228,428.809,421.309,428.809z"
		/>
	<path style="fill:#FEE570;" d="M99.213,106.713c-1.919,0-3.839-0.732-5.304-2.196l-8.521-8.521c-2.929-2.93-2.929-7.678,0-10.607
		c2.93-2.928,7.678-2.928,10.607,0l8.521,8.521c2.929,2.93,2.929,7.678,0,10.607C103.052,105.98,101.132,106.713,99.213,106.713z"/>
	<path style="fill:#FEE570;" d="M345.075,60.452c-1.006,0-2.028-0.204-3.009-0.634c-3.794-1.664-5.52-6.088-3.855-9.881
		l4.842-11.037c1.663-3.794,6.087-5.518,9.881-3.855c3.794,1.664,5.52,6.088,3.855,9.881l-4.842,11.037
		C350.714,58.776,347.962,60.452,345.075,60.452z"/>
	<path style="fill:#FEE570;" d="M162.075,477.589c-1.006,0-2.028-0.204-3.009-0.634c-3.794-1.664-5.52-6.088-3.855-9.881
		l4.842-11.037c1.663-3.794,6.087-5.518,9.881-3.855c3.794,1.664,5.52,6.088,3.855,9.881l-4.842,11.037
		C167.714,475.913,164.962,477.589,162.075,477.589z"/>
	<path style="fill:#FEE570;" d="M470.083,357.423c-1.006,0-2.028-0.204-3.009-0.634l-11.037-4.842
		c-3.794-1.664-5.52-6.088-3.855-9.881c1.663-3.792,6.089-5.518,9.881-3.855l11.037,4.842c3.794,1.664,5.52,6.088,3.855,9.881
		C475.722,355.746,472.97,357.423,470.083,357.423z"/>
	<path style="fill:#FEE570;" d="M52.946,174.423c-1.006,0-2.028-0.204-3.009-0.634L38.9,168.947
		c-3.794-1.664-5.52-6.088-3.855-9.881c1.663-3.793,6.088-5.519,9.881-3.855l11.037,4.842c3.794,1.664,5.52,6.088,3.855,9.881
		C58.585,172.746,55.833,174.423,52.946,174.423z"/>
	<path style="fill:#FEE570;" d="M462.568,182.912c-3,0-5.833-1.813-6.989-4.776c-1.505-3.858,0.402-8.207,4.262-9.713l11.228-4.38
		c3.86-1.503,8.207,0.402,9.713,4.262c1.505,3.858-0.402,8.207-4.262,9.713l-11.228,4.38
		C464.396,182.746,463.475,182.912,462.568,182.912z"/>
	<path style="fill:#FEE570;" d="M38.208,348.472c-3,0-5.833-1.813-6.989-4.776c-1.505-3.858,0.402-8.207,4.262-9.713l11.228-4.38
		c3.859-1.503,8.207,0.402,9.713,4.262c1.505,3.858-0.402,8.207-4.262,9.713l-11.228,4.38
		C40.036,348.306,39.114,348.472,38.208,348.472z"/>
	<path style="fill:#FEE570;" d="M340.972,481.296c-3.001,0-5.833-1.813-6.989-4.776l-4.38-11.228
		c-1.505-3.858,0.402-8.207,4.262-9.713c3.859-1.503,8.208,0.402,9.713,4.262l4.38,11.228c1.505,3.858-0.402,8.207-4.262,9.713
		C342.8,481.13,341.878,481.296,340.972,481.296z"/>
	<path style="fill:#FEE570;" d="M175.412,56.936c-3,0-5.833-1.813-6.989-4.776l-4.38-11.228c-1.505-3.858,0.402-8.207,4.262-9.713
		c3.859-1.503,8.208,0.402,9.713,4.262l4.38,11.228c1.505,3.858-0.402,8.207-4.262,9.713
		C177.24,56.77,176.318,56.936,175.412,56.936z"/>
</g>
<path style="fill:#F4D451;" d="M397.376,397.376c78.08-78.08,78.079-204.671,0-282.751l-282.751,282.75
	C192.704,475.455,319.296,475.455,397.376,397.376z"/>
<path style="fill:#FF901D;" d="M236.648,387.148v-47.601c0-1.875-1.52-3.394-3.394-3.394h-52.028
	c-9.046,0-16.379-7.333-16.379-16.379l0,0c0-9.046,7.333-16.379,16.379-16.379h52.028c1.875,0,3.394-1.52,3.394-3.394v-15.833
	c0-1.875-1.52-3.394-3.394-3.394h-52.028c-9.046,0-16.378-7.333-16.378-16.378l0,0c0-9.046,7.333-16.378,16.378-16.378h52.028
	c1.875,0,3.394-1.52,3.394-3.394v-1.698c0-0.635-0.178-1.257-0.514-1.795l-59.092-94.798c-7.558-12.124,1.16-27.831,15.447-27.831
	l0,0c6.284,0,12.123,3.241,15.447,8.574l45.183,72.484c1.329,2.132,4.432,2.132,5.761,0l45.183-72.484
	c3.324-5.333,9.163-8.574,15.447-8.574l0,0c14.287,0,23.005,15.707,15.447,27.831l-59.092,94.798
	c-0.336,0.539-0.514,1.161-0.514,1.795v1.698c0,1.875,1.52,3.394,3.394,3.394h52.028c9.046,0,16.378,7.333,16.378,16.378l0,0
	c0,9.046-7.333,16.378-16.378,16.378h-52.028c-1.875,0-3.394,1.52-3.394,3.394v15.833c0,1.875,1.52,3.394,3.394,3.394h52.028
	c9.046,0,16.379,7.333,16.379,16.379l0,0c0,9.046-7.333,16.379-16.379,16.379h-52.028c-1.875,0-3.394,1.52-3.394,3.394v47.601
	c0,10.688-8.664,19.352-19.352,19.352l0,0C245.312,406.5,236.648,397.836,236.648,387.148z"/>
<g>
</g>
<g>
</g>
<g>
</g>
<g>
</g>
<g>
</g>
<g>
</g>
<g>
</g>
<g>
</g>
<g>
</g>
<g>
</g>
<g>
</g>
<g>
</g>
<g>
</g>
<g>
</g>
<g>
</g>
</svg>
