<?xml version="1.0" encoding="iso-8859-1"?>
<!-- Generator: Adobe Illustrator 19.0.0, SVG Export Plug-In . SVG Version: 6.00 Build 0)  -->
<svg version="1.1" id="Capa_1" xmlns="http://www.w3.org/2000/svg" xmlns:xlink="http://www.w3.org/1999/xlink" x="0px" y="0px"
	 viewBox="0 0 512 512" style="enable-background:new 0 0 512 512;" xml:space="preserve">
<circle style="fill:#FFB125;" cx="256" cy="256" r="256"/>
<path style="fill:#FF901D;" d="M256,0c-7.998,0-15.905,0.386-23.716,1.103C362.548,13.072,464.568,122.613,464.568,256
	s-102.02,242.928-232.284,254.897C240.095,511.614,248.002,512,256,512c141.385,0,256-114.615,256-256S397.385,0,256,0z"/>
<g>
	<circle style="fill:#FEE570;" cx="256" cy="256" r="199.94"/>
	<path style="fill:#FEE570;" d="M256,41.771c-4.142,0-7.5-3.357-7.5-7.5V22.218c0-4.143,3.358-7.5,7.5-7.5
		c4.143,0,7.5,3.357,7.5,7.5v12.053C263.5,38.413,260.143,41.771,256,41.771z"/>
	<path style="fill:#FEE570;" d="M256,497.282c-4.142,0-7.5-3.357-7.5-7.5v-12.053c0-4.143,3.358-7.5,7.5-7.5
		c4.143,0,7.5,3.357,7.5,7.5v12.053C263.5,493.925,260.143,497.282,256,497.282z"/>
	<path style="fill:#FEE570;" d="M489.782,263.5h-12.053c-4.143,0-7.5-3.357-7.5-7.5s3.357-7.5,7.5-7.5h12.053
		c4.143,0,7.5,3.357,7.5,7.5S493.925,263.5,489.782,263.5z"/>
	<path style="fill:#FEE570;" d="M34.27,263.5H22.218c-4.142,0-7.5-3.357-7.5-7.5s3.358-7.5,7.5-7.5H34.27c4.142,0,7.5,3.357,7.5,7.5
		S38.412,263.5,34.27,263.5z"/>
	<path style="fill:#FEE570;" d="M412.787,106.713c-1.919,0-3.839-0.732-5.304-2.196c-2.929-2.93-2.929-7.678,0-10.607l8.521-8.521
		c2.93-2.928,7.678-2.928,10.607,0c2.929,2.93,2.929,7.678,0,10.607l-8.521,8.521C416.626,105.98,414.706,106.713,412.787,106.713z"
		/>
	<path style="fill:#FEE570;" d="M90.691,428.809c-1.919,0-3.839-0.732-5.304-2.197c-2.929-2.929-2.928-7.678,0-10.606l8.522-8.521
		c2.93-2.928,7.677-2.929,10.607,0.001c2.929,2.929,2.928,7.678,0,10.606l-8.522,8.521C94.529,428.076,92.61,428.809,90.691,428.809
		z"/>
	<path style="fill:#FEE570;" d="M421.309,428.809c-1.919,0-3.839-0.732-5.304-2.196l-8.521-8.521c-2.929-2.93-2.929-7.678,0-10.607
		c2.93-2.928,7.678-2.928,10.607,0l8.521,8.521c2.929,2.93,2.929,7.678,0,10.607C425.147,428.076,423.228,428.809,421.309,428.809z"
		/>
	<path style="fill:#FEE570;" d="M99.213,106.713c-1.919,0-3.838-0.732-5.303-2.196l-8.522-8.521c-2.929-2.929-2.929-7.678,0-10.606
		c2.929-2.93,7.677-2.929,10.607-0.001l8.522,8.521c2.929,2.929,2.929,7.678,0,10.606
		C103.053,105.98,101.133,106.713,99.213,106.713z"/>
	<path style="fill:#FEE570;" d="M345.075,60.452c-1.006,0-2.028-0.204-3.009-0.634c-3.794-1.664-5.52-6.088-3.855-9.881
		l4.842-11.037c1.664-3.794,6.087-5.518,9.881-3.855c3.794,1.664,5.52,6.088,3.855,9.881l-4.842,11.037
		C350.714,58.776,347.962,60.452,345.075,60.452z"/>
	<path style="fill:#FEE570;" d="M162.076,477.589c-1.006,0-2.029-0.204-3.009-0.634c-3.793-1.664-5.519-6.088-3.855-9.881
		l4.842-11.037c1.664-3.794,6.088-5.518,9.881-3.855c3.793,1.664,5.519,6.088,3.855,9.881l-4.842,11.037
		C167.714,475.913,164.962,477.589,162.076,477.589z"/>
	<path style="fill:#FEE570;" d="M470.083,357.423c-1.006,0-2.028-0.204-3.009-0.634l-11.037-4.842
		c-3.794-1.664-5.52-6.088-3.855-9.881c1.663-3.792,6.088-5.518,9.881-3.855l11.037,4.842c3.794,1.664,5.52,6.088,3.855,9.881
		C475.722,355.746,472.97,357.423,470.083,357.423z"/>
	<path style="fill:#FEE570;" d="M52.946,174.423c-1.006,0-2.029-0.204-3.009-0.634L38.9,168.947
		c-3.793-1.664-5.519-6.088-3.855-9.881c1.664-3.794,6.089-5.518,9.881-3.855l11.037,4.842c3.793,1.664,5.519,6.088,3.855,9.881
		C58.584,172.747,55.833,174.423,52.946,174.423z"/>
	<path style="fill:#FEE570;" d="M462.568,182.912c-3,0-5.833-1.813-6.989-4.776c-1.505-3.858,0.402-8.207,4.262-9.713l11.228-4.38
		c3.86-1.503,8.208,0.402,9.713,4.262c1.505,3.858-0.402,8.207-4.262,9.713l-11.228,4.38
		C464.396,182.746,463.475,182.912,462.568,182.912z"/>
	<path style="fill:#FEE570;" d="M38.208,348.472c-3,0-5.833-1.813-6.989-4.776c-1.505-3.859,0.403-8.207,4.262-9.713l11.228-4.38
		c3.858-1.507,8.208,0.403,9.713,4.262c1.505,3.859-0.403,8.207-4.262,9.713l-11.228,4.38
		C40.037,348.307,39.114,348.472,38.208,348.472z"/>
	<path style="fill:#FEE570;" d="M340.972,481.296c-3.001,0-5.833-1.813-6.989-4.776l-4.38-11.228
		c-1.505-3.858,0.402-8.207,4.262-9.713c3.86-1.503,8.207,0.402,9.713,4.262l4.38,11.228c1.505,3.858-0.402,8.207-4.262,9.713
		C342.8,481.13,341.878,481.296,340.972,481.296z"/>
	<path style="fill:#FEE570;" d="M175.412,56.936c-3,0-5.833-1.813-6.989-4.776l-4.38-11.228c-1.506-3.858,0.402-8.207,4.261-9.713
		c3.859-1.508,8.208,0.402,9.713,4.262l4.38,11.228c1.505,3.858-0.402,8.207-4.261,9.713
		C177.241,56.77,176.318,56.936,175.412,56.936z"/>
</g>
<path style="fill:#F4D451;" d="M397.376,397.376c78.08-78.08,78.079-204.671,0-282.751l-282.751,282.75
	C192.704,475.455,319.296,475.455,397.376,397.376z"/>
<path style="fill:#FF901D;" d="M307.62,244.745c18.447-8.159,30.155-28.025,30.155-57.47c0-37.214-18.66-53.017-43.845-58.673h0.901
	v-16.551c0-9.141-7.41-16.551-16.551-16.551c-9.14,0-16.551,7.41-16.551,16.551v13.852h-18.095v-13.852
	c0-9.141-7.411-16.551-16.551-16.551c-9.141,0-16.551,7.41-16.551,16.551v13.852h-4.657h-4.328h-16.214
	c-9.662,0-17.494,7.833-17.494,17.494c0,9.507,7.588,17.226,17.036,17.471v189.394c-9.448,0.245-17.036,7.964-17.036,17.471
	c0,9.662,7.832,17.494,17.494,17.494h16.214h4.328h4.657v14.721c0,9.141,7.41,16.551,16.551,16.551
	c9.14,0,16.551-7.41,16.551-16.551v-14.721h18.095v14.721c0,9.141,7.41,16.551,16.551,16.551s16.551-7.41,16.551-16.551v-16.551
	h-1.672c29.832-5.949,50.999-27.14,50.999-72.669v-6.741C344.159,267.805,329.617,253.259,307.62,244.745z M222.123,159.248h41.507
	c22.349,0,36.539,10.289,36.539,34.057c0,24.123-11.707,36.541-35.828,36.541h-42.218V159.248z M306.557,307.892
	c0,30.509-14.901,43.99-40.088,43.99h-44.345v-92.237h44.345c25.187,0,40.088,11.352,40.088,42.571V307.892z"/>
<g>
</g>
<g>
</g>
<g>
</g>
<g>
</g>
<g>
</g>
<g>
</g>
<g>
</g>
<g>
</g>
<g>
</g>
<g>
</g>
<g>
</g>
<g>
</g>
<g>
</g>
<g>
</g>
<g>
</g>
</svg>
