<?xml version="1.0" encoding="iso-8859-1"?>
<!-- Generator: Adobe Illustrator 19.0.0, SVG Export Plug-In . SVG Version: 6.00 Build 0)  -->
<svg version="1.1" id="Capa_1" xmlns="http://www.w3.org/2000/svg" xmlns:xlink="http://www.w3.org/1999/xlink" x="0px" y="0px"
	 viewBox="0 0 512 512" style="enable-background:new 0 0 512 512;" xml:space="preserve">
<g>
	<path style="fill:#45748C;" d="M235.791,476.306c-0.004-0.099-0.007-0.198-0.015-0.296c-0.018-0.221-0.048-0.438-0.084-0.653
		c-0.01-0.057-0.015-0.115-0.026-0.172c-0.11-0.567-0.283-1.11-0.51-1.625c-0.024-0.054-0.051-0.105-0.076-0.158
		c-0.093-0.198-0.193-0.392-0.302-0.58c-0.042-0.072-0.085-0.143-0.13-0.213c-0.105-0.168-0.216-0.331-0.333-0.489
		c-0.052-0.07-0.103-0.141-0.157-0.21c-0.136-0.171-0.279-0.335-0.429-0.493c-0.042-0.045-0.08-0.092-0.123-0.135
		c-0.196-0.199-0.404-0.386-0.621-0.563c-0.01-0.008-0.019-0.018-0.029-0.026l-36.122-29.012c-3.287-2.641-8.091-2.114-10.729,1.172
		c-2.639,3.286-2.115,8.09,1.172,10.729l17.783,14.283c-47.035-4.659-89.451-23.543-121.214-54.362
		c-36.034-34.963-55.878-82.457-55.878-133.735c0-4.215-3.416-7.631-7.631-7.631s-7.631,3.417-7.631,7.631
		c0,55.442,21.49,106.827,60.513,144.689c34.413,33.389,80.275,53.781,131.005,58.663l-17.812,11.58
		c-3.534,2.298-4.535,7.025-2.237,10.558c1.463,2.248,3.908,3.471,6.404,3.471c1.426,0,2.87-0.399,4.154-1.235l37.604-24.457
		c0.012-0.008,0.022-0.017,0.034-0.025c0.237-0.157,0.466-0.324,0.684-0.505c0.032-0.026,0.06-0.056,0.091-0.083
		c0.178-0.153,0.35-0.314,0.513-0.483c0.063-0.065,0.121-0.132,0.181-0.199c0.128-0.142,0.251-0.288,0.369-0.44
		c0.056-0.072,0.111-0.145,0.164-0.219c0.118-0.165,0.229-0.336,0.335-0.51c0.037-0.062,0.077-0.122,0.112-0.185
		c0.277-0.489,0.502-1.01,0.666-1.559c0.012-0.042,0.021-0.085,0.033-0.127c0.063-0.225,0.117-0.453,0.159-0.686
		c0.016-0.085,0.027-0.171,0.039-0.258c0.028-0.192,0.05-0.385,0.064-0.581c0.004-0.053,0.014-0.104,0.017-0.156
		c0.003-0.052-0.003-0.103-0.001-0.155c0.002-0.076,0.011-0.15,0.011-0.227C235.807,476.527,235.795,476.417,235.791,476.306z"/>
	<path style="fill:#45748C;" d="M439.241,92.462c-34.413-33.39-80.275-53.782-131.005-58.663l17.81-11.584
		c3.534-2.298,4.535-7.025,2.237-10.558s-7.027-4.535-10.558-2.236L280.12,33.878c-0.012,0.008-0.022,0.017-0.034,0.025
		c-0.237,0.157-0.466,0.324-0.684,0.505c-0.032,0.026-0.06,0.056-0.091,0.083c-0.178,0.154-0.35,0.314-0.514,0.483
		c-0.062,0.064-0.12,0.132-0.18,0.198c-0.128,0.142-0.252,0.289-0.369,0.44c-0.056,0.072-0.111,0.145-0.164,0.219
		c-0.118,0.165-0.229,0.336-0.335,0.51c-0.037,0.062-0.077,0.122-0.112,0.185c-0.277,0.489-0.502,1.011-0.666,1.56
		c-0.012,0.041-0.021,0.083-0.032,0.124c-0.063,0.226-0.118,0.454-0.16,0.688c-0.016,0.085-0.027,0.171-0.039,0.257
		c-0.028,0.192-0.05,0.385-0.064,0.581c-0.004,0.053-0.014,0.104-0.017,0.156s0.003,0.103,0.001,0.155
		c-0.002,0.076-0.011,0.15-0.011,0.227c0,0.113,0.012,0.223,0.017,0.334c0.004,0.099,0.007,0.198,0.015,0.296
		c0.018,0.221,0.048,0.438,0.084,0.653c0.01,0.057,0.015,0.115,0.026,0.172c0.11,0.567,0.283,1.11,0.51,1.625
		c0.024,0.054,0.052,0.106,0.077,0.16c0.093,0.198,0.193,0.391,0.302,0.579c0.042,0.072,0.085,0.143,0.13,0.213
		c0.105,0.168,0.216,0.331,0.333,0.489c0.052,0.07,0.103,0.141,0.157,0.21c0.135,0.171,0.279,0.335,0.429,0.493
		c0.042,0.045,0.08,0.092,0.123,0.135c0.196,0.199,0.404,0.386,0.621,0.563c0.01,0.008,0.019,0.018,0.029,0.026l36.122,29.012
		c1.409,1.132,3.097,1.682,4.774,1.682c2.234,0,4.448-0.976,5.955-2.853c2.639-3.286,2.115-8.09-1.172-10.729l-17.784-14.283
		c47.035,4.659,89.452,23.543,121.215,54.362c36.034,34.963,55.878,82.457,55.878,133.735c0,4.215,3.416,7.631,7.631,7.631
		c4.215,0,7.631-3.417,7.631-7.631C499.754,181.709,478.264,130.324,439.241,92.462z"/>
</g>
<circle style="fill:#FFB125;" cx="135.3" cy="135.3" r="135.3"/>
<path style="fill:#FF901D;" d="M135.296,0c-8.404,0-16.627,0.773-24.607,2.239c62.972,11.572,110.688,66.739,110.688,133.057
	S173.66,256.78,110.688,268.352c7.98,1.466,16.203,2.239,24.607,2.239c74.722,0,135.296-60.574,135.296-135.296S210.018,0,135.296,0
	z"/>
<circle style="fill:#FEE570;" cx="135.3" cy="135.3" r="109.33"/>
<circle style="fill:#FFB125;" cx="376.7" cy="376.7" r="135.3"/>
<path style="fill:#FF901D;" d="M376.704,241.408c-8.249,0-16.324,0.741-24.166,2.155c63.191,11.394,111.13,66.668,111.13,133.141
	s-47.939,121.747-111.13,133.141c7.841,1.414,15.917,2.155,24.166,2.155C451.426,512,512,451.426,512,376.704
	S451.426,241.408,376.704,241.408z"/>
<circle style="fill:#FEE570;" cx="376.7" cy="376.7" r="109.33"/>
<path style="fill:#F4D451;" d="M212.607,212.608c42.698-42.698,42.698-111.925,0-154.623L57.984,212.608
	C100.682,255.306,169.909,255.306,212.607,212.608z"/>
<path style="fill:#FF901D;" d="M133.642,194.659c-21.336-0.344-35.789-11.873-35.789-20.304c0-4.13,3.613-9.808,7.915-9.808
	c5.678,0,10.324,12.045,27.874,13.421v-40.435c-15.485-5.506-32.692-11.7-32.692-33.724c0-21.68,16.346-30.283,32.692-32.004v-4.99
	c0-2.065,2.065-3.957,4.99-3.957c2.581,0,5.162,1.893,5.162,3.957v4.646c11.7,0.344,28.218,3.957,28.218,12.389
	c0,3.269-2.409,9.807-7.571,9.807c-4.129,0-8.603-5.506-20.647-6.366v34.929c14.969,5.506,31.316,13.077,31.316,36.478
	c0,21.164-12.733,32.864-31.316,35.445v5.85c0,2.065-2.581,3.957-5.162,3.957c-2.925,0-4.99-1.893-4.99-3.957V194.659z
	 M134.675,118.951V87.636c-9.636,1.204-16.518,5.506-16.518,14.453C118.156,111.896,125.555,115.51,134.675,118.951z
	 M142.761,141.319v36.305c9.292-1.721,15.141-7.227,15.141-17.034C157.903,149.75,151.193,144.933,142.761,141.319z"/>
<path style="fill:#F4D451;" d="M454.016,299.392L299.392,454.016c42.698,42.698,111.925,42.698,154.623,0
	S496.714,342.091,454.016,299.392z"/>
<path style="fill:#FF901D;" d="M400.009,369.715c7.821-3.459,12.784-11.881,12.784-24.364c0-15.777-7.911-22.476-18.588-24.874
	h0.382v-7.017c0-3.875-3.141-7.017-7.017-7.017c-3.875,0-7.017,3.141-7.017,7.017v5.872h-7.671v-5.872
	c0-3.875-3.142-7.017-7.017-7.017s-7.017,3.141-7.017,7.017v5.872h-1.975h-1.835h-6.874c-4.096,0-7.417,3.321-7.417,7.417
	c0,4.031,3.217,7.303,7.222,7.407v80.293c-4.006,0.104-7.222,3.376-7.222,7.407c0,4.096,3.32,7.417,7.417,7.417h6.874h1.835h1.975
	v6.241c0,3.875,3.141,7.017,7.017,7.017c3.875,0,7.017-3.141,7.017-7.017v-6.241h7.671v6.241c0,3.875,3.142,7.017,7.017,7.017
	s7.017-3.141,7.017-7.017v-7.017h-0.709c12.647-2.522,21.621-11.506,21.621-30.808v-2.858
	C415.5,379.491,409.335,373.324,400.009,369.715z M363.763,333.468h17.597c9.475,0,15.49,4.362,15.49,14.438
	c0,10.227-4.963,15.491-15.189,15.491h-17.898L363.763,333.468L363.763,333.468z M399.558,396.485
	c0,12.934-6.317,18.649-16.995,18.649h-18.8v-39.103h18.8c10.678,0,16.995,4.813,16.995,18.048V396.485z"/>
<g>
</g>
<g>
</g>
<g>
</g>
<g>
</g>
<g>
</g>
<g>
</g>
<g>
</g>
<g>
</g>
<g>
</g>
<g>
</g>
<g>
</g>
<g>
</g>
<g>
</g>
<g>
</g>
<g>
</g>
</svg>
