<?xml version="1.0" encoding="iso-8859-1"?>
<!-- Generator: Adobe Illustrator 19.0.0, SVG Export Plug-In . SVG Version: 6.00 Build 0)  -->
<svg version="1.1" id="Capa_1" xmlns="http://www.w3.org/2000/svg" xmlns:xlink="http://www.w3.org/1999/xlink" x="0px" y="0px"
	 viewBox="0 0 512.001 512.001" style="enable-background:new 0 0 512.001 512.001;" xml:space="preserve">
<path style="fill:#775146;" d="M401.585,214.773c-2.642-0.054-6.729-0.063-11.8,0.163L263.55,321.54V214.694
	c0-4.144-3.359-7.504-7.504-7.504c-4.145,0-7.504,3.36-7.504,7.504V321.54L122.299,214.928c-5.109-0.25-9.226-0.258-11.883-0.213
	c0.401,2.626,1.098,6.685,2.199,11.679l135.927,114.79v41.004c0,4.144,3.359,7.504,7.504,7.504c4.145,0,7.504-3.36,7.504-7.504
	v-41.004l135.774-114.66C400.453,221.497,401.172,217.411,401.585,214.773z"/>
<path style="fill:#2D5872;" d="M325.253,512H186.84c-2.873,0-5.357-2.002-5.968-4.809l-26.225-120.454h202.798l-26.225,120.454
	C330.609,509.998,328.125,512,325.253,512z"/>
<path style="fill:#1D4859;" d="M307.414,386.737l-23.719,108.948c-0.611,2.807-3.095,4.809-5.968,4.809h-98.313l1.458,6.698
	c0.611,2.807,3.096,4.809,5.968,4.809h138.413c2.873,0,5.357-2.002,5.968-4.809l26.225-120.454L307.414,386.737L307.414,386.737z"/>
<path style="fill:#45748C;" d="M383.382,354.8h-254.67c-2.689,0-4.868,2.18-4.868,4.868v26.202c0,2.689,2.18,4.868,4.868,4.868
	h254.67c2.689,0,4.868-2.18,4.868-4.868v-26.202C388.25,356.98,386.07,354.8,383.382,354.8z"/>
<path style="fill:#3C6A7C;" d="M383.382,374.23h-254.67c-2.689,0-4.868-2.18-4.868-4.868v16.509c0,2.689,2.18,4.868,4.868,4.868
	h254.67c2.689,0,4.868-2.18,4.868-4.868v-16.509C388.25,372.051,386.07,374.23,383.382,374.23z"/>
<circle style="fill:#FFB125;" cx="256.05" cy="111.39" r="111.39"/>
<path style="fill:#FF901D;" d="M256.047,0c-8.156,0-16.105,0.885-23.763,2.549c50.102,10.888,87.63,55.48,87.63,108.844
	s-37.528,97.956-87.63,108.844c7.658,1.664,15.606,2.549,23.763,2.549c61.521,0,111.393-49.872,111.393-111.393S317.568,0,256.047,0
	z"/>
<circle style="fill:#FEE570;" cx="256.05" cy="111.39" r="90.15"/>
<path style="fill:#77DD00;" d="M110.417,214.715c19.13-0.322,113.667,1.97,113.006,78.813l0,0
	c-0.588,4.523-0.84,10.001-3.122,13.983c-3.543,2.916-8.902,4.082-13.263,5.419l0,0C131.39,326.448,113.302,233.629,110.417,214.715
	z"/>
<path style="fill:#73CC00;" d="M110.417,214.715l109.884,92.796c-3.543,2.916-8.902,4.082-13.263,5.419l0,0
	C131.39,326.448,113.302,233.629,110.417,214.715z"/>
<path style="fill:#B6FA4D;" d="M220.299,307.511c0.597-1.042,1.05-2.189,1.411-3.391l-25.256-21.329l7.097-39.627
	c-1.959-1.886-4.019-3.651-6.167-5.298l-7.111,39.705l-23.171-19.568l5.964-33.301c-2.223-0.839-4.46-1.612-6.7-2.318l-5.445,30.4
	l-45.078-38.068c-2.174-0.034-4.013-0.026-5.429-0.002c0.214,1.4,0.513,3.215,0.911,5.352l45.077,38.068l-29.059,10.457
	c1.072,2.091,2.208,4.167,3.407,6.218l31.832-11.455l23.17,19.567L147.8,296.579c1.983,1.842,4.068,3.578,6.255,5.193l37.878-13.632
	l25.256,21.329C218.318,308.913,219.372,308.274,220.299,307.511z"/>
<path style="fill:#77DD00;" d="M401.585,214.773c-2.956,18.903-21.389,111.654-96.986,97.855l0,0
	c-4.356-1.353-9.71-2.539-13.242-5.468c-2.267-3.99-2.498-9.469-3.07-13.994l0,0C287.911,216.32,382.456,214.38,401.585,214.773z"/>
<path style="fill:#73CC00;" d="M401.585,214.773c-2.956,18.903-21.389,111.654-96.986,97.855l0,0
	c-4.356-1.353-9.71-2.539-13.242-5.468L401.585,214.773z"/>
<path style="fill:#B6FA4D;" d="M291.357,307.159c0.924,0.766,1.977,1.409,3.1,1.971l25.335-21.234l37.828,13.772
	c2.193-1.607,4.285-3.335,6.275-5.169L325.992,282.7l23.244-19.481l31.79,11.574c1.207-2.046,2.351-4.118,3.43-6.205l-29.02-10.566
	l45.219-37.9c0.405-2.136,0.712-3.949,0.931-5.349c-1.416-0.029-3.255-0.044-5.429-0.018l-45.219,37.899l-5.331-30.419
	c-2.243,0.698-4.483,1.462-6.709,2.293l5.84,33.323l-23.243,19.481l-6.963-39.73c-2.154,1.638-4.221,3.396-6.187,5.275l6.95,39.652
	l-25.335,21.234C290.315,304.967,290.763,306.115,291.357,307.159z"/>
<path style="fill:#F4D451;" d="M319.792,175.138c35.205-35.205,35.205-92.284,0-127.49l-127.49,127.49
	C227.507,210.343,284.586,210.343,319.792,175.138z"/>
<path style="fill:#FF901D;" d="M252.424,162.485c-17.136-0.277-28.745-9.536-28.745-16.307c0-3.317,2.902-7.877,6.357-7.877
	c4.56,0,8.292,9.674,22.388,10.779v-32.476c-12.438-4.422-26.257-9.397-26.257-27.087c0-17.413,13.128-24.323,26.257-25.705v-4.008
	c0-1.659,1.658-3.179,4.008-3.179c2.073,0,4.146,1.52,4.146,3.179v3.731c9.397,0.276,22.664,3.179,22.664,9.95
	c0,2.626-1.935,7.877-6.081,7.877c-3.317,0-6.91-4.422-16.584-5.113v28.054c12.023,4.422,25.152,10.503,25.152,29.298
	c0,16.998-10.227,26.396-25.152,28.469v4.699c0,1.659-2.073,3.179-4.146,3.179c-2.349,0-4.008-1.52-4.008-3.179v-4.284H252.424z
	 M253.253,101.678V76.527c-7.739,0.967-13.267,4.422-13.267,11.608C239.986,96.012,245.928,98.915,253.253,101.678z
	 M259.748,119.644v29.16c7.463-1.382,12.161-5.804,12.161-13.682C271.909,126.416,266.52,122.546,259.748,119.644z"/>
<g>
</g>
<g>
</g>
<g>
</g>
<g>
</g>
<g>
</g>
<g>
</g>
<g>
</g>
<g>
</g>
<g>
</g>
<g>
</g>
<g>
</g>
<g>
</g>
<g>
</g>
<g>
</g>
<g>
</g>
</svg>
