<?xml version="1.0" encoding="iso-8859-1"?>
<!-- Generator: Adobe Illustrator 19.0.0, SVG Export Plug-In . SVG Version: 6.00 Build 0)  -->
<svg version="1.1" id="Capa_1" xmlns="http://www.w3.org/2000/svg" xmlns:xlink="http://www.w3.org/1999/xlink" x="0px" y="0px"
	 viewBox="0 0 512 512" style="enable-background:new 0 0 512 512;" xml:space="preserve">
<path style="fill:#775146;" d="M324.846,49.006H187.154c-18.736,0-33.924,15.188-33.924,33.924v60.837h28.028V82.93
	c0-3.256,2.64-5.896,5.896-5.896h137.691c3.256,0,5.896,2.64,5.896,5.896v60.838h28.028V82.93
	C358.77,64.194,343.582,49.006,324.846,49.006z"/>
<path style="fill:#927266;" d="M306.107,85.311H205.893c-2.935,0-5.314-2.379-5.314-5.314V45.999c0-2.935,2.379-5.314,5.314-5.314
	h100.215c2.935,0,5.314,2.379,5.314,5.314v33.998C311.421,82.932,309.042,85.311,306.107,85.311z"/>
<path style="fill:#82635A;" d="M306.107,62.998H205.893c-2.935,0-5.314-2.379-5.314-5.314v22.313c0,2.935,2.379,5.314,5.314,5.314
	h100.215c2.935,0,5.314-2.379,5.314-5.314V57.685C311.421,60.619,309.042,62.998,306.107,62.998z"/>
<path style="fill:#927266;" d="M492.834,471.315H19.166C8.581,471.315,0,462.734,0,452.149v-309.19
	c0-10.585,8.581-19.166,19.166-19.166h473.668c10.585,0,19.166,8.581,19.166,19.166v309.19
	C512,462.734,503.419,471.315,492.834,471.315z"/>
<path style="fill:#82635A;" d="M492.834,123.793h-27.889c0,0.049,0.007,0.097,0.007,0.147v309.19
	c0,10.585-8.581,19.166-19.166,19.166H0.007c0.08,10.517,8.623,19.019,19.158,19.019h473.668c10.585,0,19.166-8.581,19.166-19.166
	v-309.19C512,132.373,503.419,123.793,492.834,123.793z"/>
<path style="fill:#998675;" d="M492.834,123.793H19.166C8.581,123.793,0,132.373,0,142.958v95.401
	c0,36.022,29.201,65.223,65.223,65.223h381.553c36.022,0,65.223-29.202,65.223-65.223v-95.401
	C512,132.373,503.419,123.793,492.834,123.793z"/>
<path style="fill:#897666;" d="M511.138,137.259c-0.64-2.057-1.634-3.952-2.884-5.648c-0.573-0.778-1.187-1.524-1.868-2.205
	c-0.682-0.682-1.428-1.295-2.205-1.868c-1.695-1.25-3.591-2.244-5.648-2.884c-1.8-0.56-3.715-0.862-5.699-0.862h-27.889
	c0,0.049,0.007,0.097,0.007,0.147V264.28c0,9.982-8.005,18.252-17.987,18.281c-0.063,0-0.126,0-0.189,0H65.223
	C29.201,282.562,0,253.36,0,217.338v21.021c0,36.022,29.201,65.223,65.223,65.223h381.553c6.311,0,12.404-0.914,18.176-2.586l0,0
	l0,0c0.846-0.245,1.684-0.507,2.515-0.785c0.008-0.003,0.016-0.006,0.024-0.008c4.141-1.387,8.095-3.176,11.819-5.324
	c0.044-0.025,0.087-0.05,0.131-0.075c0.717-0.416,1.425-0.844,2.124-1.285c0.038-0.024,0.075-0.048,0.112-0.072
	c2.821-1.791,5.493-3.791,7.997-5.98c0.093-0.082,0.188-0.161,0.281-0.243c0.537-0.475,1.064-0.96,1.585-1.453
	c0.158-0.149,0.314-0.298,0.47-0.448c0.497-0.479,0.988-0.963,1.469-1.457c0.065-0.067,0.129-0.134,0.193-0.201
	c1.599-1.685,3.147-3.42,4.566-5.26c0.16-0.208,0.327-0.41,0.485-0.618c0.354-0.466,0.696-0.941,1.037-1.416
	c0.219-0.305,0.439-0.61,0.653-0.918c0.312-0.45,0.617-0.905,0.917-1.363c0.231-0.351,0.457-0.706,0.681-1.062
	c0.278-0.442,0.555-0.885,0.823-1.334c0.24-0.402,0.469-0.811,0.701-1.219c0.238-0.42,0.481-0.836,0.71-1.261
	c0.425-0.79,0.835-1.589,1.228-2.398c0.175-0.36,0.336-0.727,0.504-1.091c0.242-0.523,0.484-1.046,0.713-1.577
	c0.169-0.393,0.329-0.79,0.491-1.187c0.212-0.519,0.419-1.04,0.617-1.565c0.15-0.396,0.296-0.793,0.438-1.193
	c0.198-0.556,0.385-1.117,0.568-1.68c0.121-0.372,0.244-0.741,0.359-1.116c0.215-0.704,0.413-1.415,0.605-2.129
	c0.064-0.239,0.136-0.474,0.198-0.715c0.242-0.947,0.461-1.903,0.662-2.867c0.062-0.298,0.113-0.6,0.171-0.9
	c0.133-0.689,0.26-1.38,0.371-2.076c0.058-0.366,0.11-0.733,0.162-1.101c0.092-0.65,0.176-1.303,0.249-1.96
	c0.042-0.373,0.082-0.746,0.118-1.121c0.065-0.694,0.116-1.393,0.159-2.094c0.02-0.329,0.046-0.656,0.062-0.986
	c0.048-1.027,0.078-2.059,0.078-3.098v-21.021v-74.38C512,140.974,511.698,139.059,511.138,137.259z"/>
<path style="fill:#FFB125;" d="M128.705,370.97L128.705,370.97c-11.886,0-21.522-9.636-21.522-21.522V233.783
	c0-2.34,1.897-4.236,4.236-4.236h34.571c2.34,0,4.236,1.897,4.236,4.236v115.665C150.227,361.334,140.591,370.97,128.705,370.97z"/>
<path style="fill:#FF901D;" d="M145.991,229.547h-18.519c2.34,0,4.236,1.897,4.236,4.236v115.665
	c0,8.566-5.017,15.941-12.262,19.405c2.808,1.342,5.939,2.116,9.259,2.116l0,0c11.886,0,21.522-9.636,21.522-21.522V233.782
	C150.227,231.443,148.33,229.547,145.991,229.547z"/>
<path style="fill:#FFB125;" d="M383.295,370.97L383.295,370.97c-11.886,0-21.522-9.636-21.522-21.522V233.783
	c0-2.34,1.897-4.236,4.236-4.236h34.571c2.34,0,4.236,1.897,4.236,4.236v115.665C404.816,361.334,395.181,370.97,383.295,370.97z"/>
<path style="fill:#FF901D;" d="M400.58,229.547h-18.519c2.34,0,4.236,1.897,4.236,4.236v115.665c0,8.566-5.017,15.941-12.262,19.405
	c2.808,1.342,5.939,2.116,9.259,2.116l0,0c11.886,0,21.522-9.636,21.522-21.522V233.782
	C404.816,231.443,402.92,229.547,400.58,229.547z"/>
<g>
	<path style="fill:#FEE570;" d="M161.944,322.614H95.466c-3.203,0-5.8-2.597-5.8-5.8v-33.111c0-3.203,2.597-5.8,5.8-5.8h66.478
		c3.203,0,5.8,2.597,5.8,5.8v33.111C167.745,320.017,165.148,322.614,161.944,322.614z"/>
	<path style="fill:#FEE570;" d="M416.534,322.614h-66.478c-3.203,0-5.8-2.597-5.8-5.8v-33.111c0-3.203,2.597-5.8,5.8-5.8h66.478
		c3.203,0,5.8,2.597,5.8,5.8v33.111C422.334,320.017,419.737,322.614,416.534,322.614z"/>
</g>
<g>
	<path style="fill:#FFB125;" d="M161.944,277.903h-33.239v44.712h33.239c3.203,0,5.8-2.597,5.8-5.8v-33.112
		C167.745,280.499,165.148,277.903,161.944,277.903z"/>
	<path style="fill:#FFB125;" d="M416.534,277.903h-33.239v44.712h33.239c3.203,0,5.8-2.597,5.8-5.8v-33.112
		C422.334,280.499,419.737,277.903,416.534,277.903z"/>
</g>
<g>
</g>
<g>
</g>
<g>
</g>
<g>
</g>
<g>
</g>
<g>
</g>
<g>
</g>
<g>
</g>
<g>
</g>
<g>
</g>
<g>
</g>
<g>
</g>
<g>
</g>
<g>
</g>
<g>
</g>
</svg>
