<?xml version="1.0" encoding="iso-8859-1"?>
<!-- Generator: Adobe Illustrator 19.0.0, SVG Export Plug-In . SVG Version: 6.00 Build 0)  -->
<svg version="1.1" id="Capa_1" xmlns="http://www.w3.org/2000/svg" xmlns:xlink="http://www.w3.org/1999/xlink" x="0px" y="0px"
	 viewBox="0 0 512 512" style="enable-background:new 0 0 512 512;" xml:space="preserve">
<g>
	<path style="fill:#2D5872;" d="M263.559,43.362h-59.102c-28.234,0-51.123,22.889-51.123,51.123v35.498h25.62V94.485
		c0-14.062,11.44-25.502,25.502-25.502h59.101c14.062,0,25.502,11.44,25.502,25.502v35.499h25.621V94.485
		C314.681,66.251,291.793,43.362,263.559,43.362z"/>
	<path style="fill:#2D5872;" d="M450.496,433.967H17.519C7.844,433.967,0,426.123,0,416.447V133.819
		c0-9.676,7.844-17.519,17.519-17.519h432.977c9.676,0,17.519,7.844,17.519,17.519v282.629
		C468.015,426.123,460.172,433.967,450.496,433.967z"/>
</g>
<path style="fill:#1D4859;" d="M450.496,116.299h-48.091c9.676,0,17.519,7.844,17.519,17.519v282.629
	c0,9.676-7.844,17.519-17.519,17.519h48.091c9.676,0,17.519-7.844,17.519-17.519V133.819
	C468.015,124.143,460.172,116.299,450.496,116.299z"/>
<circle style="fill:#77DD00;" cx="234.01" cy="275.13" r="92.25"/>
<path style="fill:#45748C;" d="M450.496,116.299H17.519C7.844,116.299,0,124.143,0,133.819v19.161h468.015v-19.161
	C468.015,124.143,460.172,116.299,450.496,116.299z"/>
<path style="fill:#3C6A7C;" d="M465.023,124.023c-3.148-4.66-8.48-7.724-14.527-7.724h-48.091c9.676,0,17.519,7.844,17.519,17.519
	v19.161h48.091v-19.161C468.015,130.19,466.912,126.82,465.023,124.023z"/>
<path style="fill:#45748C;" d="M450.496,433.967H17.519C7.844,433.967,0,426.123,0,416.447v-19.161h468.015v19.161
	C468.015,426.123,460.172,433.967,450.496,433.967z"/>
<circle style="fill:#FF4C4C;" cx="426.12" cy="382.76" r="85.87"/>
<path style="fill:#F33939;" d="M486.848,443.485c33.536-33.536,33.536-87.91,0-121.446L365.401,443.485
	C398.938,477.022,453.311,477.022,486.848,443.485z"/>
<path style="fill:#FEE570;" d="M471.278,370.069h-11.196v-13.522c0-18.724-15.233-33.957-33.957-33.957
	s-33.957,15.233-33.957,33.957v13.522h-11.196c-2.029,0-3.673,1.644-3.673,3.673v56.292c0,2.029,1.644,3.673,3.673,3.673h90.306
	c2.029,0,3.673-1.645,3.673-3.673v-56.292C474.951,371.714,473.306,370.069,471.278,370.069z M431.805,403.635v12.39
	c0,2.664-2.159,4.823-4.823,4.823h-2.8c-2.664,0-4.823-2.159-4.823-4.823v-12.39c-2.589-1.912-4.276-4.976-4.276-8.442
	c0-5.798,4.7-10.499,10.499-10.499c5.798,0,10.499,4.7,10.499,10.499C436.081,398.659,434.394,401.723,431.805,403.635z
	 M445.934,370.069h-39.62v-13.522c0-10.923,8.887-19.81,19.81-19.81s19.81,8.887,19.81,19.81V370.069z"/>
<path style="fill:#73CC00;" d="M299.241,340.366c36.027-36.027,36.027-94.439,0-130.466L168.775,340.366
	C204.802,376.393,263.214,376.393,299.241,340.366z"/>
<path style="fill:#2D5872;" d="M231.567,326.475c-18.34-0.296-30.764-10.206-30.764-17.453c0-3.55,3.106-8.431,6.804-8.431
	c4.881,0,8.874,10.354,23.96,11.536V277.37c-13.311-4.733-28.102-10.058-28.102-28.989c0-18.636,14.051-26.031,28.102-27.51v-4.289
	c0-1.775,1.775-3.402,4.289-3.402c2.218,0,4.437,1.627,4.437,3.402v3.993c10.058,0.296,24.256,3.402,24.256,10.649
	c0,2.81-2.071,8.43-6.508,8.43c-3.55,0-7.395-4.733-17.748-5.472v30.024c12.868,4.733,26.919,11.241,26.919,31.356
	c0,18.192-10.945,28.25-26.919,30.468v5.029c0,1.775-2.218,3.402-4.437,3.402c-2.514,0-4.289-1.627-4.289-3.402V326.475z
	 M232.455,261.397v-26.918c-8.283,1.035-14.199,4.733-14.199,12.424C218.256,255.333,224.616,258.439,232.455,261.397z
	 M239.406,280.625v31.208c7.987-1.479,13.015-6.212,13.015-14.643C252.422,287.872,246.654,283.731,239.406,280.625z"/>
<g>
</g>
<g>
</g>
<g>
</g>
<g>
</g>
<g>
</g>
<g>
</g>
<g>
</g>
<g>
</g>
<g>
</g>
<g>
</g>
<g>
</g>
<g>
</g>
<g>
</g>
<g>
</g>
<g>
</g>
</svg>
