<?xml version="1.0" encoding="iso-8859-1"?>
<!-- Generator: Adobe Illustrator 19.0.0, SVG Export Plug-In . SVG Version: 6.00 Build 0)  -->
<svg version="1.1" id="Capa_1" xmlns="http://www.w3.org/2000/svg" xmlns:xlink="http://www.w3.org/1999/xlink" x="0px" y="0px"
	 viewBox="0 0 512 512" style="enable-background:new 0 0 512 512;" xml:space="preserve">
<g>
	<path style="fill:#FF901D;" d="M255.466,11.02c-4.347,0-7.871,3.524-7.871,7.871v41.743c0,4.347,3.524,7.871,7.871,7.871
		s7.871-3.524,7.871-7.871V18.891C263.337,14.544,259.813,11.02,255.466,11.02z"/>
	<path style="fill:#FF901D;" d="M495.503,251.057H453.76c-4.347,0-7.871,3.524-7.871,7.871c0,4.347,3.524,7.871,7.871,7.871h41.743
		c4.347,0,7.871-3.524,7.871-7.871C503.374,254.581,499.85,251.057,495.503,251.057z"/>
	<path style="fill:#FF901D;" d="M57.172,251.057H15.429c-4.347,0-7.871,3.524-7.871,7.871c0,4.347,3.524,7.871,7.871,7.871h41.743
		c4.347,0,7.871-3.524,7.871-7.871C65.042,254.581,61.519,251.057,57.172,251.057z"/>
	<path style="fill:#FF901D;" d="M419.632,83.63l-29.517,29.517c-3.074,3.074-3.074,8.057,0,11.131
		c1.537,1.537,3.551,2.305,5.565,2.305s4.029-0.769,5.565-2.305l29.517-29.517c3.074-3.074,3.074-8.057,0-11.131
		C427.689,80.557,422.706,80.557,419.632,83.63z"/>
	<path style="fill:#FF901D;" d="M91.3,83.63c-3.074-3.074-8.057-3.074-11.131,0s-3.074,8.057,0,11.131l29.517,29.517
		c1.537,1.537,3.551,2.305,5.565,2.305s4.029-0.769,5.565-2.305c3.074-3.074,3.074-8.057,0-11.131L91.3,83.63z"/>
</g>
<path style="fill:#FFB125;" d="M219.111,356.386c-4.397-16.534-21.993-30.062-39.101-30.062H71.007
	c-15.402,0-28.878,10.36-32.837,25.246L0.178,494.427c-0.88,3.309,1.614,6.553,5.038,6.553h245.568c3.424,0,5.918-3.244,5.038-6.553
	L219.111,356.386z"/>
<path style="fill:#FF901D;" d="M219.111,356.386c-4.397-16.534-21.993-30.062-39.101-30.062h-13.792
	c1.56,2.713,2.781,5.581,3.57,8.548l29.758,111.894c4.391,16.511-8.055,32.7-25.14,32.7H4.157l-3.979,14.961
	c-0.88,3.309,1.614,6.553,5.038,6.553h245.568c3.424,0,5.918-3.244,5.038-6.553L219.111,356.386z"/>
<path style="fill:#FFB125;" d="M475.111,356.386c-4.397-16.534-21.993-30.062-39.101-30.062H327.007
	c-15.402,0-28.878,10.36-32.837,25.246l-37.992,142.857c-0.88,3.309,1.614,6.553,5.038,6.553h245.568
	c3.424,0,5.918-3.244,5.038-6.553L475.111,356.386z"/>
<path style="fill:#FF901D;" d="M475.111,356.386c-4.397-16.534-21.993-30.062-39.101-30.062h-13.792
	c1.56,2.713,2.781,5.581,3.57,8.548l29.758,111.894c4.391,16.511-8.055,32.7-25.14,32.7H260.157l-3.979,14.961
	c-0.88,3.309,1.614,6.553,5.038,6.553h245.568c3.424,0,5.918-3.244,5.038-6.553L475.111,356.386z"/>
<path style="fill:#FFB125;" d="M347.111,181.73c-4.397-16.534-21.993-30.062-39.101-30.062H199.007
	c-15.402,0-28.878,10.36-32.837,25.246l-37.992,142.857c-0.88,3.309,1.614,6.553,5.038,6.553h245.568
	c3.424,0,5.918-3.244,5.038-6.553L347.111,181.73z"/>
<path style="fill:#FF901D;" d="M347.111,181.73c-4.397-16.534-21.993-30.062-39.101-30.062h-13.792
	c1.56,2.713,2.781,5.581,3.57,8.548l29.758,111.894c4.391,16.511-8.055,32.7-25.14,32.7H132.157l-3.979,14.961
	c-0.88,3.309,1.614,6.553,5.038,6.553h245.568c3.424,0,5.918-3.244,5.038-6.553L347.111,181.73z"/>
<g>
</g>
<g>
</g>
<g>
</g>
<g>
</g>
<g>
</g>
<g>
</g>
<g>
</g>
<g>
</g>
<g>
</g>
<g>
</g>
<g>
</g>
<g>
</g>
<g>
</g>
<g>
</g>
<g>
</g>
</svg>
