<?xml version="1.0" encoding="iso-8859-1"?>
<!-- Generator: Adobe Illustrator 19.0.0, SVG Export Plug-In . SVG Version: 6.00 Build 0)  -->
<svg version="1.1" id="Capa_1" xmlns="http://www.w3.org/2000/svg" xmlns:xlink="http://www.w3.org/1999/xlink" x="0px" y="0px"
	 viewBox="0 0 512 512" style="enable-background:new 0 0 512 512;" xml:space="preserve">
<rect x="278.464" y="158.119" transform="matrix(-0.7071 0.7071 -0.7071 -0.7071 708.6121 251.3398)" style="fill:#E1EFFB;" width="47.576" height="228.618"/>
<rect x="298.482" y="149.831" transform="matrix(-0.7071 0.7071 -0.7071 -0.7071 716.9115 231.3247)" style="fill:#CCDFED;" width="24.13" height="228.618"/>
<path style="fill:#927266;" d="M266.712,388.078H56.102c-5.004,0-9.061,4.057-9.061,9.061v56.599h228.732v-56.599
	C275.773,392.135,271.716,388.078,266.712,388.078z"/>
<rect x="97.185" y="100.362" transform="matrix(-0.7071 0.7071 -0.7071 -0.7071 453.088 143.1368)" style="fill:#FF6D3A;" width="199.428" height="130.089"/>
<path style="fill:#ED5729;" d="M221.423,48.903l-39.538,39.538l39.461,39.461c14.744,14.744,14.744,38.65,0,53.395l-74.783,74.783
	l25.831,25.831l141.018-141.018L221.423,48.903z"/>
<g>
	<path style="fill:#FF4C4C;" d="M183.953,304.953l-14.263,14.263c-4.738,4.738-12.419,4.738-17.156,0L43.1,209.781
		c-4.738-4.738-4.738-12.419,0-17.156l14.263-14.263c4.738-4.738,12.419-4.738,17.156,0l109.434,109.434
		C188.691,292.534,188.691,300.215,183.953,304.953z"/>
	<path style="fill:#FF4C4C;" d="M349.047,139.859l-14.263,14.263c-4.738,4.738-12.419,4.738-17.156,0L208.193,44.687
		c-4.738-4.738-4.738-12.419,0-17.156l14.263-14.263c4.738-4.738,12.419-4.738,17.156,0l109.434,109.434
		C353.785,127.44,353.785,135.121,349.047,139.859z"/>
</g>
<g>
	<path style="fill:#F33939;" d="M349.047,122.703L239.613,13.268c-4.738-4.738-12.419-4.738-17.156,0l-14.263,14.263
		c-0.127,0.127-0.236,0.264-0.356,0.394c4.76-4.364,12.151-4.254,16.762,0.357l109.435,109.434
		c4.611,4.611,4.721,12.002,0.357,16.762c0.131-0.12,0.268-0.23,0.394-0.356l14.263-14.263
		C353.785,135.121,353.785,127.44,349.047,122.703z"/>
	<path style="fill:#F33939;" d="M183.954,287.796L74.519,178.361c-4.738-4.738-12.419-4.738-17.156,0L43.1,192.624
		c-0.127,0.127-0.236,0.264-0.356,0.394c4.76-4.364,12.151-4.254,16.762,0.357L168.94,302.81c4.611,4.611,4.721,12.002,0.357,16.762
		c0.131-0.12,0.268-0.23,0.394-0.356l14.263-14.263C188.691,300.215,188.691,292.534,183.954,287.796z"/>
</g>
<path style="fill:#2D5872;" d="M508.612,440.482l-38.299,38.299c-4.517,4.517-11.84,4.517-16.357,0L345.368,370.193
	c-4.517-4.517-4.517-11.84,0-16.357l38.299-38.299c4.517-4.517,11.84-4.517,16.357,0l108.588,108.588
	C513.129,428.641,513.129,435.965,508.612,440.482z"/>
<path style="fill:#1D4859;" d="M508.612,424.125L400.024,315.536c-4.517-4.517-11.84-4.517-16.357,0l-38.3,38.299l-0.001,0.001
	l14.551-14.551c4.517-4.517,11.84-4.517,16.357,0l108.588,108.588c4.517,4.517,4.517,11.84,0,16.357l-14.551,14.551l0.001-0.001
	l38.299-38.299C513.129,435.965,513.129,428.641,508.612,424.125z"/>
<path style="fill:#82635A;" d="M266.712,388.078h-40.64l-0.059,36.565c-0.011,7.109-5.777,12.865-12.886,12.865H47.041v16.23
	h228.732v-56.599C275.773,392.135,271.716,388.078,266.712,388.078z"/>
<path style="fill:#927266;" d="M296.045,447.332H26.769C11.985,447.332,0,459.317,0,474.102v22.795c0,2.976,2.413,5.388,5.388,5.388
	h312.037c2.976,0,5.388-2.413,5.388-5.388v-22.795C322.814,459.317,310.829,447.332,296.045,447.332z"/>
<path style="fill:#82635A;" d="M322.784,472.9c-0.629-14.226-12.358-25.567-26.739-25.567H272.5l-0.058,36.334
	c-0.007,4.305-3.499,7.792-7.805,7.792H5.388c-2.976,0-5.388-2.413-5.388-5.389v10.827c0,2.976,2.413,5.389,5.388,5.389h312.038
	c0.357,0,0.704-0.038,1.042-0.105c0.133-0.026,0.256-0.075,0.386-0.11c0.195-0.054,0.391-0.104,0.576-0.179
	c0.167-0.067,0.32-0.155,0.478-0.238c0.129-0.068,0.261-0.13,0.384-0.208c0.183-0.116,0.35-0.249,0.518-0.386
	c0.078-0.064,0.158-0.123,0.232-0.191c0.185-0.168,0.351-0.352,0.512-0.545c0.039-0.047,0.079-0.093,0.116-0.141
	c0.171-0.221,0.321-0.454,0.457-0.701c0.015-0.027,0.029-0.053,0.043-0.079c0.142-0.268,0.259-0.546,0.355-0.839
	c0.003-0.009,0.005-0.018,0.008-0.027c0.098-0.305,0.169-0.619,0.211-0.945v-0.001v-0.001c0.03-0.229,0.07-0.456,0.07-0.693
	L322.784,472.9z"/>
<g>
</g>
<g>
</g>
<g>
</g>
<g>
</g>
<g>
</g>
<g>
</g>
<g>
</g>
<g>
</g>
<g>
</g>
<g>
</g>
<g>
</g>
<g>
</g>
<g>
</g>
<g>
</g>
<g>
</g>
</svg>
