<?xml version="1.0" encoding="iso-8859-1"?>
<!-- Generator: Adobe Illustrator 19.0.0, SVG Export Plug-In . SVG Version: 6.00 Build 0)  -->
<svg version="1.1" id="Capa_1" xmlns="http://www.w3.org/2000/svg" xmlns:xlink="http://www.w3.org/1999/xlink" x="0px" y="0px"
	 viewBox="0 0 512 512" style="enable-background:new 0 0 512 512;" xml:space="preserve">
<rect x="343.239" y="272.187" transform="matrix(-0.7071 0.7071 -0.7071 -0.7071 874.5285 362.2314)" style="fill:#61AFF6;" width="38.01" height="180.098"/>
<rect x="358.593" y="265.829" transform="matrix(-0.7071 0.7071 -0.7071 -0.7071 880.8719 346.8881)" style="fill:#55A2F0;" width="20" height="180.098"/>
<circle style="fill:#2C5871;" cx="197.64" cy="197.64" r="197.64"/>
<circle style="fill:#E1EFFB;" cx="197.64" cy="197.64" r="164.55"/>
<path style="fill:#CCDFED;" d="M313.997,81.287c-38.316-38.316-90.827-53.78-140.605-46.403
	c33.706,4.995,66.16,20.458,92.105,46.403c64.261,64.261,64.261,168.449,0,232.71c-25.945,25.945-58.399,41.408-92.105,46.403
	c49.778,7.377,102.289-8.087,140.605-46.403C378.258,249.736,378.258,145.548,313.997,81.287z"/>
<path style="fill:#775146;" d="M508.306,477.485l-30.821,30.821c-4.926,4.926-12.912,4.926-17.837,0l-91.493-91.493
	c-4.926-4.926-4.926-12.912,0-17.837l30.821-30.821c4.926-4.926,12.912-4.926,17.837,0l91.493,91.493
	C513.231,464.573,513.231,472.559,508.306,477.485z"/>
<path style="fill:#534741;" d="M508.306,459.648l-91.494-91.493c-4.926-4.926-12.912-4.926-17.837,0l-22.754,22.753
	c4.926-4.926,12.912-4.926,17.837,0l91.493,91.493c4.926,4.926,4.926,12.912,0,17.837l-8.068,8.068v-0.001l30.821-30.821
	C513.231,472.559,513.231,464.573,508.306,459.648z"/>
<path style="fill:#FF4C4C;" d="M193.353,290.184c-32.233-0.52-54.069-17.937-54.069-30.674c0-6.239,5.458-14.817,11.958-14.817
	c8.578,0,15.597,18.197,42.111,20.276v-61.087c-23.395-8.318-49.389-17.676-49.389-50.95c0-32.754,24.694-45.75,49.389-48.35v-7.538
	c0-3.12,3.12-5.979,7.539-5.979c3.899,0,7.798,2.859,7.798,5.979v7.019c17.676,0.52,42.631,5.979,42.631,18.716
	c0,4.939-3.639,14.817-11.438,14.817c-6.239,0-12.997-8.318-31.193-9.618v52.769c22.615,8.318,47.31,19.756,47.31,55.109
	c0,31.973-19.236,49.65-47.31,53.549v8.838c0,3.12-3.899,5.979-7.798,5.979c-4.419,0-7.539-2.859-7.539-5.979V290.184z
	 M194.913,175.807v-47.31c-14.558,1.819-24.955,8.318-24.955,21.835C169.958,165.149,181.135,170.608,194.913,175.807z
	 M207.13,209.6v54.849c14.037-2.599,22.875-10.918,22.875-25.735C230.005,222.337,219.868,215.058,207.13,209.6z"/>
<g>
</g>
<g>
</g>
<g>
</g>
<g>
</g>
<g>
</g>
<g>
</g>
<g>
</g>
<g>
</g>
<g>
</g>
<g>
</g>
<g>
</g>
<g>
</g>
<g>
</g>
<g>
</g>
<g>
</g>
</svg>
