<?xml version="1.0" encoding="iso-8859-1"?>
<!-- Generator: Adobe Illustrator 19.0.0, SVG Export Plug-In . SVG Version: 6.00 Build 0)  -->
<svg version="1.1" id="Capa_1" xmlns="http://www.w3.org/2000/svg" xmlns:xlink="http://www.w3.org/1999/xlink" x="0px" y="0px"
	 viewBox="0 0 512 512" style="enable-background:new 0 0 512 512;" xml:space="preserve">
<path style="fill:#E1EFFB;" d="M498.828,434.447H13.172C5.897,434.447,0,428.55,0,421.275V169.539
	c0-7.275,5.897-13.172,13.172-13.172h485.656c7.275,0,13.172,5.897,13.172,13.172v251.736
	C512,428.55,506.103,434.447,498.828,434.447z"/>
<path style="fill:#CCDFED;" d="M498.828,156.367h-34.761v248.199c0,7.275-5.897,13.172-13.172,13.172H0v3.537
	c0,7.275,5.897,13.172,13.172,13.172h485.656c7.275,0,13.172-5.897,13.172-13.172V169.539
	C512,162.264,506.103,156.367,498.828,156.367z"/>
<path style="fill:#61AFF6;" d="M501.729,85.979l-10.819-7.321c-2.941-1.99-6.939-1.219-8.929,1.722l-21.623,31.955l21.47,14.529
	l21.623-31.955C505.441,91.967,504.67,87.97,501.729,85.979z"/>
<path style="fill:#2D5871;" d="M427.21,287.777c-1.465,0-2.945-0.423-4.249-1.306c-3.474-2.351-4.385-7.072-2.034-10.547
	l61.757-91.265l-15.929-10.779c-3.474-2.351-4.385-7.073-2.034-10.547c2.352-3.475,7.074-4.385,10.547-2.034l17.069,11.551
	c6.308,4.268,7.968,12.873,3.7,19.181l-62.529,92.405C432.039,286.607,429.646,287.777,427.21,287.777z M483.824,185.432h0.01
	H483.824z"/>
<path style="fill:#FFBF14;" d="M74.307,156.367H13.172C5.897,156.367,0,162.264,0,169.539v251.736
	c0,7.275,5.897,13.172,13.172,13.172h61.135V156.367z"/>
<path style="fill:#FFB125;" d="M13.172,434.447h61.135v-16.709H0v3.537C0,428.55,5.897,434.447,13.172,434.447z"/>
<g>
	<path style="fill:#21D8DE;" d="M479.62,377.319H350.2c-4.195,0-7.595,3.4-7.595,7.595s3.4,7.595,7.595,7.595h129.42
		c4.195,0,7.595-3.4,7.595-7.595S483.815,377.319,479.62,377.319z"/>
	<path style="fill:#21D8DE;" d="M250.958,377.319H102.771c-4.195,0-7.595,3.4-7.595,7.595s3.4,7.595,7.595,7.595h148.188
		c4.195,0,7.595-3.4,7.595-7.595S255.153,377.319,250.958,377.319z"/>
	<path style="fill:#21D8DE;" d="M390.033,342.497h89.587c4.195,0,7.595-3.4,7.595-7.595s-3.4-7.595-7.595-7.595h-89.587
		c-4.195,0-7.595,3.4-7.595,7.595S385.838,342.497,390.033,342.497z"/>
	<path style="fill:#21D8DE;" d="M265.812,327.306H102.771c-4.195,0-7.595,3.4-7.595,7.595s3.4,7.595,7.595,7.595h163.041
		c4.195,0,7.595-3.4,7.595-7.595S270.007,327.306,265.812,327.306z"/>
</g>
<path style="fill:#FF4C4C;" d="M487.92,121.522l-25.37-17.167c-5.404-3.657-12.748-2.24-16.405,3.163L299.258,324.59l-19.886,71.598
	c-0.94,3.385,2.961,6.025,5.754,3.894l59.069-45.083l146.888-217.071C494.74,132.524,493.324,125.179,487.92,121.522z"/>
<path style="fill:#F33939;" d="M487.92,121.522l-14.216-9.62c0.001,2.28-0.656,4.585-2.03,6.615L322.085,340.036l-41.695,59.802
	c1.212,1.126,3.152,1.452,4.736,0.243l59.069-45.083l146.888-217.071C494.74,132.524,493.324,125.179,487.92,121.522z"/>
<rect x="420.292" y="140.778" transform="matrix(-0.8282 -0.5604 0.5604 -0.8282 731.6567 532.3604)" style="fill:#2C5871;" width="54.259" height="26.527"/>
<path style="fill:#FFB125;" d="M279.372,396.187l19.886-71.598l44.938,30.409l-59.069,45.083
	C282.334,402.213,278.432,399.573,279.372,396.187z"/>
<path style="fill:#FF901D;" d="M322.085,340.036l-41.693,59.799c0.005,0.004,0.009,0.01,0.013,0.014
	c0.144,0.132,0.297,0.253,0.459,0.362c0.038,0.025,0.08,0.044,0.118,0.068c0.127,0.079,0.257,0.154,0.393,0.217
	c0.064,0.03,0.131,0.052,0.197,0.078c0.116,0.046,0.233,0.091,0.353,0.125c0.075,0.022,0.151,0.037,0.228,0.054
	c0.116,0.026,0.233,0.047,0.352,0.061c0.08,0.009,0.161,0.015,0.242,0.019c0.119,0.006,0.238,0.005,0.358-0.002
	c0.082-0.004,0.164-0.009,0.246-0.02c0.123-0.015,0.246-0.041,0.369-0.07c0.078-0.018,0.157-0.034,0.235-0.058
	c0.134-0.041,0.267-0.098,0.399-0.157c0.065-0.029,0.132-0.051,0.196-0.085c0.196-0.101,0.389-0.219,0.576-0.363l59.069-45.083
	L322.085,340.036L322.085,340.036z"/>
<path style="fill:#21D8DE;" d="M125.409,293.766c-17.283-0.279-28.991-9.618-28.991-16.447c0-3.345,2.927-7.945,6.411-7.945
	c4.599,0,8.363,9.757,22.579,10.872v-32.754c-12.544-4.46-26.482-9.478-26.482-27.319c0-17.562,13.241-24.531,26.482-25.925v-4.042
	c0-1.673,1.673-3.206,4.042-3.206c2.091,0,4.181,1.533,4.181,3.206v3.763c9.478,0.279,22.858,3.206,22.858,10.035
	c0,2.648-1.951,7.945-6.133,7.945c-3.345,0-6.969-4.46-16.726-5.157v28.294c12.126,4.46,25.367,10.593,25.367,29.549
	c0,17.144-10.314,26.622-25.367,28.712v4.739c0,1.673-2.091,3.206-4.181,3.206c-2.37,0-4.042-1.533-4.042-3.206v-4.32H125.409z
	 M126.245,232.438v-25.367c-7.806,0.975-13.381,4.46-13.381,11.708C112.865,226.723,118.858,229.65,126.245,232.438z
	 M132.796,250.558v29.409c7.527-1.394,12.265-5.854,12.265-13.799C145.061,257.387,139.626,253.484,132.796,250.558z"/>
<g>
</g>
<g>
</g>
<g>
</g>
<g>
</g>
<g>
</g>
<g>
</g>
<g>
</g>
<g>
</g>
<g>
</g>
<g>
</g>
<g>
</g>
<g>
</g>
<g>
</g>
<g>
</g>
<g>
</g>
</svg>
