<?xml version="1.0" encoding="iso-8859-1"?>
<!-- Generator: Adobe Illustrator 19.0.0, SVG Export Plug-In . SVG Version: 6.00 Build 0)  -->
<svg version="1.1" id="Capa_1" xmlns="http://www.w3.org/2000/svg" xmlns:xlink="http://www.w3.org/1999/xlink" x="0px" y="0px"
	 viewBox="0 0 512 512" style="enable-background:new 0 0 512 512;" xml:space="preserve">
<path style="fill:#21D8DE;" d="M148.551,450.902V319.863c0-5.122-4.152-9.275-9.275-9.275H79.83c-5.122,0-9.275,4.152-9.275,9.275
	v131.039c0,5.122,4.152,9.275,9.275,9.275h59.447C144.399,460.177,148.551,456.024,148.551,450.902z"/>
<path style="fill:#10C4C4;" d="M139.277,310.588H92.448c5.122,0,9.275,4.152,9.275,9.275v131.039c0,5.122-4.152,9.275-9.275,9.275
	h46.828c5.122,0,9.275-4.152,9.275-9.275V319.863C148.551,314.74,144.399,310.588,139.277,310.588z"/>
<path style="fill:#FF6D3A;" d="M289.989,450.902V258.064c0-5.123-4.153-9.275-9.275-9.275h-59.446c-5.122,0-9.275,4.152-9.275,9.275
	v192.839c0,5.122,4.152,9.275,9.275,9.275h59.447C285.837,460.177,289.989,456.024,289.989,450.902z"/>
<path style="fill:#ED5729;" d="M280.714,248.789h-47.079c5.123,0,9.275,4.153,9.275,9.275v192.838c0,5.122-4.152,9.275-9.275,9.275
	h47.079c5.122,0,9.275-4.152,9.275-9.275V258.064C289.989,252.942,285.837,248.789,280.714,248.789z"/>
<path style="fill:#FF4C4C;" d="M431.428,450.902V189.899c0-5.122-4.152-9.275-9.275-9.275h-59.447c-5.122,0-9.275,4.152-9.275,9.275
	v261.003c0,5.122,4.152,9.275,9.275,9.275h59.447C427.275,460.177,431.428,456.024,431.428,450.902z"/>
<path style="fill:#F33939;" d="M422.153,180.624h-47.559c5.122,0,9.275,4.152,9.275,9.275v261.003c0,5.123-4.153,9.275-9.275,9.275
	h47.559c5.123,0,9.275-4.153,9.275-9.275V189.899C431.428,184.777,427.276,180.624,422.153,180.624z"/>
<path style="fill:#2D5871;" d="M505.65,449.199H30.934c-3.507,0-6.35-2.843-6.35-6.35V55.337c0-3.507-2.843-6.35-6.35-6.35H6.35
	c-3.507,0-6.35,2.843-6.35,6.35V469.18c0,3.507,2.843,6.35,6.35,6.35h499.3c3.507,0,6.35-2.843,6.35-6.35v-13.631
	C512,452.042,509.157,449.199,505.65,449.199z"/>
<path style="fill:#73CC00;" d="M420.907,82.46l-5.533-39.519c-0.279-1.99-1.343-3.785-2.955-4.985
	c-1.611-1.199-3.635-1.704-5.623-1.399l-43.538,6.668c-4.102,0.628-6.917,4.462-6.289,8.563c0.628,4.102,4.464,6.919,8.563,6.289
	l25.37-3.886c-33.927,41.944-70.417,77.673-108.635,106.3c-33.256,24.91-67.886,44.544-102.928,58.358
	C119.7,242.359,78.974,240.814,78.574,240.8c-4.152-0.21-7.655,3-7.856,7.14c-0.201,4.144,2.995,7.667,7.139,7.868
	c0.245,0.012,1.271,0.056,3.028,0.056c10.825,0,49.335-1.661,103.022-22.667c36.406-14.244,72.333-34.513,106.785-60.245
	c39.591-29.57,77.326-66.494,112.331-109.852l3.002,21.443c0.526,3.756,3.744,6.472,7.431,6.472c0.346,0,0.698-0.024,1.051-0.073
	C418.617,90.367,421.482,86.569,420.907,82.46z"/>
<circle style="fill:#FFB125;" cx="388.93" cy="366.14" r="83.06"/>
<path style="fill:#FF901D;" d="M447.662,424.872c32.436-32.436,32.436-85.026,0-117.462L330.2,424.872
	C362.636,457.308,415.226,457.308,447.662,424.872z"/>
<path style="fill:#DD7219;" d="M386.818,411.729c-15.879-0.256-26.636-8.836-26.636-15.111c0-3.074,2.689-7.299,5.891-7.299
	c4.226,0,7.683,8.964,20.745,9.988v-30.093c-11.525-4.098-24.331-8.708-24.331-25.099c0-16.135,12.165-22.538,24.331-23.819v-3.714
	c0-1.537,1.537-2.945,3.714-2.945c1.921,0,3.841,1.408,3.841,2.945v3.458c8.708,0.256,21.001,2.945,21.001,9.22
	c0,2.433-1.793,7.299-5.635,7.299c-3.073,0-6.403-4.098-15.367-4.738v25.995c11.141,4.098,23.306,9.732,23.306,27.148
	c0,15.751-9.476,24.459-23.306,26.38v4.354c0,1.537-1.921,2.945-3.841,2.945c-2.177,0-3.714-1.409-3.714-2.945v-3.969H386.818z
	 M387.587,355.384v-23.306c-7.171,0.896-12.293,4.097-12.293,10.757C375.293,350.134,380.799,352.823,387.587,355.384z
	 M393.605,372.032v27.02c6.915-1.281,11.269-5.378,11.269-12.678C404.874,378.306,399.88,374.721,393.605,372.032z"/>
<g>
</g>
<g>
</g>
<g>
</g>
<g>
</g>
<g>
</g>
<g>
</g>
<g>
</g>
<g>
</g>
<g>
</g>
<g>
</g>
<g>
</g>
<g>
</g>
<g>
</g>
<g>
</g>
<g>
</g>
</svg>
