<?xml version="1.0" encoding="iso-8859-1"?>
<!-- Generator: Adobe Illustrator 19.0.0, SVG Export Plug-In . SVG Version: 6.00 Build 0)  -->
<svg version="1.1" id="Capa_1" xmlns="http://www.w3.org/2000/svg" xmlns:xlink="http://www.w3.org/1999/xlink" x="0px" y="0px"
	 viewBox="0 0 512 512" style="enable-background:new 0 0 512 512;" xml:space="preserve">
<path style="fill:#21D8DE;" d="M387.715,456.421c-5.114,0-9.275-4.161-9.275-9.275v-131.04c0-5.114,4.161-9.275,9.275-9.275h59.447
	c5.114,0,9.275,4.161,9.275,9.275v131.039c0,5.114-4.161,9.275-9.275,9.275h-59.447V456.421z"/>
<path style="fill:#10C4C4;" d="M447.162,306.832h-47.079c5.114,0,9.275,4.161,9.275,9.275v131.039c0,5.114-4.161,9.275-9.275,9.275
	h47.079c5.114,0,9.275-4.161,9.275-9.275v-131.04C456.436,310.992,452.276,306.832,447.162,306.832z"/>
<path style="fill:#FF6D3A;" d="M246.277,456.421c-5.114,0-9.275-4.161-9.275-9.275V254.309c0-5.115,4.161-9.275,9.275-9.275h59.447
	c5.114,0,9.275,4.161,9.275,9.275v192.838c0,5.114-4.161,9.275-9.275,9.275H246.277z"/>
<path style="fill:#ED5729;" d="M305.723,245.033h-47.079c5.114,0,9.275,4.161,9.275,9.275v192.838c0,5.114-4.161,9.275-9.275,9.275
	h47.079c5.114,0,9.275-4.161,9.275-9.275V254.309C314.998,249.193,310.837,245.033,305.723,245.033z"/>
<path style="fill:#FF4C4C;" d="M104.839,456.421c-5.115,0-9.275-4.161-9.275-9.275V186.143c0-5.114,4.161-9.275,9.275-9.275h59.447
	c5.114,0,9.275,4.161,9.275,9.275v261.003c0,5.114-4.161,9.275-9.275,9.275h-59.447V456.421z"/>
<path style="fill:#F33939;" d="M164.285,176.868h-46.507c5.114,0,9.275,4.161,9.275,9.275v261.003c0,5.114-4.161,9.275-9.275,9.275
	h46.507c5.114,0,9.275-4.161,9.275-9.275V186.143C173.56,181.029,169.399,176.868,164.285,176.868z"/>
<path style="fill:#2D5871;" d="M505.65,442.941H30.934c-3.507,0-6.35-2.843-6.35-6.35V49.078c0-3.507-2.843-6.35-6.35-6.35H6.35
	c-3.507,0-6.35,2.843-6.35,6.35v413.843c0,3.507,2.843,6.35,6.35,6.35h499.3c3.507,0,6.35-2.843,6.35-6.35V449.29
	C512,445.784,509.157,442.941,505.65,442.941z"/>
<path style="fill:#73CC00;" d="M459.713,243.076l-28.423-33.648c-2.677-3.169-7.416-3.569-10.587-0.891
	c-3.169,2.677-3.568,7.417-0.891,10.587l16.562,19.607c-53.488-7.03-103.014-19.492-147.385-37.136
	c-38.61-15.354-73.439-34.634-103.518-57.305c-51.194-38.585-71.145-74.118-71.34-74.472c-1.996-3.631-6.556-4.961-10.191-2.971
	c-3.639,1.993-4.975,6.558-2.982,10.197c0.843,1.54,21.255,38.167,74.663,78.634c31.159,23.609,67.207,43.665,107.142,59.609
	c45.892,18.323,97.087,31.222,152.344,38.433l-16.719,13.757c-3.204,2.636-3.664,7.371-1.028,10.575
	c1.485,1.805,3.637,2.739,5.806,2.739c1.68,0,3.37-0.561,4.769-1.711l30.813-25.355c1.551-1.277,2.527-3.122,2.708-5.123
	C461.637,246.601,461.01,244.611,459.713,243.076z"/>
<circle style="fill:#FFB125;" cx="134.56" cy="357.19" r="85.5"/>
<path style="fill:#FF901D;" d="M195.023,296.725L195.023,296.725L74.1,417.647l0,0c33.392,33.392,87.531,33.392,120.923,0
	S228.415,330.117,195.023,296.725z"/>
<path style="fill:#DD7219;" d="M128.138,408.091c-15.879-0.256-26.636-8.836-26.636-15.111c0-3.074,2.689-7.299,5.891-7.299
	c4.226,0,7.683,8.964,20.745,9.988v-30.093c-11.525-4.098-24.331-8.708-24.331-25.099c0-16.135,12.165-22.538,24.331-23.819v-3.714
	c0-1.537,1.537-2.945,3.714-2.945c1.921,0,3.842,1.408,3.842,2.945v3.458c8.708,0.256,21.001,2.945,21.001,9.22
	c0,2.433-1.793,7.299-5.635,7.299c-3.073,0-6.403-4.098-15.367-4.738v25.995c11.141,4.098,23.306,9.732,23.306,27.148
	c0,15.751-9.476,24.459-23.306,26.38v4.354c0,1.537-1.921,2.945-3.842,2.945c-2.177,0-3.714-1.408-3.714-2.945L128.138,408.091
	L128.138,408.091z M128.906,351.746V328.44c-7.171,0.896-12.293,4.097-12.293,10.757
	C116.613,346.496,122.119,349.185,128.906,351.746z M134.925,368.395v27.02c6.915-1.28,11.269-5.378,11.269-12.678
	C146.194,374.668,141.2,371.083,134.925,368.395z"/>
<g>
</g>
<g>
</g>
<g>
</g>
<g>
</g>
<g>
</g>
<g>
</g>
<g>
</g>
<g>
</g>
<g>
</g>
<g>
</g>
<g>
</g>
<g>
</g>
<g>
</g>
<g>
</g>
<g>
</g>
</svg>
