<?xml version="1.0" encoding="iso-8859-1"?>
<!-- Generator: Adobe Illustrator 19.0.0, SVG Export Plug-In . SVG Version: 6.00 Build 0)  -->
<svg version="1.1" id="Capa_1" xmlns="http://www.w3.org/2000/svg" xmlns:xlink="http://www.w3.org/1999/xlink" x="0px" y="0px"
	 viewBox="0 0 512 512" style="enable-background:new 0 0 512 512;" xml:space="preserve">
<path style="fill:#E1EFFB;" d="M60.749,26.161v459.678C60.749,500.287,72.462,512,86.91,512h338.18
	c14.448,0,26.161-11.713,26.161-26.161V135.065L316.185,0H86.91C72.462,0,60.749,11.713,60.749,26.161z"/>
<path style="fill:#CCDFED;" d="M347.324,31.139v111.489c0,9.057,7.342,16.399,16.399,16.399h38.563v326.812
	c0,14.448-11.713,26.161-26.161,26.161h48.964c14.448,0,26.161-11.713,26.161-26.161V159.027v-23.961L347.324,31.139z"/>
<path style="fill:#FF4C4C;" d="M316.185,0L451.25,135.065H332.585c-9.057,0-16.399-7.342-16.399-16.399V0H316.185z"/>
<path style="fill:#F96B6B;" d="M331.639,33.657l84.016,84.016H341.84c-5.634,0-10.201-4.567-10.201-10.201V33.657z"/>
<path style="fill:#F4D451;" d="M168.945,386.583c-39.646-0.64-66.503-22.062-66.503-37.728c0-7.674,6.714-18.225,14.707-18.225
	c10.551,0,19.184,22.382,51.796,24.939v-75.136c-28.775-10.231-60.748-21.742-60.748-62.667c0-40.286,30.374-56.272,60.748-59.47
	v-9.272c0-3.837,3.837-7.354,9.273-7.354c4.796,0,9.591,3.517,9.591,7.354v8.633c21.742,0.639,52.436,7.354,52.436,23.021
	c0,6.075-4.476,18.224-14.068,18.224c-7.673,0-15.986-10.231-38.367-11.83v64.905C215.626,262.208,246,276.276,246,319.76
	c0,39.327-23.66,61.068-58.191,65.864v10.87c0,3.837-4.796,7.354-9.591,7.354c-5.436,0-9.273-3.517-9.273-7.354L168.945,386.583
	L168.945,386.583z M170.864,245.902v-58.19c-17.905,2.238-30.694,10.23-30.694,26.857
	C140.17,232.793,153.918,239.508,170.864,245.902z M185.891,287.467v67.463c17.265-3.197,28.136-13.428,28.136-31.653
	C214.027,303.133,201.558,294.181,185.891,287.467z"/>
<path style="fill:#61AFF6;" d="M399.594,448.038H112.406c-4.316,0-7.813,3.498-7.813,7.813s3.498,7.813,7.813,7.813h287.188
	c4.316,0,7.813-3.498,7.813-7.813S403.91,448.038,399.594,448.038z"/>
<g>
	<path style="fill:#FFB125;" d="M277.878,184.339h121.716c4.316,0,7.813-3.498,7.813-7.813s-3.498-7.813-7.813-7.813H277.878
		c-4.316,0-7.813,3.498-7.813,7.813S273.562,184.339,277.878,184.339z"/>
	<path style="fill:#FFB125;" d="M399.594,264.946H277.878c-4.316,0-7.813,3.498-7.813,7.813s3.498,7.813,7.813,7.813h121.716
		c4.316,0,7.813-3.498,7.813-7.813S403.91,264.946,399.594,264.946z"/>
</g>
<path style="fill:#61AFF6;" d="M399.594,361.18H277.878c-4.316,0-7.813,3.498-7.813,7.813s3.498,7.813,7.813,7.813h121.716
	c4.316,0,7.813-3.498,7.813-7.813S403.91,361.18,399.594,361.18z"/>
<g>
</g>
<g>
</g>
<g>
</g>
<g>
</g>
<g>
</g>
<g>
</g>
<g>
</g>
<g>
</g>
<g>
</g>
<g>
</g>
<g>
</g>
<g>
</g>
<g>
</g>
<g>
</g>
<g>
</g>
</svg>
