<?xml version="1.0" encoding="iso-8859-1"?>
<!-- Generator: Adobe Illustrator 19.0.0, SVG Export Plug-In . SVG Version: 6.00 Build 0)  -->
<svg version="1.1" id="Capa_1" xmlns="http://www.w3.org/2000/svg" xmlns:xlink="http://www.w3.org/1999/xlink" x="0px" y="0px"
	 viewBox="0 0 512 512" style="enable-background:new 0 0 512 512;" xml:space="preserve">
<path style="fill:#61AFF6;" d="M316.537,512H47.132c-12.851,0-23.269-10.418-23.269-23.269V23.269C23.863,10.418,34.281,0,47.132,0
	h269.406c12.851,0,23.269,10.418,23.269,23.269v465.462C339.806,501.582,329.388,512,316.537,512z"/>
<path style="fill:#55A2F0;" d="M316.537,0h-25.502c0.895,2.472,1.384,5.138,1.384,7.918V473.38
	c0,12.851-10.418,23.269-23.269,23.269H25.247C28.487,505.602,37.062,512,47.132,512h269.406c12.851,0,23.269-10.418,23.269-23.269
	V23.269C339.806,10.418,329.388,0,316.537,0z"/>
<g>
	<path style="fill:#F2F2F2;" d="M299.102,431.197H64.568c-5.313,0-9.619-4.307-9.619-9.62V39.086c0-5.313,4.307-9.619,9.619-9.619
		H299.1c5.313,0,9.619,4.307,9.619,9.619v382.492C308.72,426.89,304.414,431.197,299.102,431.197z"/>
	<circle style="fill:#F2F2F2;" cx="181.831" cy="471.91" r="20.02"/>
</g>
<path style="fill:#B6FA4C;" d="M470.784,120.163h-288.95v225.668h288.95c9.584,0,17.353-7.769,17.353-17.353V137.517
	C488.138,127.932,480.368,120.163,470.784,120.163z"/>
<path style="fill:#A8E83A;" d="M470.784,120.163H439.75c0.857,2.055,1.334,4.309,1.334,6.675v190.961
	c0,9.584-7.769,17.353-17.353,17.353H181.835v10.679h288.95c9.584,0,17.353-7.769,17.353-17.353V137.517
	C488.138,127.932,480.368,120.163,470.784,120.163z"/>
<path style="fill:#77DD00;" d="M462.494,172.513c-12.298-5.417-22.147-15.362-27.447-27.723c-0.914-2.133-3.033-3.496-5.354-3.496
	H181.835v183.408h247.859c2.321,0,4.44-1.363,5.354-3.496c5.3-12.362,15.149-22.306,27.447-27.723
	c2.103-0.926,3.439-3.031,3.439-5.329V177.842C465.934,175.544,464.597,173.439,462.494,172.513z"/>
<path style="fill:#73CC00;" d="M462.494,172.513c-12.298-5.417-22.147-15.362-27.447-27.723c-0.914-2.133-3.033-3.496-5.354-3.496
	h-11.814v136.181c0,2.298-1.336,4.403-3.439,5.329c-12.298,5.417-22.147,15.362-27.447,27.723c-0.914,2.133-3.033,3.496-5.354,3.496
	H181.835v10.679h247.859c2.321,0,4.44-1.363,5.354-3.496c5.3-12.362,15.149-22.306,27.447-27.723
	c2.103-0.926,3.439-3.031,3.439-5.329V177.842C465.934,175.544,464.597,173.439,462.494,172.513z"/>
<circle style="fill:#B6FA4C;" cx="290.23" cy="233" r="64.959"/>
<path style="fill:#77DD00;" d="M288.387,272.926c-13.87-0.224-23.265-7.718-23.265-13.199c0-2.685,2.349-6.376,5.145-6.376
	c3.691,0,6.711,7.83,18.12,8.724V235.79c-10.066-3.579-21.252-7.606-21.252-21.923c0-14.093,10.626-19.686,21.252-20.804v-3.244
	c0-1.342,1.342-2.573,3.244-2.573c1.678,0,3.355,1.23,3.355,2.573v3.02c7.606,0.224,18.344,2.573,18.344,8.053
	c0,2.125-1.566,6.375-4.922,6.375c-2.684,0-5.592-3.579-13.422-4.138v22.706c9.731,3.579,20.357,8.501,20.357,23.713
	c0,13.758-8.277,21.364-20.357,23.041v3.803c0,1.342-1.678,2.573-3.355,2.573c-1.902,0-3.244-1.23-3.244-2.573V272.926z
	 M289.059,223.711v-20.357c-6.264,0.783-10.738,3.579-10.738,9.395C278.32,219.125,283.13,221.474,289.059,223.711z
	 M294.315,238.252v23.601c6.04-1.118,9.843-4.698,9.843-11.073C304.158,243.732,299.796,240.6,294.315,238.252z"/>
<path style="fill:#CCDFED;" d="M181.835,89.561c-4.147,0-7.508,3.362-7.508,7.508v266.756c0,4.147,3.361,7.508,7.508,7.508
	s7.508-3.362,7.508-7.508V97.069C189.344,92.922,185.982,89.561,181.835,89.561z"/>
<path style="fill:#21D8DE;" d="M299.102,29.466H64.568c-5.313,0-9.619,4.307-9.619,9.62v24.197H308.72V39.086
	C308.72,33.773,304.414,29.466,299.102,29.466z"/>
<g>
</g>
<g>
</g>
<g>
</g>
<g>
</g>
<g>
</g>
<g>
</g>
<g>
</g>
<g>
</g>
<g>
</g>
<g>
</g>
<g>
</g>
<g>
</g>
<g>
</g>
<g>
</g>
<g>
</g>
</svg>
