<?xml version="1.0" encoding="iso-8859-1"?>
<!-- Generator: Adobe Illustrator 19.0.0, SVG Export Plug-In . SVG Version: 6.00 Build 0)  -->
<svg version="1.1" id="Capa_1" xmlns="http://www.w3.org/2000/svg" xmlns:xlink="http://www.w3.org/1999/xlink" x="0px" y="0px"
	 viewBox="0 0 512 512" style="enable-background:new 0 0 512 512;" xml:space="preserve">
<path style="fill:#FFB125;" d="M327.133,66.238V36.162C327.133,16.19,310.943,0,290.971,0H41.486C21.514,0,5.324,16.19,5.324,36.162
	v30.076c0,19.972,16.19,36.162,36.162,36.162c-19.972,0-36.162,16.19-36.162,36.162v30.076c0,19.972,16.19,36.162,36.162,36.162
	c-19.972,0-36.162,16.19-36.162,36.162v30.076c0,19.972,16.19,36.162,36.162,36.162c-19.972,0-36.162,16.19-36.162,36.162v30.076
	c0,19.972,16.19,36.162,36.162,36.162c-19.972,0-36.162,16.19-36.162,36.162v30.076C5.324,495.81,21.514,512,41.486,512h249.486
	c19.972,0,36.162-16.19,36.162-36.162v-30.076c0-19.972-16.19-36.162-36.162-36.162c19.972,0,36.162-16.19,36.162-36.162v-30.076
	c0-19.972-16.19-36.162-36.162-36.162c19.972,0,36.162-16.19,36.162-36.162v-30.076c0-19.972-16.19-36.162-36.162-36.162
	c19.972,0,36.162-16.19,36.162-36.162v-30.076c0-19.972-16.19-36.162-36.162-36.162C310.943,102.4,327.133,86.21,327.133,66.238z"/>
<g>
	<path style="fill:#FF901D;" d="M315.316,92.977c0.006-0.005,0.011-0.011,0.017-0.016c0.421-0.384,0.833-0.777,1.235-1.18
		c0.011-0.011,0.021-0.023,0.032-0.034c0.396-0.398,0.784-0.805,1.162-1.221c0.023-0.025,0.044-0.052,0.066-0.077
		c0.364-0.403,0.72-0.813,1.066-1.233c0.049-0.06,0.095-0.123,0.144-0.183c0.316-0.388,0.627-0.78,0.927-1.182
		c0.057-0.077,0.11-0.157,0.166-0.234c0.286-0.39,0.569-0.782,0.84-1.183c0.057-0.085,0.11-0.174,0.167-0.26
		c0.263-0.397,0.523-0.796,0.771-1.204c0.074-0.123,0.142-0.25,0.215-0.374c0.223-0.377,0.445-0.754,0.654-1.139
		c0.072-0.133,0.137-0.271,0.208-0.405c0.2-0.381,0.401-0.762,0.589-1.151c0.078-0.163,0.148-0.331,0.224-0.496
		c0.17-0.366,0.341-0.732,0.499-1.105c0.076-0.181,0.143-0.366,0.216-0.548c0.146-0.362,0.295-0.723,0.43-1.091
		c0.08-0.219,0.149-0.443,0.224-0.663c0.116-0.338,0.237-0.673,0.343-1.015c0.08-0.256,0.146-0.518,0.22-0.777
		c0.089-0.312,0.185-0.622,0.266-0.937c0.079-0.309,0.145-0.624,0.216-0.937c0.062-0.271,0.131-0.538,0.187-0.811
		c0.067-0.327,0.119-0.66,0.177-0.99c0.046-0.263,0.1-0.524,0.141-0.79c0.046-0.303,0.078-0.611,0.116-0.917
		c0.038-0.297,0.083-0.593,0.113-0.892c0.033-0.325,0.05-0.655,0.075-0.983c0.021-0.284,0.05-0.566,0.065-0.852
		c0.031-0.616,0.047-1.236,0.047-1.859V36.162C327.133,16.19,310.943,0,290.971,0h-19.179c4.894,6.168,7.824,13.965,7.824,22.451
		v30.076c0,19.972-16.19,36.162-36.162,36.162H13.148c2.058,2.594,4.465,4.899,7.149,6.845c0.043,0.031,0.086,0.061,0.129,0.092
		c0.476,0.342,0.961,0.672,1.454,0.991c0.08,0.052,0.161,0.104,0.242,0.155c0.469,0.298,0.945,0.585,1.428,0.862
		c0.09,0.051,0.178,0.104,0.269,0.154c0.503,0.283,1.015,0.553,1.533,0.812c0.064,0.032,0.127,0.066,0.191,0.098
		c1.183,0.583,2.402,1.104,3.654,1.556c0.053,0.019,0.108,0.035,0.161,0.054c0.546,0.195,1.098,0.376,1.655,0.545
		c0.177,0.053,0.356,0.101,0.534,0.152c0.44,0.126,0.882,0.245,1.328,0.355c0.221,0.054,0.444,0.104,0.666,0.154
		c0.412,0.093,0.828,0.178,1.245,0.257c0.24,0.045,0.479,0.089,0.72,0.129c0.415,0.069,0.832,0.129,1.252,0.183
		c0.241,0.031,0.481,0.065,0.723,0.092c0.449,0.05,0.902,0.086,1.356,0.119c0.212,0.015,0.423,0.037,0.636,0.048
		c0.667,0.037,1.337,0.059,2.013,0.059h215.449c12.337,0,22.596,9.856,22.681,22.192c0.001,0.085,0.001,0.169,0.001,0.254v30.076
		c0,19.972-16.19,36.162-36.162,36.162H13.148c2.481,3.127,5.468,5.835,8.836,7.999c0.008,0.005,0.017,0.011,0.025,0.016
		c0.553,0.355,1.116,0.694,1.689,1.019c0.009,0.005,0.017,0.01,0.026,0.015c2.313,1.309,4.786,2.369,7.38,3.146
		c0.064,0.019,0.128,0.036,0.192,0.055c0.559,0.164,1.124,0.315,1.693,0.452c0.125,0.03,0.252,0.058,0.378,0.087
		c0.519,0.119,1.043,0.227,1.57,0.324c0.145,0.027,0.29,0.053,0.435,0.078c0.53,0.09,1.063,0.168,1.601,0.235
		c0.133,0.017,0.266,0.036,0.399,0.051c0.605,0.069,1.215,0.122,1.829,0.16c0.06,0.004,0.12,0.01,0.18,0.014
		c0.696,0.04,1.397,0.061,2.103,0.061h215.448c12.326,0,22.572,9.841,22.681,22.166c0.001,0.096,0.001,0.193,0.001,0.289v30.076
		c0,19.972-16.19,36.162-36.162,36.162H13.148c6.624,8.35,16.852,13.711,28.338,13.711h215.449c12.337,0,22.595,9.856,22.681,22.192
		c0.001,0.086,0.001,0.172,0.001,0.259v30.076c0,19.972-16.19,36.162-36.162,36.162H13.148c6.624,8.35,16.852,13.711,28.338,13.711
		h215.449c12.337,0,22.595,9.856,22.681,22.192c0.001,0.086,0.001,0.172,0.001,0.259v30.076c0,19.972-16.19,36.162-36.162,36.162
		H13.148C19.772,506.639,30,512,41.486,512h249.486c19.972,0,36.162-16.19,36.162-36.162v-30.076
		c0-19.972-16.19-36.162-36.162-36.162c19.972,0,36.162-16.19,36.162-36.162v-30.076c0-19.972-16.19-36.162-36.162-36.162
		c19.972,0,36.162-16.19,36.162-36.162v-30.076c0-19.972-16.19-36.162-36.162-36.162l-0.072-0.004h0.072
		c19.972,0,36.162-16.19,36.162-36.162v-30.072c0-19.972-16.19-36.162-36.162-36.162c0.028,0,0.056-0.002,0.085-0.002
		C300.4,102.376,308.91,98.812,315.316,92.977z"/>
	<circle style="fill:#FF901D;" cx="327.137" cy="332.46" r="179.54"/>
</g>
<path style="fill:#FF6D3A;" d="M327.133,152.928c-8.055,0-15.984,0.539-23.758,1.567c87.923,11.626,155.777,86.869,155.777,177.969
	s-67.854,166.343-155.777,177.969c7.774,1.028,15.703,1.567,23.758,1.567c99.155,0,179.536-80.381,179.536-179.536
	S426.288,152.928,327.133,152.928z"/>
<circle style="fill:#FEE570;" cx="327.137" cy="332.46" r="142.71"/>
<path style="fill:#F4D451;" d="M428.046,433.377c55.733-55.733,55.733-146.094,0-201.826L226.221,433.377
	C281.953,489.11,372.313,489.11,428.046,433.377z"/>
<path style="fill:#FF901D;" d="M324.229,422.996c-30.648-0.495-51.41-17.055-51.41-29.166c0-5.932,5.19-14.089,11.37-14.089
	c8.156,0,14.83,17.302,40.04,19.279v-58.084c-22.244-7.909-46.961-16.807-46.961-48.444c0-31.143,23.48-43.501,46.961-45.973v-7.168
	c0-2.966,2.966-5.685,7.168-5.685c3.707,0,7.415,2.719,7.415,5.685v6.674c16.807,0.494,40.535,5.685,40.535,17.796
	c0,4.696-3.46,14.088-10.876,14.088c-5.932,0-12.358-7.909-29.66-9.145v50.174c21.503,7.909,44.984,18.785,44.984,52.399
	c0,30.401-18.29,47.209-44.984,50.916v8.403c0,2.966-3.707,5.685-7.415,5.685c-4.202,0-7.168-2.719-7.168-5.685v-7.66H324.229z
	 M325.712,314.242v-44.984c-13.842,1.73-23.728,7.909-23.728,20.762C301.986,304.109,312.612,309.299,325.712,314.242z
	 M337.329,346.374v52.152c13.347-2.472,21.75-10.381,21.75-24.47C359.079,358.485,349.44,351.564,337.329,346.374z"/>
<g>
</g>
<g>
</g>
<g>
</g>
<g>
</g>
<g>
</g>
<g>
</g>
<g>
</g>
<g>
</g>
<g>
</g>
<g>
</g>
<g>
</g>
<g>
</g>
<g>
</g>
<g>
</g>
<g>
</g>
</svg>
