<?xml version="1.0" encoding="iso-8859-1"?>
<!-- Generator: Adobe Illustrator 19.0.0, SVG Export Plug-In . SVG Version: 6.00 Build 0)  -->
<svg version="1.1" id="Capa_1" xmlns="http://www.w3.org/2000/svg" xmlns:xlink="http://www.w3.org/1999/xlink" x="0px" y="0px"
	 viewBox="0 0 512 512" style="enable-background:new 0 0 512 512;" xml:space="preserve">
<path style="fill:#FF6D3A;" d="M417.551,512H94.449c-15.771,0-28.555-12.785-28.555-28.555V28.555C65.893,12.785,78.678,0,94.449,0
	h323.102c15.771,0,28.555,12.785,28.555,28.555v454.889C446.107,499.215,433.322,512,417.551,512z"/>
<path style="fill:#ED5729;" d="M417.551,0H396c2.294,4.112,3.606,8.846,3.606,13.889v454.889c0,15.771-12.785,28.555-28.555,28.555
	H69.499C74.38,506.081,83.721,512,94.449,512h323.102c15.771,0,28.555-12.785,28.555-28.555V28.555
	C446.107,12.785,433.322,0,417.551,0z"/>
<path style="fill:#21D8DE;" d="M398.623,186H113.377c-8.216,0-14.877-6.661-14.877-14.877V53.877C98.5,45.661,105.161,39,113.377,39
	h285.246c8.216,0,14.877,6.661,14.877,14.877v117.246C413.5,179.339,406.839,186,398.623,186z"/>
<path style="fill:#10C4C4;" d="M398.623,39h-32.836c0.459,1.433,0.713,2.958,0.713,4.544V160.79c0,8.216-6.661,14.877-14.877,14.877
	H99.213c1.921,5.993,7.534,10.333,14.164,10.333h285.246c8.216,0,14.877-6.661,14.877-14.877V53.877
	C413.5,45.661,406.839,39,398.623,39z"/>
<path style="fill:#5FFFFF;" d="M220.711,105h-26V79c0-4.142-3.358-7.5-7.5-7.5s-7.5,3.358-7.5,7.5v26h-26
	c-4.142,0-7.5,3.358-7.5,7.5s3.358,7.5,7.5,7.5h26v26c0,4.142,3.358,7.5,7.5,7.5s7.5-3.358,7.5-7.5v-26h26
	c4.142,0,7.5-3.358,7.5-7.5S224.854,105,220.711,105z"/>
<g>
	<path style="fill:#FFFFFF;" d="M142.496,275h-34.658c-5.157,0-9.337-4.181-9.337-9.337v-34.658c0-5.157,4.181-9.337,9.337-9.337
		h34.658c5.157,0,9.337,4.181,9.337,9.337v34.658C151.833,270.819,147.653,275,142.496,275z"/>
	<path style="fill:#FFFFFF;" d="M229.718,275H195.06c-5.157,0-9.337-4.181-9.337-9.337v-34.658c0-5.157,4.181-9.337,9.337-9.337
		h34.658c5.157,0,9.337,4.181,9.337,9.337v34.658C239.056,270.819,234.875,275,229.718,275z"/>
	<path style="fill:#FFFFFF;" d="M316.94,275h-34.658c-5.157,0-9.337-4.181-9.337-9.337v-34.658c0-5.157,4.181-9.337,9.337-9.337
		h34.658c5.157,0,9.337,4.181,9.337,9.337v34.658C326.278,270.819,322.097,275,316.94,275z"/>
</g>
<path style="fill:#FEE570;" d="M404.163,275h-34.658c-5.157,0-9.337-4.181-9.337-9.337v-34.658c0-5.157,4.181-9.337,9.337-9.337
	h34.658c5.157,0,9.337,4.181,9.337,9.337v34.658C413.5,270.819,409.319,275,404.163,275z"/>
<g>
	<path style="fill:#FFFFFF;" d="M142.496,364h-34.658c-5.157,0-9.337-4.181-9.337-9.337v-34.658c0-5.157,4.181-9.337,9.337-9.337
		h34.658c5.157,0,9.337,4.181,9.337,9.337v34.658C151.833,359.819,147.653,364,142.496,364z"/>
	<path style="fill:#FFFFFF;" d="M229.718,364H195.06c-5.157,0-9.337-4.181-9.337-9.337v-34.658c0-5.157,4.181-9.337,9.337-9.337
		h34.658c5.157,0,9.337,4.181,9.337,9.337v34.658C239.056,359.819,234.875,364,229.718,364z"/>
	<path style="fill:#FFFFFF;" d="M316.94,364h-34.658c-5.157,0-9.337-4.181-9.337-9.337v-34.658c0-5.157,4.181-9.337,9.337-9.337
		h34.658c5.157,0,9.337,4.181,9.337,9.337v34.658C326.278,359.819,322.097,364,316.94,364z"/>
	<path style="fill:#FFFFFF;" d="M142.496,453h-34.658c-5.157,0-9.337-4.181-9.337-9.337v-34.658c0-5.157,4.181-9.337,9.337-9.337
		h34.658c5.157,0,9.337,4.181,9.337,9.337v34.658C151.833,448.819,147.653,453,142.496,453z"/>
	<path style="fill:#FFFFFF;" d="M229.718,453H195.06c-5.157,0-9.337-4.181-9.337-9.337v-34.658c0-5.157,4.181-9.337,9.337-9.337
		h34.658c5.157,0,9.337,4.181,9.337,9.337v34.658C239.056,448.819,234.875,453,229.718,453z"/>
	<path style="fill:#FFFFFF;" d="M316.94,453h-34.658c-5.157,0-9.337-4.181-9.337-9.337v-34.658c0-5.157,4.181-9.337,9.337-9.337
		h34.658c5.157,0,9.337,4.181,9.337,9.337v34.658C326.278,448.819,322.097,453,316.94,453z"/>
</g>
<path style="fill:#FEE570;" d="M404.163,310.667h-34.658c-5.157,0-9.337,4.18-9.337,9.337v123.658c0,5.157,4.18,9.337,9.337,9.337
	h34.658c5.157,0,9.337-4.181,9.337-9.337V320.004C413.5,314.847,409.319,310.667,404.163,310.667z"/>
<path style="fill:#5FFFFF;" d="M315.099,152.319c-13.87-0.224-23.265-7.718-23.265-13.199c0-2.685,2.349-6.376,5.145-6.376
	c3.691,0,6.711,7.83,18.12,8.724v-26.285c-10.066-3.579-21.252-7.606-21.252-21.923c0-14.093,10.626-19.686,21.252-20.804v-3.244
	c0-1.342,1.342-2.573,3.244-2.573c1.678,0,3.355,1.23,3.355,2.573v3.02c7.606,0.224,18.344,2.573,18.344,8.053
	c0,2.125-1.566,6.375-4.922,6.375c-2.684,0-5.592-3.579-13.422-4.138v22.706c9.731,3.579,20.357,8.501,20.357,23.713
	c0,13.758-8.277,21.364-20.357,23.041v3.803c0,1.342-1.678,2.573-3.355,2.573c-1.902,0-3.244-1.23-3.244-2.573L315.099,152.319
	L315.099,152.319z M315.77,103.104V82.748c-6.264,0.783-10.738,3.579-10.738,9.395C305.032,98.519,309.842,100.868,315.77,103.104z
	 M321.027,117.645v23.601c6.04-1.118,9.843-4.698,9.843-11.073C330.87,123.126,326.508,119.994,321.027,117.645z"/>
<g>
</g>
<g>
</g>
<g>
</g>
<g>
</g>
<g>
</g>
<g>
</g>
<g>
</g>
<g>
</g>
<g>
</g>
<g>
</g>
<g>
</g>
<g>
</g>
<g>
</g>
<g>
</g>
<g>
</g>
</svg>
