<?xml version="1.0" encoding="iso-8859-1"?>
<!-- Generator: Adobe Illustrator 19.0.0, SVG Export Plug-In . SVG Version: 6.00 Build 0)  -->
<svg version="1.1" id="Capa_1" xmlns="http://www.w3.org/2000/svg" xmlns:xlink="http://www.w3.org/1999/xlink" x="0px" y="0px"
	 viewBox="0 0 512.001 512.001" style="enable-background:new 0 0 512.001 512.001;" xml:space="preserve">
<path style="fill:#FFB125;" d="M123.751,261.069c2.732,0,4.946-2.214,4.946-4.946v-20.555h4.969c2.731,0,4.946-2.214,4.946-4.946
	v-26.798h-88.35v26.798c0,2.731,2.214,4.946,4.946,4.946h4.969v20.555c0,2.731,2.214,4.946,4.946,4.946h8.581v166.683h-8.581
	c-2.731,0-4.946,2.214-4.946,4.946v20.555h-4.969c-2.731,0-4.946,2.214-4.946,4.946v26.798h88.349v-26.798
	c0-2.731-2.214-4.946-4.946-4.946h-4.969v-20.555c0-2.731-2.214-4.946-4.946-4.946h-8.581V261.069H123.751z"/>
<path style="fill:#FF901D;" d="M94.437,484.996h44.175v-26.798c0-2.731-2.214-4.946-4.946-4.946h-4.969v-20.555
	c0-2.731-2.214-4.946-4.946-4.946h-8.581V261.069h8.581c2.732,0,4.946-2.214,4.946-4.946v-20.555h4.969
	c2.731,0,4.946-2.214,4.946-4.946v-26.798H94.437V484.996z"/>
<path style="fill:#FF4C4C;" d="M502.823,156.847L261.605,1.648c-3.414-2.197-7.796-2.197-11.211,0L9.177,156.847
	c-7.956,5.119-4.33,17.454,5.13,17.454h483.386C507.153,174.3,510.779,161.966,502.823,156.847z"/>
<path style="fill:#F33939;" d="M261.605,24.366c-3.414-2.197-7.796-2.197-11.211,0L17.358,174.3h477.283L261.605,24.366z"/>
<g>
	<path style="fill:#FFB125;" d="M249.045,46.404L50.262,174.3h411.476L262.955,46.404C258.719,43.679,253.281,43.679,249.045,46.404
		z"/>
	<path style="fill:#FFB125;" d="M285.314,261.069c2.731,0,4.946-2.214,4.946-4.946v-20.555h4.969c2.731,0,4.946-2.214,4.946-4.946
		v-26.798h-88.349v26.798c0,2.731,2.214,4.946,4.946,4.946h4.969v20.555c0,2.731,2.214,4.946,4.946,4.946h8.581v166.683h-8.581
		c-2.732,0-4.946,2.214-4.946,4.946v20.555h-4.969c-2.731,0-4.946,2.214-4.946,4.946v26.798h88.349v-26.798
		c0-2.731-2.214-4.946-4.946-4.946h-4.969v-20.555c0-2.731-2.214-4.946-4.946-4.946h-8.581V261.069H285.314z"/>
	<path style="fill:#FFB125;" d="M446.878,261.069c2.731,0,4.946-2.214,4.946-4.946v-20.555h4.969c2.732,0,4.946-2.214,4.946-4.946
		v-26.798H373.39v26.798c0,2.731,2.214,4.946,4.946,4.946h4.969v20.555c0,2.731,2.214,4.946,4.946,4.946h8.581v166.683h-8.581
		c-2.731,0-4.946,2.214-4.946,4.946v20.555h-4.969c-2.731,0-4.946,2.214-4.946,4.946v26.798h88.349v-26.798
		c0-2.731-2.214-4.946-4.946-4.946h-4.969v-20.555c0-2.731-2.214-4.946-4.946-4.946h-8.581V261.069H446.878z"/>
</g>
<g>
	<path style="fill:#FF901D;" d="M256,484.996h44.175v-26.798c0-2.731-2.214-4.946-4.946-4.946h-4.969v-20.555
		c0-2.731-2.214-4.946-4.946-4.946h-8.581V261.069h8.581c2.731,0,4.946-2.214,4.946-4.946v-20.555h4.969
		c2.731,0,4.946-2.214,4.946-4.946v-26.798H256V484.996z"/>
	<path style="fill:#FF901D;" d="M417.802,484.996h43.937v-26.798c0-2.731-2.214-4.946-4.946-4.946h-4.969v-20.555
		c0-2.731-2.214-4.946-4.946-4.946h-8.581V261.069h8.581c2.731,0,4.946-2.214,4.946-4.946v-20.555h4.969
		c2.732,0,4.946-2.214,4.946-4.946v-26.798h-43.937V484.996z"/>
</g>
<path style="fill:#FF6D3A;" d="M488.072,512.001H23.928c-8.568,0-15.514-6.946-15.514-15.514l0,0
	c0-8.568,6.946-15.514,15.514-15.514h464.144c8.568,0,15.514,6.946,15.514,15.514l0,0
	C503.586,505.055,496.64,512.001,488.072,512.001z"/>
<path style="fill:#FF4C4C;" d="M488.072,512.001H23.928c-8.568,0-15.514-6.946-15.514-15.514l0,0
	c0-8.568,6.946-15.514,15.514-15.514h464.144c8.568,0,15.514,6.946,15.514,15.514l0,0
	C503.586,505.055,496.64,512.001,488.072,512.001z"/>
<path style="fill:#F33939;" d="M488.072,497.929H23.928c-6.033,0-11.249-3.45-13.815-8.479c-1.079,2.114-1.699,4.5-1.699,7.036l0,0
	c0,8.568,6.946,15.514,15.514,15.514h464.144c8.568,0,15.514-6.946,15.514-15.514l0,0c0-2.536-0.621-4.922-1.699-7.036
	C499.321,494.479,494.104,497.929,488.072,497.929z"/>
<rect x="50.26" y="174.301" style="fill:#FF4C4C;" width="411.48" height="33.548"/>
<rect x="50.26" y="191.071" style="fill:#F33939;" width="411.48" height="16.774"/>
<path style="fill:#FF901D;" d="M256.512,174.3h205.226L262.955,46.404c-1.968-1.266-4.197-1.937-6.443-2.026V174.3z"/>
<path style="fill:#DD7219;" d="M252.477,155.552c-13.87-0.224-23.265-7.718-23.265-13.199c0-2.685,2.349-6.376,5.145-6.376
	c3.691,0,6.711,7.83,18.12,8.724v-26.285c-10.066-3.579-21.252-7.606-21.252-21.923c0-14.093,10.626-19.686,21.252-20.804v-3.244
	c0-1.342,1.342-2.573,3.244-2.573c1.678,0,3.355,1.23,3.355,2.573v3.02c7.606,0.224,18.344,2.573,18.344,8.053
	c0,2.125-1.566,6.375-4.922,6.375c-2.684,0-5.592-3.579-13.422-4.138v22.706c9.731,3.579,20.357,8.501,20.357,23.713
	c0,13.758-8.277,21.364-20.357,23.041v3.803c0,1.342-1.678,2.573-3.355,2.573c-1.902,0-3.244-1.23-3.244-2.573L252.477,155.552
	L252.477,155.552z M253.149,106.337V85.98c-6.264,0.783-10.738,3.579-10.738,9.395C242.411,101.751,247.22,104.1,253.149,106.337z
	 M258.406,120.878v23.601c6.04-1.118,9.843-4.698,9.843-11.073C268.248,126.358,263.886,123.226,258.406,120.878z"/>
<g>
</g>
<g>
</g>
<g>
</g>
<g>
</g>
<g>
</g>
<g>
</g>
<g>
</g>
<g>
</g>
<g>
</g>
<g>
</g>
<g>
</g>
<g>
</g>
<g>
</g>
<g>
</g>
<g>
</g>
</svg>
