<?xml version="1.0" encoding="iso-8859-1"?>
<!-- Generator: Adobe Illustrator 19.0.0, SVG Export Plug-In . SVG Version: 6.00 Build 0)  -->
<svg version="1.1" id="Capa_1" xmlns="http://www.w3.org/2000/svg" xmlns:xlink="http://www.w3.org/1999/xlink" x="0px" y="0px"
	 viewBox="0 0 512 512" style="enable-background:new 0 0 512 512;" xml:space="preserve">
<path style="fill:#61AFF6;" d="M497.275,475.389H14.725C6.593,475.389,0,468.796,0,460.664V21.263C0,13.13,6.593,6.538,14.725,6.538
	h482.55c8.132,0,14.725,6.593,14.725,14.725v439.401C512,468.796,505.407,475.389,497.275,475.389z"/>
<path style="fill:#55A2F0;" d="M497.275,6.538H466v438.876c0,8.132-6.593,14.725-14.725,14.725H0v0.525
	c0,8.132,6.593,14.725,14.725,14.725h482.55c8.133,0,14.725-6.593,14.725-14.725V21.263C512,13.13,505.407,6.538,497.275,6.538z"/>
<path style="fill:#E6E6E6;" d="M41.767,314.997L41.767,314.997c0,7.278,5.9,13.177,13.177,13.177h212.52
	c7.278,0,13.177-5.9,13.177-13.177l0,0c0-7.278-5.9-13.177-13.177-13.177H54.944C47.667,301.819,41.767,307.719,41.767,314.997z"/>
<g>
	<path style="fill:#FFB125;" d="M379.518,354.529h-38.544c-3.912,0-7.083-3.171-7.083-7.083v-38.544
		c0-3.912,3.171-7.083,7.083-7.083h38.544c3.912,0,7.083,3.171,7.083,7.083v38.544C386.601,351.358,383.43,354.529,379.518,354.529z
		"/>
	<path style="fill:#FFB125;" d="M463.15,354.529h-38.544c-3.912,0-7.083-3.171-7.083-7.083v-38.544c0-3.912,3.171-7.083,7.083-7.083
		h38.544c3.912,0,7.083,3.171,7.083,7.083v38.544C470.233,351.358,467.062,354.529,463.15,354.529z"/>
	<path style="fill:#FFB125;" d="M379.518,436.391h-38.544c-3.912,0-7.083-3.171-7.083-7.083v-38.544
		c0-3.912,3.171-7.083,7.083-7.083h38.544c3.912,0,7.083,3.171,7.083,7.083v38.544C386.601,433.22,383.43,436.391,379.518,436.391z"
		/>
	<path style="fill:#FFB125;" d="M463.15,436.391h-38.544c-3.912,0-7.083-3.171-7.083-7.083v-38.544c0-3.912,3.171-7.083,7.083-7.083
		h38.544c3.912,0,7.083,3.171,7.083,7.083v38.544C470.233,433.22,467.062,436.391,463.15,436.391z"/>
</g>
<path style="fill:#F2F2F2;" d="M456.139,246.163H55.861c-7.784,0-14.094-6.31-14.094-14.094V63.046
	c0-7.784,6.31-14.094,14.094-14.094h400.278c7.784,0,14.094,6.31,14.094,14.094v169.023
	C470.233,239.853,463.923,246.163,456.139,246.163z"/>
<g>
	<path style="fill:#FF6D3A;" d="M118.366,183.116c0-0.355,0.118-0.829,0.236-1.302l22.013-72.192
		c1.302-4.142,6.627-6.154,12.071-6.154s10.77,2.012,12.071,6.154l22.131,72.192c0.119,0.473,0.237,0.947,0.237,1.302
		c0,4.379-6.746,7.574-11.835,7.574c-2.959,0-5.326-0.947-6.036-3.432l-4.023-14.793H140.26l-4.023,14.793
		c-0.71,2.485-3.077,3.432-6.035,3.432C125.111,190.69,118.366,187.495,118.366,183.116z M161.326,158.263l-8.64-31.717
		l-8.64,31.717H161.326z"/>
	<path style="fill:#FF6D3A;" d="M273.516,104.178c3.906,0,5.563,4.26,5.563,8.166c0,4.497-2.012,8.402-5.563,8.402h-16.332v64.263
		c0,3.787-4.615,5.681-9.23,5.681s-9.231-1.894-9.231-5.681v-64.263H222.39c-3.55,0-5.562-3.905-5.562-8.402
		c0-3.906,1.656-8.166,5.562-8.166H273.516z"/>
	<path style="fill:#FF6D3A;" d="M363.811,160.038c-1.538,2.604-3.905,3.432-6.154,3.432c-2.13,0-4.379-0.71-5.799-3.432
		l-11.243-20.592v45.563c0,3.787-4.615,5.681-9.23,5.681c-4.616,0-9.231-1.894-9.231-5.681v-71.6c0-6.746,4.615-9.231,9.231-9.231
		c6.627,0,9.468,0.71,14.319,9.231l12.19,21.303l12.189-21.303c4.853-8.521,7.692-9.231,14.32-9.231c4.733,0,9.23,2.485,9.23,9.231
		v71.6c0,3.787-4.615,5.681-9.23,5.681c-4.616,0-9.231-1.894-9.231-5.681v-44.38L363.811,160.038z"/>
	<path style="fill:#FF6D3A;" d="M257.953,505.462H69.034c-6.39,0-11.066-4.717-10.45-10.475l20.673-193.168h168.472l20.673,193.168
		C269.018,500.745,264.343,505.462,257.953,505.462z"/>
</g>
<path style="fill:#F33939;" d="M268.402,494.987l-20.673-193.168h-46.335l20.673,193.168c0.616,5.758-4.059,10.475-10.45,10.475
	h46.335C264.343,505.462,269.019,500.745,268.402,494.987z"/>
<polygon style="fill:#775146;" points="187.911,505.462 227.124,505.462 210.986,301.819 177.558,301.819 "/>
<path style="fill:#E6E6E6;" d="M456.136,48.951h-32.449c0,0.032,0.005,0.063,0.005,0.094v169.023c0,7.784-6.31,14.094-14.094,14.094
	H41.769c0.051,7.74,6.337,14,14.09,14h400.278c7.784,0,14.094-6.31,14.094-14.094V63.045
	C470.231,55.261,463.92,48.951,456.136,48.951z"/>
<g>
</g>
<g>
</g>
<g>
</g>
<g>
</g>
<g>
</g>
<g>
</g>
<g>
</g>
<g>
</g>
<g>
</g>
<g>
</g>
<g>
</g>
<g>
</g>
<g>
</g>
<g>
</g>
<g>
</g>
</svg>
