<?xml version="1.0" encoding="iso-8859-1"?>
<!-- Generator: Adobe Illustrator 19.0.0, SVG Export Plug-In . SVG Version: 6.00 Build 0)  -->
<svg version="1.1" id="Capa_1" xmlns="http://www.w3.org/2000/svg" xmlns:xlink="http://www.w3.org/1999/xlink" x="0px" y="0px"
	 viewBox="0 0 512 512" style="enable-background:new 0 0 512 512;" xml:space="preserve">
<path style="fill:#FF4C4C;" d="M330.842,129.599c-10.398-9.106-12.322-24.539-4.462-35.909c21.8-31.536,57.755-89.469,30.714-93.46
	C338.452-2.521,297.226,20.305,256,20.305S173.548-2.522,154.905,0.23c-27.04,3.991,8.914,61.924,30.714,93.46
	c7.86,11.37,5.937,26.803-4.462,35.909C136.115,169.045,27.256,276.352,39.262,382.917C54.355,516.891,256,511.977,256,511.977
	s201.645,4.914,216.738-129.06C484.744,276.352,375.885,169.045,330.842,129.599z"/>
<path style="fill:#F33939;" d="M330.842,129.599c-10.399-9.106-12.322-24.539-4.462-35.909c21.8-31.536,57.755-89.469,30.714-93.46
	c-3.443-0.508-7.66-0.14-12.5,0.792c-9.428,24.112-49.343,69.526-65.341,92.668c-7.86,11.37-5.937,26.803,4.462,35.909
	c45.044,39.446,153.902,146.753,141.897,253.318c-11.888,105.525-139.51,124.884-193.175,128.347
	c14.468,0.934,23.564,0.713,23.564,0.713s201.645,4.914,216.738-129.06C484.744,276.352,375.885,169.045,330.842,129.599z"/>
<g>
	<circle style="fill:#FFB125;" cx="256" cy="319.76" r="114.78"/>
	<path style="fill:#FFB125;" d="M336.746,134.402H175.254c-8.802,0-15.938-7.135-15.938-15.938l0,0
		c0-8.802,7.135-15.938,15.938-15.938h161.492c8.802,0,15.938,7.135,15.938,15.938l0,0
		C352.684,127.267,345.548,134.402,336.746,134.402z"/>
</g>
<g>
	<path style="fill:#FF901D;" d="M336.746,120.364H175.254c-6.28,0-11.695-3.641-14.292-8.919c-1.043,2.12-1.645,4.497-1.645,7.019
		c0,8.802,7.135,15.938,15.938,15.938h161.492c8.802,0,15.938-7.135,15.938-15.938c0-2.522-0.602-4.899-1.645-7.019
		C348.441,116.723,343.026,120.364,336.746,120.364z"/>
	<path style="fill:#FF901D;" d="M337.161,400.925c44.824-44.824,44.824-117.498,0-162.322L174.839,400.925
		C219.663,445.749,292.337,445.749,337.161,400.925z"/>
</g>
<path style="fill:#DD7219;" d="M253.028,387.638c-22.335-0.361-37.464-12.429-37.464-21.254c0-4.323,3.782-10.267,8.285-10.267
	c5.944,0,10.807,12.609,29.179,14.049v-42.328c-16.21-5.764-34.222-12.248-34.222-35.303c0-22.695,17.111-31.701,34.222-33.502
	v-5.223c0-2.162,2.162-4.143,5.224-4.143c2.702,0,5.403,1.981,5.403,4.143v4.863c12.248,0.36,29.539,4.143,29.539,12.969
	c0,3.422-2.522,10.267-7.925,10.267c-4.323,0-9.005-5.764-21.614-6.664v36.564c15.67,5.764,32.782,13.689,32.782,38.185
	c0,22.155-13.329,34.403-32.782,37.104v6.124c0,2.162-2.702,4.143-5.403,4.143c-3.062,0-5.224-1.981-5.224-4.143L253.028,387.638
	L253.028,387.638z M254.109,308.385v-32.781c-10.087,1.261-17.291,5.763-17.291,15.13C236.817,301,244.562,304.783,254.109,308.385z
	 M262.574,331.801v38.005c9.726-1.801,15.85-7.565,15.85-17.832C278.425,340.626,271.4,335.583,262.574,331.801z"/>
<g>
</g>
<g>
</g>
<g>
</g>
<g>
</g>
<g>
</g>
<g>
</g>
<g>
</g>
<g>
</g>
<g>
</g>
<g>
</g>
<g>
</g>
<g>
</g>
<g>
</g>
<g>
</g>
<g>
</g>
</svg>
