<?xml version="1.0" encoding="iso-8859-1"?>
<!-- Generator: Adobe Illustrator 19.0.0, SVG Export Plug-In . SVG Version: 6.00 Build 0)  -->
<svg version="1.1" id="Capa_1" xmlns="http://www.w3.org/2000/svg" xmlns:xlink="http://www.w3.org/1999/xlink" x="0px" y="0px"
	 viewBox="0 0 512 512" style="enable-background:new 0 0 512 512;" xml:space="preserve">
<path style="fill:#FF4C4C;" d="M453.692,317.356L76.454,413.549c-8.905,2.271-17.964-3.107-20.235-12.012L0.52,183.104
	c-2.271-8.905,3.107-17.964,12.012-20.235L389.77,66.675c8.905-2.271,17.964,3.107,20.235,12.012l55.699,218.433
	C467.975,306.026,462.597,315.085,453.692,317.356z"/>
<path style="fill:#F33939;" d="M465.704,297.121L410.005,78.687c-2.271-8.905-11.33-14.283-20.235-12.012L359.086,74.5
	c0.74,1.285,1.332,2.681,1.716,4.188l55.699,218.433c2.271,8.905-3.107,17.964-12.012,20.235L57.936,405.725
	c3.63,6.308,11.121,9.711,18.519,7.824l377.238-96.194C462.597,315.085,467.975,306.026,465.704,297.121z"/>
<rect x="6.218" y="148.636" transform="matrix(0.969 -0.2471 0.2471 0.969 -37.4734 59.2967)" style="fill:#2C5871;" width="422.594" height="60.631"/>
<polygon style="fill:#234C60;" points="368.57,109.151 383.55,167.899 429.749,156.119 416.747,105.127 414.769,97.37 "/>
<path style="fill:#FF6D3A;" d="M495.361,445.845H106.052c-9.19,0-16.639-7.45-16.639-16.639V203.782
	c0-9.19,7.45-16.639,16.639-16.639h389.309c9.19,0,16.639,7.45,16.639,16.639v225.423C512,438.395,504.55,445.845,495.361,445.845z"
	/>
<path style="fill:#ED5729;" d="M495.361,187.143h-31.023c0.208,1.052,0.322,2.138,0.322,3.251v225.423
	c0,9.19-7.45,16.639-16.639,16.639H89.735c1.513,7.633,8.24,13.389,16.317,13.389h389.309c9.19,0,16.639-7.45,16.639-16.64V203.782
	C512,194.592,504.55,187.143,495.361,187.143z"/>
<circle style="fill:#21D8DE;" cx="336.79" cy="282.16" r="42.05"/>
<circle style="fill:#61AFF6;" cx="394.79" cy="282.16" r="42.05"/>
<path style="fill:#CCCCCC;" d="M181.953,319.315h-33.03c-11.398,0-20.638-9.24-20.638-20.638v-33.03
	c0-11.398,9.24-20.638,20.638-20.638h33.03c11.398,0,20.638,9.24,20.638,20.638v33.03
	C202.591,310.075,193.351,319.315,181.953,319.315z"/>
<g>
	<path style="fill:#FEE570;" d="M128.285,380.073h164.097c4.159,0,7.531-3.372,7.531-7.531s-3.372-7.531-7.531-7.531H128.285
		c-4.159,0-7.531,3.372-7.531,7.531C120.754,376.702,124.126,380.073,128.285,380.073z"/>
	<path style="fill:#FEE570;" d="M471.48,398.148H128.285c-4.159,0-7.531,3.372-7.531,7.531s3.372,7.531,7.531,7.531H471.48
		c4.159,0,7.531-3.372,7.531-7.531S475.639,398.148,471.48,398.148z"/>
</g>
<g>
	<path style="fill:#F2F2F2;" d="M178.994,264.619c-4.159,0-7.531,3.372-7.531,7.531s3.372,7.531,7.531,7.531h23.597l0,0v-14.034
		c0-0.347-0.035-0.685-0.052-1.028H178.994z"/>
	<path style="fill:#F2F2F2;" d="M151.882,279.681c4.159,0,7.531-3.372,7.531-7.531s-3.372-7.531-7.531-7.531h-23.545
		c-0.017,0.343-0.052,0.681-0.052,1.028v14.034H151.882z"/>
	<path style="fill:#F2F2F2;" d="M151.882,286.208h-23.597v12.469c0,0.88,0.073,1.742,0.18,2.593h23.417
		c4.159,0,7.531-3.372,7.531-7.531S156.042,286.208,151.882,286.208z"/>
	<path style="fill:#F2F2F2;" d="M178.994,286.208c-4.159,0-7.531,3.372-7.531,7.531s3.372,7.531,7.531,7.531h23.417
		c0.107-0.851,0.18-1.713,0.18-2.593v-12.469l0,0L178.994,286.208L178.994,286.208z"/>
</g>
<g>
</g>
<g>
</g>
<g>
</g>
<g>
</g>
<g>
</g>
<g>
</g>
<g>
</g>
<g>
</g>
<g>
</g>
<g>
</g>
<g>
</g>
<g>
</g>
<g>
</g>
<g>
</g>
<g>
</g>
</svg>
