<?xml version="1.0" encoding="iso-8859-1"?>
<!-- Generator: Adobe Illustrator 19.0.0, SVG Export Plug-In . SVG Version: 6.00 Build 0)  -->
<svg version="1.1" id="Capa_1" xmlns="http://www.w3.org/2000/svg" xmlns:xlink="http://www.w3.org/1999/xlink" x="0px" y="0px"
	 viewBox="0 0 512 512" style="enable-background:new 0 0 512 512;" xml:space="preserve">
<path style="fill:#FF4C4C;" d="M455.155,385.651H18.656C8.353,385.651,0,377.299,0,366.995V114.247
	c0-10.304,8.353-18.656,18.656-18.656h436.499c10.304,0,18.656,8.353,18.656,18.656v252.748
	C473.812,377.299,465.459,385.651,455.155,385.651z"/>
<path style="fill:#F33939;" d="M455.155,95.591h-47.253c10.304,0,18.656,8.353,18.656,18.656v252.748
	c0,10.304-8.353,18.656-18.656,18.656h47.253c10.304,0,18.656-8.353,18.656-18.656V114.247
	C473.812,103.944,465.459,95.591,455.155,95.591z"/>
<rect y="138.899" style="fill:#2C5871;" width="473.81" height="62.29"/>
<rect x="426.56" y="138.899" style="fill:#234C60;" width="47.25" height="62.29"/>
<g>
	<circle style="fill:#FFB125;" cx="431.75" cy="336.159" r="80.25"/>
	<circle style="fill:#FFB125;" cx="431.75" cy="336.159" r="80.25"/>
</g>
<g>
	<path style="fill:#FEE570;" d="M45.446,282.254h125.467c4.152,0,7.517-3.366,7.517-7.517c0-4.152-3.366-7.517-7.517-7.517H45.446
		c-4.152,0-7.517,3.366-7.517,7.517C37.929,278.889,41.294,282.254,45.446,282.254z"/>
	<path style="fill:#FEE570;" d="M268.304,317.582H45.446c-4.152,0-7.517,3.366-7.517,7.517s3.366,7.517,7.517,7.517h222.858
		c4.152,0,7.517-3.366,7.517-7.517S272.455,317.582,268.304,317.582z"/>
</g>
<path style="fill:#FF901D;" d="M488.497,392.903c31.338-31.338,31.338-82.147,0-113.485L375.012,392.903
	C406.35,424.241,457.159,424.241,488.497,392.903z"/>
<path style="fill:#DD7219;" d="M467.903,323.077h-8.964v-10.826c0-14.99-12.195-27.186-27.186-27.186
	c-14.99,0-27.186,12.195-27.186,27.186v10.826h-8.963c-1.624,0-2.941,1.316-2.941,2.941v45.067c0,1.624,1.316,2.941,2.941,2.941
	h72.299c1.624,0,2.941-1.317,2.941-2.941v-45.067C470.844,324.394,469.527,323.077,467.903,323.077z M436.302,349.95v9.919
	c0,2.133-1.729,3.861-3.861,3.861h-2.242c-2.133,0-3.861-1.729-3.861-3.861v-9.919c-2.073-1.531-3.423-3.984-3.423-6.758
	c0-4.642,3.763-8.405,8.405-8.405s8.405,3.763,8.405,8.405C439.725,345.966,438.375,348.419,436.302,349.95z M447.614,323.077
	h-31.72v-10.826c0-8.745,7.115-15.86,15.86-15.86s15.86,7.115,15.86,15.86L447.614,323.077L447.614,323.077z"/>
<g>
</g>
<g>
</g>
<g>
</g>
<g>
</g>
<g>
</g>
<g>
</g>
<g>
</g>
<g>
</g>
<g>
</g>
<g>
</g>
<g>
</g>
<g>
</g>
<g>
</g>
<g>
</g>
<g>
</g>
</svg>
