<?xml version="1.0" encoding="iso-8859-1"?>
<!-- Generator: Adobe Illustrator 19.0.0, SVG Export Plug-In . SVG Version: 6.00 Build 0)  -->
<svg version="1.1" id="Capa_1" xmlns="http://www.w3.org/2000/svg" xmlns:xlink="http://www.w3.org/1999/xlink" x="0px" y="0px"
	 viewBox="0 0 512 512" style="enable-background:new 0 0 512 512;" xml:space="preserve">
<path style="fill:#B6FA4C;" d="M434.682,321.142H18.911C8.467,321.142,0,312.675,0,302.231V94.133
	c0-10.444,8.467-18.911,18.911-18.911h415.771c10.444,0,18.911,8.467,18.911,18.911v208.098
	C453.593,312.675,445.126,321.142,434.682,321.142z"/>
<path style="fill:#A8E83A;" d="M434.682,75.222h-47.477c10.444,0,18.911,8.467,18.911,18.911v208.098
	c0,10.444-8.467,18.911-18.911,18.911h47.477c10.444,0,18.911-8.467,18.911-18.911V94.133
	C453.593,83.689,445.126,75.222,434.682,75.222z"/>
<path style="fill:#77DD00;" d="M392.091,96.569H61.502c-2.571,0-4.919,1.511-5.933,3.874c-5.873,13.697-16.786,24.716-30.413,30.719
	c-2.33,1.026-3.81,3.359-3.81,5.905v122.231c0,2.546,1.48,4.878,3.81,5.905c13.627,6.002,24.54,17.022,30.413,30.719
	c1.013,2.363,3.361,3.874,5.933,3.874H392.09c2.571,0,4.919-1.511,5.933-3.874c5.873-13.697,16.786-24.716,30.413-30.719
	c2.33-1.026,3.81-3.359,3.81-5.905V137.066c0-2.546-1.48-4.878-3.81-5.905c-13.627-6.002-24.54-17.022-30.413-30.719
	C397.01,98.08,394.662,96.569,392.091,96.569z"/>
<path style="fill:#73CC00;" d="M428.436,131.162c-13.627-6.002-24.54-17.022-30.413-30.719c-1.013-2.363-3.361-3.874-5.932-3.874
	h-37.382c6.235,10.84,15.806,19.516,27.332,24.593c2.33,1.026,3.81,3.359,3.81,5.905v122.231c0,2.546-1.48,4.878-3.81,5.905
	c-13.627,6.002-24.54,17.022-30.413,30.719c-1.013,2.363-3.361,3.874-5.933,3.874H52.489c1.136,1.976,2.175,4.015,3.081,6.126
	c1.013,2.363,3.361,3.874,5.932,3.874h330.589c2.571,0,4.919-1.511,5.932-3.874c5.873-13.697,16.786-24.716,30.413-30.719
	c2.33-1.026,3.81-3.359,3.81-5.905V137.067C432.246,134.52,430.766,132.188,428.436,131.162z"/>
<circle style="fill:#B6FA4C;" cx="226.8" cy="198.18" r="76.79"/>
<path style="fill:#73CC00;" d="M224.577,246.07c-16.68-0.269-27.979-9.282-27.979-15.873c0-3.229,2.825-7.668,6.188-7.668
	c4.439,0,8.071,9.416,21.791,10.492V201.41c-12.106-4.305-25.558-9.147-25.558-26.365c0-16.949,12.779-23.675,25.558-25.02v-3.901
	c0-1.614,1.614-3.094,3.901-3.094c2.018,0,4.035,1.48,4.035,3.094v3.632c9.147,0.269,22.061,3.094,22.061,9.685
	c0,2.556-1.883,7.667-5.919,7.667c-3.228,0-6.725-4.305-16.142-4.977v27.307c11.703,4.305,24.482,10.223,24.482,28.518
	c0,16.546-9.954,25.693-24.482,27.71v4.573c0,1.614-2.018,3.094-4.035,3.094c-2.287,0-3.901-1.48-3.901-3.094V246.07z
	 M225.384,186.882V162.4c-7.533,0.941-12.914,4.304-12.914,11.299C212.471,181.367,218.255,184.192,225.384,186.882z
	 M231.706,204.37v28.383c7.264-1.345,11.837-5.65,11.837-13.317C243.544,210.961,238.298,207.194,231.706,204.37z"/>
<path style="fill:#B6FA4C;" d="M493.089,436.778H77.318c-10.444,0-18.911-8.467-18.911-18.911V209.769
	c0-10.444,8.467-18.911,18.911-18.911h415.771c10.444,0,18.911,8.467,18.911,18.911v208.098
	C512,428.311,503.533,436.778,493.089,436.778z"/>
<path style="fill:#A8E83A;" d="M493.089,190.858h-28.78l0,0h-18.698c10.444,0,18.911,8.467,18.911,18.911v202.426
	c-2.606,7.327-9.582,12.583-17.802,12.583H59.728c2.762,7.022,9.587,12,17.589,12h368.295h-0.001h47.477
	c8.311,0,15.353-5.369,17.89-12.822c0.15-0.441,0.279-0.891,0.397-1.346c0.393-1.518,0.624-3.102,0.624-4.743l0,0V209.769l0,0
	C512,199.325,503.533,190.858,493.089,190.858z"/>
<path style="fill:#77DD00;" d="M450.498,212.205H119.909c-2.571,0-4.919,1.511-5.933,3.874
	c-5.873,13.697-16.786,24.716-30.413,30.719c-2.33,1.026-3.81,3.359-3.81,5.905v122.231c0,2.546,1.48,4.878,3.81,5.905
	c13.627,6.002,24.54,17.022,30.413,30.719c1.013,2.363,3.361,3.874,5.933,3.874h330.588c2.571,0,4.919-1.511,5.933-3.874
	c5.873-13.697,16.786-24.716,30.413-30.719c2.33-1.026,3.81-3.359,3.81-5.905V252.703c0-2.546-1.48-4.878-3.81-5.905
	c-13.627-6.002-24.54-17.022-30.413-30.719C455.417,213.716,453.069,212.205,450.498,212.205z"/>
<path style="fill:#73CC00;" d="M486.843,246.798c-13.627-6.002-24.54-17.022-30.413-30.719c-1.013-2.363-3.361-3.874-5.933-3.874
	h-37.002c6.242,10.376,15.583,18.672,26.755,23.593c2.33,1.026,3.81,3.359,3.81,5.905v122.231c0,2.546-1.48,4.878-3.81,5.905
	c-13.627,6.002-24.54,17.022-30.413,30.719c-1.013,2.363-3.361,3.874-5.932,3.874H110.319c1.372,2.281,2.599,4.658,3.658,7.126
	c1.013,2.363,3.361,3.874,5.932,3.874h330.589c2.571,0,4.919-1.511,5.933-3.874c5.873-13.697,16.786-24.716,30.413-30.719
	c2.33-1.026,3.81-3.359,3.81-5.905V252.703C490.653,250.156,489.173,247.824,486.843,246.798z"/>
<circle style="fill:#B6FA4C;" cx="285.2" cy="313.82" r="76.79"/>
<path style="fill:#73CC00;" d="M281.143,361.706c-16.68-0.269-27.979-9.282-27.979-15.873c0-3.229,2.825-7.668,6.188-7.668
	c4.439,0,8.071,9.416,21.791,10.492v-31.611c-12.106-4.305-25.558-9.147-25.558-26.365c0-16.949,12.779-23.675,25.558-25.02v-3.901
	c0-1.614,1.614-3.094,3.901-3.094c2.018,0,4.035,1.48,4.035,3.094v3.632c9.147,0.269,22.061,3.094,22.061,9.685
	c0,2.556-1.883,7.667-5.919,7.667c-3.228,0-6.725-4.305-16.142-4.977v27.307c11.703,4.305,24.482,10.223,24.482,28.518
	c0,16.546-9.954,25.693-24.482,27.71v4.573c0,1.614-2.018,3.094-4.035,3.094c-2.287,0-3.901-1.48-3.901-3.094V361.706z
	 M281.95,302.519v-24.482c-7.533,0.941-12.914,4.304-12.914,11.299C269.037,297.004,274.821,299.829,281.95,302.519z
	 M288.272,320.006v28.383c7.264-1.345,11.837-5.65,11.837-13.317C300.11,326.597,294.864,322.831,288.272,320.006z"/>
<g>
</g>
<g>
</g>
<g>
</g>
<g>
</g>
<g>
</g>
<g>
</g>
<g>
</g>
<g>
</g>
<g>
</g>
<g>
</g>
<g>
</g>
<g>
</g>
<g>
</g>
<g>
</g>
<g>
</g>
</svg>
