<?xml version="1.0" encoding="iso-8859-1"?>
<!-- Generator: Adobe Illustrator 19.0.0, SVG Export Plug-In . SVG Version: 6.00 Build 0)  -->
<svg version="1.1" id="Capa_1" xmlns="http://www.w3.org/2000/svg" xmlns:xlink="http://www.w3.org/1999/xlink" x="0px" y="0px"
	 viewBox="0 0 512 512" style="enable-background:new 0 0 512 512;" xml:space="preserve">
<path style="fill:#775146;" d="M499.293,305.036c-1.605,0-3.125-0.957-3.767-2.535l-55.529-136.7l-55.529,136.7
	c-0.845,2.08-3.216,3.08-5.295,2.236c-2.08-0.845-3.08-3.215-2.236-5.295l59.294-145.969c0.623-1.532,2.111-2.535,3.765-2.535
	s3.143,1.002,3.765,2.535l59.294,145.969c0.844,2.08-0.156,4.45-2.236,5.295C500.32,304.94,499.802,305.036,499.293,305.036z"/>
<path style="fill:#FEA921;" d="M442.949,368.155h-5.903c-33.883,0-61.351-27.468-61.351-61.351v-6.605
	c0-0.485,0.393-0.879,0.879-0.879h126.849c0.485,0,0.879,0.393,0.879,0.879v6.605C504.3,340.687,476.832,368.155,442.949,368.155z"
	/>
<path style="fill:#FF901D;" d="M503.421,299.32h-47.412c0.485,0,0.879,0.393,0.879,0.879v6.605
	c0,26.598-16.929,49.235-40.597,57.744c6.483,2.331,13.469,3.608,20.755,3.608h5.903c33.883,0,61.351-27.468,61.351-61.351V300.2
	C504.3,299.713,503.907,299.32,503.421,299.32z"/>
<path style="fill:#775146;" d="M131.297,305.036c-1.605,0-3.125-0.957-3.767-2.535l-55.529-136.7L16.472,302.5
	c-0.845,2.08-3.216,3.08-5.295,2.236c-2.08-0.845-3.08-3.215-2.236-5.295l59.294-145.969c0.623-1.532,2.111-2.535,3.765-2.535
	s3.143,1.002,3.765,2.535l59.295,145.969c0.844,2.08-0.156,4.45-2.236,5.295C132.324,304.94,131.806,305.036,131.297,305.036z"/>
<path style="fill:#FEA921;" d="M74.953,368.155h-5.904c-33.883,0-61.351-27.468-61.351-61.351v-6.605
	c0-0.485,0.393-0.879,0.879-0.879h126.849c0.485,0,0.879,0.393,0.879,0.879v6.605C136.304,340.687,108.836,368.155,74.953,368.155z"
	/>
<path style="fill:#FF901D;" d="M135.425,299.32h-47.76c0.485,0,0.879,0.393,0.879,0.879v6.605c0,26.533-16.845,49.129-40.423,57.685
	c6.532,2.37,13.578,3.666,20.928,3.666h5.903c33.883,0,61.351-27.468,61.351-61.351v-6.605
	C136.304,299.713,135.911,299.32,135.425,299.32z"/>
<rect x="238.859" y="55.58" style="fill:#61AFF6;" width="34.27" height="394.23"/>
<rect x="255.999" y="55.58" style="fill:#55A2F0;" width="17.14" height="394.23"/>
<path style="fill:#775146;" d="M374.863,484.651H137.135v-34.185c0-8.651,7.013-15.664,15.664-15.664h206.398
	c8.651,0,15.664,7.013,15.664,15.664v34.185H374.863z"/>
<circle style="fill:#61AFF6;" cx="255.999" cy="31.15" r="31.15"/>
<path style="fill:#55A2F0;" d="M270.086,3.37c2.15,4.231,3.369,9.015,3.369,14.086c0,17.206-13.948,31.153-31.153,31.153
	c-5.071,0-9.855-1.22-14.087-3.369c5.144,10.125,15.65,17.066,27.784,17.066c17.205,0,31.153-13.948,31.153-31.153
	C287.152,19.019,280.21,8.513,270.086,3.37z"/>
<path style="fill:#61AFF6;" d="M425.476,157.034c-23.439,0-45.314-9.313-61.594-26.225c-9.142-9.497-21.818-14.943-34.778-14.943
	H185.91c-15.389,0-29.675,6.194-40.227,17.441c-14.147,15.079-34.664,23.727-56.288,23.727h-72.77c-3.357,0-6.078-2.721-6.078-6.078
	v-18.179c0-3.357,2.721-6.078,6.078-6.078h69.899c15.389,0,29.675-6.194,40.227-17.441c14.148-15.079,34.667-23.727,56.293-23.727
	h145.912c21.625,0,42.143,8.648,56.292,23.727c10.553,11.247,24.84,17.441,40.228,17.441h69.897c3.357,0,6.078,2.721,6.078,6.078
	v18.179c0,3.357-2.721,6.078-6.078,6.078H425.476z"/>
<path style="fill:#55A2F0;" d="M495.373,144.165h-69.897c-23.439,0-45.314-9.313-61.594-26.224
	c-9.142-9.497-21.817-14.943-34.778-14.943H185.91c-15.389,0-29.675,6.194-40.227,17.441
	c-14.147,15.079-34.664,23.727-56.288,23.727h-72.77c-3.357,0-6.078-2.721-6.078-6.078v12.869c0,3.357,2.721,6.078,6.078,6.078
	h72.77c21.624,0,42.141-8.648,56.288-23.727c10.552-11.247,24.838-17.441,40.227-17.441h143.193c12.96,0,25.636,5.447,34.778,14.943
	c16.28,16.911,38.155,26.224,61.594,26.224h69.897c3.357,0,6.078-2.721,6.078-6.078v-12.869
	C501.451,141.444,498.73,144.165,495.373,144.165z"/>
<path style="fill:#664239;" d="M359.198,434.802h-31.403l-0.018,11.161c-0.015,9.652-7.845,17.469-17.497,17.469H137.135v21.219
	h237.727v-34.185C374.863,441.815,367.849,434.802,359.198,434.802z"/>
<path style="fill:#775146;" d="M411.842,512H100.156v-24.285c0-8.872,7.192-16.063,16.063-16.063h279.56
	c8.872,0,16.063,7.192,16.063,16.063V512z"/>
<path style="fill:#664239;" d="M411.788,502.593l0.025-15.464c-0.311-8.598-7.36-15.478-16.034-15.478h-31.841l-0.024,14.947
	c-0.014,8.838-7.182,15.994-16.02,15.994H100.156V512h311.617h0.069L411.788,502.593z"/>
<g>
</g>
<g>
</g>
<g>
</g>
<g>
</g>
<g>
</g>
<g>
</g>
<g>
</g>
<g>
</g>
<g>
</g>
<g>
</g>
<g>
</g>
<g>
</g>
<g>
</g>
<g>
</g>
<g>
</g>
</svg>
