<?xml version="1.0" encoding="iso-8859-1"?>
<!-- Generator: Adobe Illustrator 19.0.0, SVG Export Plug-In . SVG Version: 6.00 Build 0)  -->
<svg version="1.1" id="Capa_1" xmlns="http://www.w3.org/2000/svg" xmlns:xlink="http://www.w3.org/1999/xlink" x="0px" y="0px"
	 viewBox="0 0 512 512" style="enable-background:new 0 0 512 512;" xml:space="preserve">
<path style="fill:#FF4C4C;" d="M255.719,477.447c-59.151,0-114.761-23.035-156.587-64.86C57.307,370.761,34.272,315.151,34.272,256
	s23.035-114.761,64.86-156.587c41.826-41.826,97.436-64.86,156.587-64.86c59.15,0,114.761,23.035,156.587,64.86
	c41.826,41.826,64.861,97.437,64.861,156.587s-23.035,114.761-64.861,156.587S314.87,477.447,255.719,477.447z"/>
<path style="fill:#F33939;" d="M412.306,99.413c-41.826-41.826-97.437-64.86-156.587-64.86c-7.777,0-15.491,0.409-23.123,1.196
	c50.411,5.197,97.137,27.338,133.464,63.664c41.826,41.826,64.861,97.437,64.861,156.587s-23.035,114.761-64.861,156.587
	c-36.327,36.326-83.053,58.467-133.464,63.664c7.632,0.787,15.346,1.196,23.123,1.196c59.15,0,114.761-23.035,156.587-64.86
	c41.826-41.826,64.861-97.436,64.861-156.587S454.132,141.239,412.306,99.413z"/>
<circle style="fill:#61AFF6;" cx="255.72" cy="256" r="169.77"/>
<path style="fill:#55A2F0;" d="M255.72,86.234c-7.467,0-14.821,0.487-22.034,1.422C317.035,98.458,381.418,169.708,381.418,256
	s-64.383,157.542-147.732,168.344c7.213,0.935,14.566,1.422,22.034,1.422c93.759,0,169.766-76.007,169.766-169.766
	S349.479,86.234,255.72,86.234z"/>
<g>
	<path style="fill:#775146;" d="M255.86,149.192c-4.026,0-7.291-3.264-7.291-7.291V7.291c0-4.026,3.264-7.291,7.291-7.291
		c4.027,0,7.29,3.264,7.29,7.291v134.611C263.15,145.928,259.886,149.192,255.86,149.192z"/>
	<path style="fill:#775146;" d="M255.86,512c-4.026,0-7.291-3.264-7.291-7.291V370.098c0-4.026,3.264-7.29,7.291-7.29
		c4.027,0,7.29,3.264,7.29,7.29v134.611C263.15,508.736,259.886,512,255.86,512z"/>
	<path style="fill:#775146;" d="M141.622,263.291H7.291C3.264,263.291,0,260.026,0,256s3.264-7.291,7.291-7.291h134.331
		c4.026,0,7.291,3.264,7.291,7.291S145.648,263.291,141.622,263.291z"/>
	<path style="fill:#775146;" d="M504.709,263.291H369.818c-4.026,0-7.291-3.264-7.291-7.291s3.264-7.291,7.291-7.291h134.891
		c4.026,0,7.291,3.264,7.291,7.291S508.736,263.291,504.709,263.291z"/>
</g>
<g>
	<circle style="fill:#FFB125;" cx="255.72" cy="256" r="114.1"/>
	<circle style="fill:#FFB125;" cx="255.72" cy="256" r="114.1"/>
</g>
<path style="fill:#FF901D;" d="M336.739,175.669l-161.351,161.35c44.585,44.214,116.568,44.104,161.011-0.34
	S380.953,220.254,336.739,175.669z"/>
<path style="fill:#DD7219;" d="M253.378,312.559c-19.7-0.318-33.045-10.963-33.045-18.747c0-3.813,3.336-9.056,7.308-9.056
	c5.243,0,9.532,11.121,25.737,12.392v-37.335c-14.298-5.084-30.185-10.803-30.185-31.139c0-20.018,15.092-27.961,30.185-29.55
	v-4.607c0-1.907,1.907-3.654,4.608-3.654c2.383,0,4.766,1.747,4.766,3.654v4.29c10.803,0.318,26.055,3.654,26.055,11.439
	c0,3.019-2.224,9.055-6.991,9.055c-3.813,0-7.943-5.084-19.065-5.878v32.251c13.822,5.084,28.915,12.074,28.915,33.681
	c0,19.541-11.756,30.345-28.915,32.728v5.401c0,1.907-2.383,3.654-4.766,3.654c-2.701,0-4.608-1.747-4.608-3.654v-4.925H253.378z
	 M254.332,242.655V213.74c-8.897,1.112-15.252,5.083-15.252,13.345C239.08,236.141,245.912,239.477,254.332,242.655z
	 M261.799,263.308v33.522c8.579-1.589,13.981-6.673,13.981-15.728C275.779,271.093,269.584,266.644,261.799,263.308z"/>
<g>
</g>
<g>
</g>
<g>
</g>
<g>
</g>
<g>
</g>
<g>
</g>
<g>
</g>
<g>
</g>
<g>
</g>
<g>
</g>
<g>
</g>
<g>
</g>
<g>
</g>
<g>
</g>
<g>
</g>
</svg>
