<?xml version="1.0" encoding="iso-8859-1"?>
<!-- Generator: Adobe Illustrator 19.0.0, SVG Export Plug-In . SVG Version: 6.00 Build 0)  -->
<svg version="1.1" id="Capa_1" xmlns="http://www.w3.org/2000/svg" xmlns:xlink="http://www.w3.org/1999/xlink" x="0px" y="0px"
	 viewBox="0 0 512 512" style="enable-background:new 0 0 512 512;" xml:space="preserve">
<circle style="fill:#FEA921;" cx="397.21" cy="163.069" r="114.79"/>
<path style="fill:#FF901D;" d="M478.379,81.898c-28.366-28.366-67.883-38.775-104.44-31.242
	c21.216,4.372,41.436,14.78,57.898,31.242c44.828,44.828,44.828,117.51,0,162.338c-16.462,16.462-36.682,26.871-57.898,31.243
	c36.557,7.532,76.074-2.876,104.44-31.243C523.207,199.408,523.207,126.727,478.379,81.898z"/>
<path style="fill:#DD7219;" d="M395.825,230.421c-23.324-0.376-39.124-12.979-39.124-22.195c0-4.515,3.95-10.722,8.652-10.722
	c6.207,0,11.286,13.167,30.471,14.671v-44.202c-16.928-6.019-35.738-12.791-35.738-36.867c0-23.7,17.869-33.104,35.738-34.986
	v-5.455c0-2.257,2.257-4.326,5.455-4.326c2.821,0,5.643,2.069,5.643,4.326v5.079c12.791,0.376,30.848,4.326,30.848,13.543
	c0,3.574-2.633,10.721-8.276,10.721c-4.514,0-9.404-6.019-22.571-6.959v38.183c16.364,6.019,34.233,14.295,34.233,39.876
	c0,23.136-13.919,35.926-34.233,38.748v6.395c0,2.257-2.821,4.326-5.643,4.326c-3.198,0-5.455-2.069-5.455-4.326L395.825,230.421
	L395.825,230.421z M396.954,147.659v-34.233c-10.534,1.316-18.057,6.019-18.057,15.8
	C378.897,139.947,386.985,143.897,396.954,147.659z M405.794,172.111v39.688c10.157-1.881,16.552-7.9,16.552-18.622
	C422.347,181.328,415.011,176.061,405.794,172.111z"/>
<path style="fill:#FED9A8;" d="M297.043,212.371c-12.469,12.469-26.628,26.631-34.433,34.44c-3.818,3.82-8.995,5.966-14.463,5.966
	h-0.282c-9.022,0-19.589-8.736-21.915-17.453l-0.006-78.929l29.078-23.928l33.065-5.075c0,0,56.078-11.105,72.784-18.945
	c4.189-1.965,13.065-29.574-8.563-31.755c-25.244-2.3-83.264-9.19-98.406-11.004c-10.388-1.244-20.831,1.827-28.892,8.496
	l-73.791,61.047c-10.637,8.8-18.305,20.659-21.979,33.967c-8.229,29.806-23.979,84.114-34.98,105.08l-54.955,54.955l95.143,95.143
	l26.461-26.461c4.973-4.973,11.123-8.608,17.878-10.567l55.264-18.609c17.361-5.956,32.643-16.777,44.027-31.174l27.972-35.376
	l81.768-81.768c9.423-9.423,13.429-20.694,4.007-30.117C376.974,171.866,322.76,186.654,297.043,212.371z"/>
<path style="fill:#F4C892;" d="M391.825,190.307c-2.542-3.157-6.238-5.339-10.746-6.66c-11.389-3.336-23.691,0.219-32.043,8.65
	c-22.145,22.354-76.283,76.597-76.283,76.597l-27.972,35.376c-11.384,14.397-26.667,25.218-44.027,31.174l-55.264,18.609
	c-0.049,0.014-0.098,0.028-0.147,0.043c-9.448,2.778-19.652,0.416-26.616-6.547L69.86,298.682l-30.554,30.554l95.143,95.143
	l26.461-26.461c0.683-0.683,1.391-1.338,2.119-1.967c0.024-0.021,0.05-0.04,0.074-0.061c0.713-0.614,1.445-1.204,2.195-1.77
	c4.038-3.045,8.602-5.352,13.49-6.769l55.264-18.609c17.361-5.956,32.643-16.777,44.027-31.174l27.972-35.376l81.768-81.768
	C397.241,211.001,401.248,199.73,391.825,190.307z"/>
<path style="fill:#F7E7D5;" d="M384.586,217.878c-10.852-10.852-28.447-10.852-39.299,0l-12.346,12.346
	c-5.587,5.587-5.587,14.644,0,20.231l12.423,12.423l42.11-42.11L384.586,217.878z"/>
<path style="fill:#2D5871;" d="M113.18,460.66L3.061,350.541c-4.081-4.081-4.081-10.697,0-14.778l30.399-30.399
	c4.081-4.081,10.697-4.081,14.778,0l110.119,110.119c4.081,4.081,4.081,10.697,0,14.778l-30.399,30.399
	C123.877,464.741,117.261,464.741,113.18,460.66z"/>
<path style="fill:#234C60;" d="M158.358,415.483l-110.12-110.12c-4.081-4.081-10.697-4.081-14.778,0l-22.335,22.335
	c4.081-4.081,10.697-4.081,14.778,0l110.119,110.119c4.081,4.081,4.081,10.697,0,14.778l22.335-22.335
	C162.439,426.18,162.439,419.564,158.358,415.483z"/>
<circle style="fill:#FFFFFF;" cx="116.66" cy="417.809" r="14.843"/>
<path style="fill:#FEA921;" d="M288.081,127.394l0.007-0.001c0,0,56.078-11.105,72.784-18.944
	c4.189-1.965,13.065-29.574-8.563-31.755c-7.096-0.647-16.783-1.656-27.379-2.813c-3.067,2.491-6.036,5.162-8.891,8.018
	C302.822,95.117,293.504,110.759,288.081,127.394z"/>
<g>
</g>
<g>
</g>
<g>
</g>
<g>
</g>
<g>
</g>
<g>
</g>
<g>
</g>
<g>
</g>
<g>
</g>
<g>
</g>
<g>
</g>
<g>
</g>
<g>
</g>
<g>
</g>
<g>
</g>
</svg>
